<svg id="layer1" xmlns="http://www.w3.org/2000/svg" xmlns:xlink="http://www.w3.org/1999/xlink" viewBox="0 0 1108.3803 128.432"><defs><style>.cls-1{fill:none;}.cls-2{clip-path:url(#clip-path);}.cls-3{fill:#c4d6ff;}</style><clipPath id="clip-path" transform="translate(0.2235 0.447)"><rect class="cls-1" width="1000" height="400"/></clipPath></defs><title>estrelas</title><g class="cls-2"><circle class="cls-3" cx="269.2235" cy="54.3333" r="0.447"/><circle class="cls-3" cx="261.51329" cy="30.1003" r="0.447"/><circle class="cls-3" cx="927.91508" cy="69.2566" r="0.447"/><circle class="cls-3" cx="962.94558" cy="36.4785" r="0.447"/><circle class="cls-3" cx="280.01369" cy="60.8321" r="0.447"/><path class="cls-3" d="M578.04409,118.5401a.447.447,0,1,1-.4469-.447A.44694.44694,0,0,1,578.04409,118.5401Z" transform="translate(0.2235 0.447)"/><circle class="cls-3" cx="595.25378" cy="127.538" r="0.447"/><circle class="cls-3" cx="732.21138" cy="35.723" r="0.447"/><circle class="cls-3" cx="1107.9333" cy="36.9255" r="0.447"/><circle class="cls-3" cx="892.81158" cy="18.1239" r="0.447"/><circle class="cls-3" cx="823.6625" cy="22.318" r="0.447"/><circle class="cls-3" cx="485.15589" cy="121.0105" r="0.447"/><circle class="cls-3" cx="428.3755" cy="44.8047" r="0.447"/><circle class="cls-3" cx="443.39009" cy="33.1641" r="0.447"/><circle class="cls-3" cx="782.07588" cy="53.8576" r="0.447"/><circle class="cls-3" cx="438.64559" cy="127.985" r="0.447"/><path class="cls-3" d="M588.20719,53.4106a.447.447,0,1,1-.4469-.447A.44694.44694,0,0,1,588.20719,53.4106Z" transform="translate(0.2235 0.447)"/><circle class="cls-3" cx="269.0875" cy="98.7406" r="0.447"/><circle class="cls-3" cx="286.52059" cy="107.2914" r="0.447"/><path class="cls-3" d="M176.6462,100.317a.447.447,0,1,1-.447-.447A.447.447,0,0,1,176.6462,100.317Z" transform="translate(0.2235 0.447)"/><circle class="cls-3" cx="119.6423" cy="24.5581" r="0.447"/><circle class="cls-3" cx="164.8589" cy="25.4521" r="0.447"/><circle class="cls-3" cx="129.9124" cy="107.7384" r="0.447"/><circle class="cls-3" cx="279.25059" cy="33.6111" r="0.447"/><circle class="cls-3" cx="746.66628" cy="51.3872" r="0.447"/><circle class="cls-3" cx="902.79368" cy="57.8442" r="0.447"/><circle class="cls-3" cx="747.11328" cy="96.3442" r="0.447"/><circle class="cls-3" cx="798.93308" cy="109.9759" r="0.447"/><circle class="cls-3" cx="1006.7661" cy="84.028" r="0.447"/><circle class="cls-3" cx="470.19199" cy="68.5158" r="0.447"/><circle class="cls-3" cx="505.22239" cy="35.7376" r="0.447"/><circle class="cls-3" cx="274.48829" cy="34.9821" r="0.447"/><path class="cls-3" d="M435.31189,16.936a.44695.44695,0,1,1-.447-.447A.447.447,0,0,1,435.31189,16.936Z" transform="translate(0.2235 0.447)"/><circle class="cls-3" cx="365.93939" cy="21.5771" r="0.447"/><circle class="cls-3" cx="324.35269" cy="53.1168" r="0.447"/><circle class="cls-3" cx="288.94319" cy="50.6464" r="0.447"/><circle class="cls-3" cx="488.73519" cy="16.936" r="0.447"/><circle class="cls-3" cx="8.4926" cy="45.6664" r="0.447"/><circle class="cls-3" cx="23.5072" cy="34.0258" r="0.447"/><path class="cls-3" d="M50.5325,68.9305a.447.447,0,1,1-.4469-.447A.44692.44692,0,0,1,50.5325,68.9305Z" transform="translate(0.2235 0.447)"/><circle class="cls-3" cx="85.3395" cy="36.5993" r="0.447"/><circle class="cls-3" cx="15.2055" cy="18.2447" r="0.447"/><circle class="cls-3" cx="68.8523" cy="17.7977" r="0.447"/><circle class="cls-3" cx="289.39019" cy="95.6034" r="0.447"/><circle class="cls-3" cx="341.20989" cy="109.235" r="0.447"/><circle class="cls-3" cx="549.04289" cy="83.2872" r="0.447"/></g><circle class="cls-3" cx="1000.2235" cy="38.52808" r="0.447"/><circle class="cls-3" cx="1000.6705" cy="0.447" r="0.447"/><path class="cls-3" d="M-.2235,76.16005a.447.447,0,0,1,.447.447.44709.44709,0,0,1-.447.447" transform="translate(0.2235 0.447)"/></svg>