<svg xmlns="http://www.w3.org/2000/svg" xmlns:xlink="http://www.w3.org/1999/xlink" viewBox="0 0 1001.5645 250.4763"><defs><style>.cls-1{fill:none;}.cls-2{isolation:isolate;}.cls-3{clip-path:url(#clip-path);}.cls-4,.cls-5,.cls-9{mix-blend-mode:screen;}.cls-4{fill:url(#Áåçûìÿííûé_ãðàäèåíò_550);}.cls-5{fill:url(#Áåçûìÿííûé_ãðàäèåíò_558);}.cls-6{fill:#fff;}.cls-6,.cls-8{fill-rule:evenodd;}.cls-7{opacity:0.2;}.cls-8{fill:#635eb0;}.cls-9{fill:url(#Áåçûìÿííûé_ãðàäèåíò_167);}.cls-10{fill:#c4d6ff;}</style><clipPath id="clip-path" transform="translate(0.2235 59.5204)"><rect class="cls-1" width="1000" height="400"/></clipPath><radialGradient id="Áåçûìÿííûé_ãðàäèåíò_550" cx="-1083.87859" cy="249.14308" r="22.94666" gradientTransform="matrix(0.00009, -2.39412, -2.37376, -0.00009, 1070.21015, -2527.91457)" gradientUnits="userSpaceOnUse"><stop offset="0" stop-color="#6a229d"/><stop offset="0.15539" stop-color="#672199"/><stop offset="0.31552" stop-color="#5f1e8c"/><stop offset="0.4779" stop-color="#511a78"/><stop offset="0.64187" stop-color="#3d145b"/><stop offset="0.80707" stop-color="#240c36"/><stop offset="0.9711" stop-color="#060209"/><stop offset="1"/></radialGradient><radialGradient id="Áåçûìÿííûé_ãðàäèåíò_558" cx="-1083.38871" cy="248.26305" r="19.57578" gradientTransform="matrix(-0.00006, -2.39412, -2.37376, 0.00006, 1068.61067, -2529.08426)" gradientUnits="userSpaceOnUse"><stop offset="0" stop-color="#0037a4"/><stop offset="0.15343" stop-color="#0036a0"/><stop offset="0.31002" stop-color="#003294"/><stop offset="0.46811" stop-color="#002b7f"/><stop offset="0.62717" stop-color="#002163"/><stop offset="0.7871" stop-color="#00153e"/><stop offset="0.94558" stop-color="#000611"/><stop offset="1"/></radialGradient><radialGradient id="Áåçûìÿííûé_ãðàäèåíò_167" cx="-1063.87849" cy="169.17136" r="52.75988" gradientTransform="matrix(-2.3941, 0, 0, 2.3737, -2064.9532, -276.3239)" gradientUnits="userSpaceOnUse"><stop offset="0" stop-color="#0037a4"/><stop offset="0.12747" stop-color="#002e89"/><stop offset="0.42655" stop-color="#001a4e"/><stop offset="0.6822" stop-color="#000c24"/><stop offset="0.88151" stop-color="#00030a"/><stop offset="1"/></radialGradient></defs><title>lua</title><g class="cls-2"><g id="layer1"><g class="cls-3"><ellipse class="cls-4" cx="478.70829" cy="67.00113" rx="54.47025" ry="54.93666" transform="translate(93.0678 417.65682) rotate(-45.00213)"/><ellipse class="cls-5" cx="479.35614" cy="64.69467" rx="46.46856" ry="46.86638" transform="translate(94.87064 417.41585) rotate(-44.99864)"/><path class="cls-6" d="M438.52039,64.8642a40.54832,40.54832,0,1,0,81.09661,0,41.27375,41.27375,0,0,0-.23541-4.3988,40.55027,40.55027,0,0,0-80.8612,4.3988Z" transform="translate(0.2235 59.5204)"/><g class="cls-7"><path class="cls-8" d="M489.312,92.2741a9.6191,9.6191,0,0,1-1.71911,2.9462,5.38247,5.38247,0,0,1-2.9002,1.5211,4.25408,4.25408,0,0,1-1.7676.4427,9.5457,9.5457,0,0,0-1.9883-.0237c-1.2861.2917-1.9704,1.4321-3.4127,1.5102a8.92719,8.92719,0,0,1-3.43909-.7424c-1.11511-.3415-2.41641-.828-3.45121-1.2196-1.1309-.4279-2.1419-.7304-3.3149-1.1056-1.2554-.4015-1.9008-1.2406-3.47489-.8005-.09941.5848.04439,1.511-.67471,1.8039-.493.2008-1.3136-.3203-1.84229-.5236-1.37581-.5291-2.62061-.8196-3.92661-1.3668a6.15765,6.15765,0,0,1-1.7331-.7236c-.615-.4571-1.2774-.7991-1.9179-1.2271-1.1862-.7926-2.3517-1.6528-3.5317-2.4558a18.8674,18.8674,0,0,1-6.7045-9.714c-.5607-1.6543-.3724-2.1237.735-3.4749,1.98681.8271,2.77481-.4024,2.2233-2.5283a14.73147,14.73147,0,0,1-.2726-6.2759c.0743-.3455.3375-.5902.395-1.0802a9.41577,9.41577,0,0,1,.09611-1.4849,8.3695,8.3695,0,0,0,.38189-2.4558,11.65265,11.65265,0,0,1,.1093-2.947,5.97276,5.97276,0,0,0,.3933-1.4734,7.65018,7.65018,0,0,1,.0996-1.8537c.4733-1.6394,1.9728-2.0988,3.3271-2.5668.92381-.3192,1.3875-.6338,1.9761-.0079.62971.6695.4722,1.5894.478,2.462.011,1.6409-1.0469,3.0876-1.9629,4.4205-.4075.593-1.1232,1.1655-1.0191,1.9803.0573.4483.611.5147.577.9666-.0411.5462-.6298.7116-.9221,1.0934-2.3441,3.0612,2.0712,5.7547,4.1765,7.3797,1.1997.9259,3.0029,1.3984,3.4618,2.9364.49051,1.6439-.64249,3.0152-1.2401,4.4205-.6243,1.4678-1.1659,4.0465-.2553,5.4247a4.1667,4.1667,0,0,0,1.7288,1.2182,11.68429,11.68429,0,0,1,1.9516,1.4866,6.53632,6.53632,0,0,0,4.3111,1.1029,4.59876,4.59876,0,0,0,2.4541-.9937,8.71951,8.71951,0,0,1,2.0774-1.3625,7.90965,7.90965,0,0,1,1.3756-.0979c.6922-.0847.8259-.3709,1.43331-.5279,1.04489-.2701,1.78649.4682,2.60529.8837a3.48427,3.48427,0,0,0,2.3605.6371c.8126-.2112,1.756-.7348,2.538-.8967,1.8736-.3878,4.9076-.5226,6.4088.7515.7569.6424,1.0221,1.5425,1.6988,2.2192C487.85979,90.5967,489.11059,90.7694,489.312,92.2741Z" transform="translate(0.2235 59.5204)"/><path class="cls-8" d="M451.98359,49.543c1.7992.0361,3.4539-1.3181,4.9239-2.3343a9.2947,9.2947,0,0,0,3.0553-3.4391c.1756-.3894.2343-.7095.3705-1.1029.0299-.0863.4685-1.2534.4676-1.2882a3.54977,3.54977,0,0,0-1.0837-2.025c-1.4636-1.5099-3.7024-.4237-5.1703.4878a24.04675,24.04675,0,0,0-3.9022,2.9487,9.18944,9.18944,0,0,0-1.741,1.7067,5.79788,5.79788,0,0,0-.36,3.0799c.023,1.6616-2.1504,3.5746.4798,3.9407,1.0329.1437,4.1981-.7274,4.4336-1.9743Z" transform="translate(0.2235 59.5204)"/><path class="cls-8" d="M484.40029,102.0974c.4468.496.974.1535,1.4792-.007a4.44642,4.44642,0,0,1,1.4678-.2386,11.98726,11.98726,0,0,0,3.0698-.2456c.9705-.2417,1.8962-.3826,2.8237-.6143.3697-.0924.7224-.2998,1.096-.3776.2304-.048.49121.031.7254-.0114.1101-.0199.1194-.1526.1984-.1699.1891-.0416.3698-.0149.5569-.0479a23.20065,23.20065,0,0,0,2.6348-.6897,4.21837,4.21837,0,0,0,1.1138-.354c.37691-.2305.8941-.4858,1.2336-.7368a32.46965,32.46965,0,0,0,3.9839-3.0151c1.1389-1.1433,2.3109-2.1892,3.5046-3.2537.2764-.2465.4996-.5724.7902-.8012a7.92023,7.92023,0,0,0,.9232-.6732,14.87023,14.87023,0,0,0,1.5975-2.0315,34.5999,34.5999,0,0,0,2.9772-4.0766c.3683-.7412.7004-1.4615,1.1361-2.1704a10.512,10.512,0,0,0,.7427-1.4851c.1495-.3698.45-.8054.5521-1.1582.153-.5285.1494-1.0348.2943-1.5476.0633-.224.2114-.3747.265-.5945.0672-.2756-.0807-.6033-.0218-.8814.0526-.2486.2106-.3579.2674-.5921.06691-.2758-.0807-.6032-.0219-.8814.0526-.2486.2107-.3579.2675-.5921.0764-.3148-.10169-.6928-.0254-1.0077.05671-.2338.2145-.344.2675-.592a4.47133,4.47133,0,0,0-.0092-.8688c-.0051-.6328.2187-1.118.2513-1.719a7.99292,7.99292,0,0,0,.0035-1.8511c-.0528-.2474-.2121-.3588-.2675-.5921-.0764-.3217.077-.647-.0293-.9754-.6624-.173-.4528,1.2332-.44959,1.5763.00589.6346-.26021.9801-.24521,1.5967.0185.76-.3006.8648-.7494,1.4188a4.32592,4.32592,0,0,0-.7367,1.0243c-.0638.2089-.0575.5451-.1101.7495a2.35861,2.35861,0,0,0-.122.7376c.011.5987.04341.901-.4255,1.2878a3.68457,3.68457,0,0,1-1.2808.6895c-.559.1254-1.0461.1171-1.6195.2224-.2583.0475-.3501.2108-.5916.2679-.311.0735-.6421-.1208-.9461.0363a2.14721,2.14721,0,0,0-.7302.9888,1.78436,1.78436,0,0,0,.19011,1.418c.08519.1636.15029.3337.24639.4903.1135.1849.3415.3576.4414.541.4626.8495-.2057,2.2325-.3885,2.9518-.071.2797-.4927,1.1291-.26129,1.3835.23329.2565,1.62379.0355,1.88859-.1185.1516.3108-.139.907-.2309,1.2365a5.76456,5.76456,0,0,1-.5225,1.3137,5.42087,5.42087,0,0,1-2.003,1.8091c-.4996.2626-.8041.4008-.895-.2696-.04119-.3041.0465-.4707-.1079-.7516-.1099-.1999-.3126-.2247-.3894-.4702-.0834-.2666.0865-.6079.021-.8805-.0482-.2006-.1928-.3283-.2338-.503-.136-.5797.0891-1.2337-.00909-1.8208a2.45015,2.45015,0,0,0-2.09931-1.9647,18.27609,18.27609,0,0,1-3.0571-.9823,4.85412,4.85412,0,0,0-3.4508-.3059,15.3243,15.3243,0,0,0-2.548,1.3184,9.57911,9.57911,0,0,1-1.1427.454c-.45009.1742-.9167.345-1.36709.4747a10.35017,10.35017,0,0,0-2.49491.8148,7.49554,7.49554,0,0,0-2.15409,1.6581,3.43608,3.43608,0,0,0-.58911,2.812c.2613.6179,1.1947,1.1566,1.6389,1.6765.756.8847.5536,1.4737,0,2.3871a5.43817,5.43817,0,0,0-.6537,1.1336,6.27113,6.27113,0,0,0-.0238,1.7,2.15146,2.15146,0,0,0,.4262,1.1709c.2404.3651.8037.5944.999.9623.1777.3347.0127.5026-.1276.7559-.0393.0712-.1606.0955-.1997.1687-.0935.1751-.0335.3372-.107.5069-.2436.5625-.7297.4759-1.2341.6078a2.27328,2.27328,0,0,1-1.4805-.1158,2.73293,2.73293,0,0,0-.7232-.2574c-.3612-.0551-.5332.1404-.797.1949-.6046.125-.9502-.2887-1.5521-.3216a1.42792,1.42792,0,0,0-1.15629.5619c-.31181.3117-.74751.8294-.69441,1.2957C483.45409,101.3544,484.06289,101.6556,484.40029,102.0974Z" transform="translate(0.2235 59.5204)"/><path class="cls-8" d="M489.06639,83.6788a3.58349,3.58349,0,0,0-.4295-.2093,6.10559,6.10559,0,0,1-1.2904,1.1908c-.7169.4502-1.0728.1654-1.2359-.6035-.08359-.3946.1288-.6382.2006-.9229.0823-.3265.0033-.6742.3492-.8788.4781-.2828,1.8755-.1363,1.6692.687Z" transform="translate(0.2235 59.5204)"/><path class="cls-8" d="M512.64219,51.9988a.40949.40949,0,0,0,.454.2268,4.39433,4.39433,0,0,0,.0162-1.5565c-.0431-.2288-.1949-.3421-.2311-.6284-.0301-.2377.0041-.4501-.0481-.6887-.0667-.3045-.3168-.786-.3819-1.0916a5.01819,5.01819,0,0,0-.30729-1.1662c-.17471-.3975-.27491-.9162-.45351-1.3674a6.90628,6.90628,0,0,0-.5834-1.0885c-.4523-.7464-.8284-1.469-1.28909-2.2172a14.83442,14.83442,0,0,0-2.96511-3.6774c-.4206-.3539-.8981-.6185-1.3387-.9279-.152-.1067-.2706-.2771-.4168-.3737-.1428-.0942-.375-.1381-.5047-.2329-.38369-.2801-1.4869-1.3974-1.9892-1.1291.3464.9119.9451,1.8259,1.3822,2.7185.5052,1.0314,1.4529.9871,2.2089,1.7203,1.1827,1.1473-.7885,1.6261-1.4713,2.0748-.6681.4389-.68,1.0681-.6764,1.792a5.708,5.708,0,0,1-.2456,1.8419,7.18857,7.18857,0,0,0-.2592.8587q.01365.2523.0271.5047a.3489.3489,0,0,1-.2045.2875,2.64316,2.64316,0,0,0,.3754,1.7191,3.89488,3.89488,0,0,0,.8596,1.6019c.4818.4482,1.0116.2989,1.6574.3073a3.23523,3.23523,0,0,0,.9815-.191c.2461-.0607.603-.2081.7922-.2447.2934-.0568.5803-.0472.8731-.1093.3048-.0646.3257-.2422.7367-.1346.4252.1113.8278.5932,1.2699.6931.6168.1394,1.3214-.1508,1.9353.0293C512.85979,51.6174,512.87379,51.6853,512.64219,51.9988Z" transform="translate(0.2235 59.5204)"/><path class="cls-8" d="M466.70079,83.3553a3.206,3.206,0,0,1,2.0666,1.4173c.5789.8347-.4995,1.6951-1.0995,2.1126a3.4794,3.4794,0,0,1-.6942.4171,3.22777,3.22777,0,0,1-.63369.2929c-.43381.0026-.599-1.0342-.76191-1.3753-.5152-1.0794.3075-1.8615,1.1227-2.4979Z" transform="translate(0.2235 59.5204)"/><path class="cls-8" d="M463.217,85.0056l.152.1207c.23729-.5213-.13881-1.0794-.17851-1.5694a1.51041,1.51041,0,0,0-1.0868.9903c-.004.6002.88731.6343,1.2966.6417Z" transform="translate(0.2235 59.5204)"/><path class="cls-8" d="M456.79929,61.1687c.2053-.8946,1.4582.103,1.7876.4121a1.8727,1.8727,0,0,1,.7777,1.8799c.0139.4535.1875.8155.1848,1.2835a4.79872,4.79872,0,0,1-.1778,1.3847,3.49826,3.49826,0,0,1-1.4727,1.8241,12.39782,12.39782,0,0,1-1.1038.5955c-.47609.2574-.4842.3721-.9814.1151a6.17062,6.17062,0,0,1-1.6268-1.0319,8.7765,8.7765,0,0,1-1.4208-1.6957c-.4846-.8306.0316-1.4716.4628-2.2021a14.52141,14.52141,0,0,1,1.9656-2.3359,3.85193,3.85193,0,0,1,.7246-.7429C456.39,60.4144,456.88969,60.8114,456.79929,61.1687Z" transform="translate(0.2235 59.5204)"/><path class="cls-8" d="M456.98269,57.8682l.1478-.0356c.0152-.237.5243-1.0015.187-1.2245-.2513-.1661-.6467.341-.7929.5201-.2455.3007-.4663.8352-.1458,1.1606a.4643.4643,0,0,0,.7873-.4206Z" transform="translate(0.2235 59.5204)"/><path class="cls-8" d="M465.05059,98.0242a1.76,1.76,0,0,1,1.3752-.3508c.4668.1047.8301.2677,1.2817.3457a8.95178,8.95178,0,0,1,2.8481,1.1003c1.1446.7057,3.1518,2.6924,1.2098,3.6943a6.06721,6.06721,0,0,1-2.6802.3439c-.4645.0063-.7179-.1918-1.1928-.1827a5.21843,5.21843,0,0,1-1.3749-.275,14.96435,14.96435,0,0,1-2.3837-.7749,5.97728,5.97728,0,0,1-1.79279-1.3338,1.487,1.487,0,0,1-.08621-2.2457c.4065-.4132.7634-.3211,1.3289-.3213C464.13379,98.024,464.68389,98.0242,465.05059,98.0242Z" transform="translate(0.2235 59.5204)"/><path class="cls-8" d="M460.09979,97.6574a.2937.2937,0,0,0,.3433.1652c.202-.4143-.8309-1.0737-1.1224-1.2196-.4876-.2442-1.4286-.7652-1.6108.0391-.1184.523.46211,1.2255.9165,1.4803a1.22174,1.22174,0,0,0,1.6568-.6483Z" transform="translate(0.2235 59.5204)"/><path class="cls-8" d="M444.88089,63.0023l.152.0313a6.22589,6.22589,0,0,1-.1562,2.169c-.0394.7271.0042,1.4714.0042,2.2003,0,.7334-.0028,1.4669,0,2.2003a4.04741,4.04741,0,0,1-.0408.8761,2.895,2.895,0,0,0-.1468.4032,5.97629,5.97629,0,0,0,.0042.7377,5.30639,5.30639,0,0,1-.0408,1.0594c-.007.034-.127.3612-.1425.4075-.0703.2094-.008.2281-.1338.4163a1.23269,1.23269,0,0,1-1.5259.5508c-.4519-.2303-.7947-.5839-1.264-.7844a2.35707,2.35707,0,0,1-1.2936-1.2829,10.14832,10.14832,0,0,1-.54489-1.6597c-.04881-.1578-.16211-.1858-.19871-.3471-.0372-.1641.0044-.3494-.0307-.5194a2.80033,2.80033,0,0,1-.1474-.4026q.01215-.19035.0144-.3811a.25854.25854,0,0,0-.1521-.2147,5.30556,5.30556,0,0,1-.03649-.876c-.02421-.3891-.16631-.7002-.18281-1.1002-.01619-.3948-.1929-.6905-.1876-1.1001.0048-.3666-.00059-.7336-.00059-1.1002,0-.733.011-1.4668.00059-2.1997a3.62355,3.62355,0,0,1,.1828-.9132c.0745-.3649.0944-.7545.1732-1.1139.05441-.2478.28041-.5321.3367-.7641a2.30268,2.30268,0,0,1,.3615-.8819,2.49222,2.49222,0,0,1,1.2838-1.14,2.086,2.086,0,0,1,2.0255.2745,1.914,1.914,0,0,1,.5961.6779c.04381.1472-.0014.3597.0313.5188a2.03782,2.03782,0,0,1,.142.5915,11.30715,11.30715,0,0,0-.0089,2.3925c.078.3351.3062.7348.4213,1.0907C444.519,63.2617,444.51489,63.6281,444.88089,63.0023Z" transform="translate(0.2235 59.5204)"/><path class="cls-8" d="M445.79769,53.6509c.48131-.1514.7351.9368.7328,1.2841-.0019.2923.0947.6341-.1744.8328a1.51889,1.51889,0,0,1-.9339.0922c-.58219-.1726-.5355-1.0033-.5407-1.4751-.0058-.5288.4411-1.2259,1.0996-1.1008Z" transform="translate(0.2235 59.5204)"/><path class="cls-8" d="M508.69039,52.9174l.03561-.1478c.18729-.0155.28629-.164.43879-.2029a2.488,2.488,0,0,1,.6258-.016,7.16888,7.16888,0,0,0,1.0959-.1876,4.50522,4.50522,0,0,1,.6478.0024,1.94079,1.94079,0,0,1,.4974.1444,2.34029,2.34029,0,0,1,1.0641.3111,5.20006,5.20006,0,0,1,1.2809,1.6372,4.64143,4.64143,0,0,1,.7314,2.3098,1.57092,1.57092,0,0,1-.20409.9878,4.30188,4.30188,0,0,0-.48431.8908,1.37086,1.37086,0,0,1-1.512,1.0545,4.72634,4.72634,0,0,1-2.1982-.8197,8.48209,8.48209,0,0,1-.8476-.6261,2.67758,2.67758,0,0,1-.7178-.5658,6.27552,6.27552,0,0,1-.7287-2.205,3.16353,3.16353,0,0,1-.076-1.3596c.0187-.0807.1105-.0882.1269-.1481.03871-.142-.0012-.2903.03571-.4227C508.56009,53.3461,508.75419,53.1552,508.69039,52.9174Z" transform="translate(0.2235 59.5204)"/><path class="cls-8" d="M506.67349,54.3843c.4689-.0129-.1654-1.3145-.6878-1.2463-.4445.058-.8412.7885-.9465,1.1706-.4523,1.6418,2.0337,1.7666,2.001.2591Z" transform="translate(0.2235 59.5204)"/><path class="cls-8" d="M500.62259,57.3181c.04.3863.4232.6215.508.9576a1.07188,1.07188,0,0,1-.2744.9263c-.1664.2259-.4831.5761-.7883.5128-.3023-.0626-.4865-.4804-.7241-.6595-.4822-.3636-1.337-.7326-.7397-1.4637a1.571,1.571,0,0,1,1.01-.4637,1.37539,1.37539,0,0,1,1.1918.3735Z" transform="translate(0.2235 59.5204)"/><path class="cls-8" d="M513.27449,73.6372c.6773.1627.6187-.8718.523-1.2565a4.31478,4.31478,0,0,0-.88549-.2241,2.692,2.692,0,0,0-1.063.4271,1.24223,1.24223,0,0,0-.50851,1.6054c.1988.3907,1.0949.9804,1.53.6944a2.3706,2.3706,0,0,0,.5873-1.613Z" transform="translate(0.2235 59.5204)"/><path class="cls-8" d="M461.56669,34.2146c.1737-.3338.2935-.4784.0036-.737a.9133.9133,0,0,0-.8789-.1383,3.26171,3.26171,0,0,0-1.187,1.0091,2.19416,2.19416,0,0,0-.4675.8281,1.09681,1.09681,0,0,0,.2792.7386,11.91906,11.91906,0,0,0,1.1051,1.0953c.5261.5434.8544.2256,1.2829-.2748.3397-.3966.6075-.855.922-1.2782a3.80146,3.80146,0,0,0,.3703-.7384,1.05521,1.05521,0,0,0-.2331-.6925,3.47782,3.47782,0,0,0-1.3799-1.0954Z" transform="translate(0.2235 59.5204)"/><path class="cls-8" d="M457.16609,35.6815l.152.0313a.625.625,0,0,1-.5093.895c-.41779.0949-1.0274-.0826-1.1201-.461-.0901-.3678.2818-.7257.5558-.9284.4286-.317.8232-.3772.9216.2797Z" transform="translate(0.2235 59.5204)"/><path class="cls-8" d="M459.91649,82.6219c-.0552.1804.167.6921.22351.8766a8.025,8.025,0,0,0,.32659.8653,3.96363,3.96363,0,0,1,.275.9168c.0621.3362.2253.604.2837.9117.131.6906-.676,1.1736-1.3017,1.0231a4.7218,4.7218,0,0,1-1.4982-.8855c-.3018-.2169-.3822-.173-.5549-.5459a7.48565,7.48565,0,0,1-.3158-.9713,2.50536,2.50536,0,0,1-.1886-.9073,4.84316,4.84316,0,0,1,.0414-1.0995c.4218-1.7297,2.3132-.6201,2.709.5494Z" transform="translate(0.2235 59.5204)"/><path class="cls-8" d="M454.41569,94.5403c.1801-.6492-1.0446-1.0992-1.4669-1.0989-.5036.0004-.5927.0561-.7785.5038a.94665.94665,0,0,0,.0432,1.0553,2.0505,2.0505,0,0,0,2.0966.6261c.7703-.3022.4324-1.3165-.2612-1.453Z" transform="translate(0.2235 59.5204)"/><path class="cls-8" d="M462.30019,81.3383a.97364.97364,0,0,0,.5595-.5406c.0478-.1603-.0173-.3469.03131-.5187a2.099,2.099,0,0,0,.14689-.4033c.02211-.1772-.0503-.3797-.0138-.5543.0417-.1993.1673-.3505.2023-.5501.062-.3526-.0811-.7475-.0189-1.1002.0577-.3272.3796-.7096.1556-1.0629-.1855-.2927-.58109-.2619-.8838-.2248a8.50338,8.50338,0,0,0-.9132.2284,3.91758,3.91758,0,0,0-1.1756.5092,2.47,2.47,0,0,0-1.214,1.3684,5.59711,5.59711,0,0,0,.09851,2.1152,2.20093,2.20093,0,0,0,.81829,1.382,2.81751,2.81751,0,0,0,2.0235-.0982Z" transform="translate(0.2235 59.5204)"/><path class="cls-8" d="M458.08289,80.9716l-.0007-.1213c.167.8903-.8875.7881-1.1077.1308-.2522-.7532.9547-.9832,1.1084-.1928Z" transform="translate(0.2235 59.5204)"/></g><ellipse class="cls-9" cx="482.07829" cy="125.23813" rx="126.3104" ry="125.23817"/></g><circle class="cls-10" cx="1000.2235" cy="97.60148" r="0.447"/><circle class="cls-10" cx="1000.6705" cy="59.5204" r="0.447"/><path class="cls-10" d="M-.2235,76.16005a.447.447,0,0,1,.447.447.44709.44709,0,0,1-.447.447" transform="translate(0.2235 59.5204)"/><path class="cls-10" d="M1000.447,0a.447.447,0,1,1,0,.894" transform="translate(0.2235 59.5204)"/><path class="cls-10" d="M0,0A.447.447,0,0,1,.447.447.44709.44709,0,0,1,0,.894" transform="translate(0.2235 59.5204)"/><path class="cls-10" d="M-.2235,76.16005a.447.447,0,0,1,.447.447.44709.44709,0,0,1-.447.447" transform="translate(0.2235 59.5204)"/><path class="cls-10" d="M1000.894,107.133a.447.447,0,1,1,0,.894" transform="translate(0.2235 59.5204)"/></g></g></svg>