<svg xmlns="http://www.w3.org/2000/svg" xmlns:xlink="http://www.w3.org/1999/xlink" viewBox="0 0 1015.09387 402.59459"><defs><style>.cls-1{fill:none;}.cls-2{isolation:isolate;}.cls-3{clip-path:url(#clip-path);}.cls-4{fill:#cfdde0;}.cls-10,.cls-11,.cls-12,.cls-13,.cls-14,.cls-15,.cls-16,.cls-17,.cls-18,.cls-19,.cls-20,.cls-21,.cls-22,.cls-23,.cls-4,.cls-5,.cls-6,.cls-7,.cls-8,.cls-9{fill-rule:evenodd;}.cls-17,.cls-4,.cls-8{mix-blend-mode:soft-light;}.cls-5{fill:url(#Áåçûìÿííûé_ãðàäèåíò_31);}.cls-6{fill:url(#Áåçûìÿííûé_ãðàäèåíò_68);}.cls-7{fill:#947abf;}.cls-16,.cls-7,.cls-9{mix-blend-mode:multiply;}.cls-8{fill:#b29adb;}.cls-9{fill:#8674a5;}.cls-10{fill:url(#Áåçûìÿííûé_ãðàäèåíò_107);}.cls-11{fill:#7e81fd;}.cls-12,.cls-13{opacity:0.7;}.cls-12{fill:url(#linear-gradient);}.cls-13{fill:url(#linear-gradient-2);}.cls-14{opacity:0.5;fill:url(#linear-gradient-3);}.cls-15{fill:url(#linear-gradient-4);}.cls-16{fill:#8167b5;}.cls-17{fill:#eee3ff;}.cls-18{fill:#776f8a;}.cls-19{fill:#664d6d;}.cls-20,.cls-22{fill:#a4bdff;}.cls-20{opacity:0.8;}.cls-21{fill:#8481ba;}.cls-23{fill:#9c99b3;}</style><clipPath id="clip-path" transform="translate(2.5263)"><rect class="cls-1" width="1000" height="400"/></clipPath><linearGradient id="Áåçûìÿííûé_ãðàäèåíò_31" x1="614.94972" y1="402.59459" x2="614.94972" y2="330.04199" gradientUnits="userSpaceOnUse"><stop offset="0" stop-color="#b6d6ff"/><stop offset="0.56407" stop-color="#98baff"/><stop offset="1" stop-color="#86a9ff"/></linearGradient><linearGradient id="Áåçûìÿííûé_ãðàäèåíò_68" x1="548.51636" y1="400" x2="548.51636" y2="137.4211" gradientTransform="matrix(-1, 0, 0, 1, 1118.2563, 0)" gradientUnits="userSpaceOnUse"><stop offset="0" stop-color="#92c2ff"/><stop offset="1" stop-color="#5e7cff"/></linearGradient><linearGradient id="Áåçûìÿííûé_ãðàäèåíò_107" x1="496.98606" y1="400" x2="496.98606" y2="102.8105" gradientTransform="matrix(-1, 0, 0, 1, 1118.2563, 0)" gradientUnits="userSpaceOnUse"><stop offset="0" stop-color="#92c2ff"/><stop offset="0.1198" stop-color="#84aff1"/><stop offset="0.53352" stop-color="#5470c5"/><stop offset="0.78906" stop-color="#5459a9"/><stop offset="1" stop-color="#544a97"/></linearGradient><linearGradient id="linear-gradient" x1="238.65802" y1="236.96396" x2="1006.40541" y2="236.96396" gradientUnits="userSpaceOnUse"><stop offset="0" stop-color="#4e65f3"/><stop offset="0.17806" stop-color="#4e64ea"/><stop offset="0.46766" stop-color="#4e61d2"/><stop offset="0.8307" stop-color="#4e5cab"/><stop offset="1" stop-color="#4e5996"/></linearGradient><linearGradient id="linear-gradient-2" x1="205.92069" y1="314.2494" x2="572.02109" y2="314.2494" xlink:href="#linear-gradient"/><linearGradient id="linear-gradient-3" x1="350.25835" y1="229.1151" x2="716.65428" y2="229.1151" gradientTransform="matrix(0.9997, 0.0233, -0.0233, 0.9997, 5.4368, -12.7681)" xlink:href="#linear-gradient"/><linearGradient id="linear-gradient-4" x1="527.59453" y1="372.55123" x2="522.42474" y2="280.70973" gradientTransform="translate(-79.92301 -22.495) rotate(3.22178)" gradientUnits="userSpaceOnUse"><stop offset="0" stop-color="#17284f"/><stop offset="0.23674" stop-color="#182155"/><stop offset="1" stop-color="#190f66"/></linearGradient></defs><title>montanha-fundo</title><g class="cls-2"><g id="layer1"><g class="cls-3"><polygon class="cls-4" points="1007.671 156.783 207.671 160.255 206.818 174.053 781.645 171.69 207.671 185.802 207.383 200 1008.247 189.704 1007.671 156.783"/><polygon class="cls-5" points="214.806 330.042 1015.094 353.726 1015.094 402.595 214.806 402.595 214.806 330.042"/><polygon class="cls-6" points="835.935 400 637.962 242.161 634.823 242.77 633.979 241.477 523.268 137.421 516.585 138.352 492.775 170.023 303.545 400 835.935 400"/><path class="cls-7" d="M661.81368,400h-360.79l178.73-217.23-22.73,36.88,57.03-81.3,6.69-.93,111.55,105.35-29.63-20.46-19.74-15.42L734.03368,400h-57.83l-126.43-193.11,3.3836,15.42L599.40368,300l-6.16-21.92Zm-169.43-219.76,12.33-10.61,7.13,13.04.41-26.12Zm22.2,7.21-18.28,25.33,21.22-20.2Zm21.76,32.2-13.73-19.65-65.59,90.24,68.73-83.35,68.73,101.61Z" transform="translate(2.5263)"/><polygon class="cls-8" points="523.268 137.421 507.24 169.632 509.705 174.558 557.293 257.421 538.872 251.405 516.3 283.213 419.124 400 303.545 400 516.585 138.352 523.268 137.421"/><polygon class="cls-9" points="552.303 206.895 532.429 156.555 561.987 191.989 585.45 260.79 552.303 206.895"/><polygon class="cls-10" points="353.395 400 557.293 215.484 562.093 212.705 648.64 102.81 652.682 102.81 658.493 106.853 680.472 140.269 741.987 222.305 790.114 247.695 793.903 248.453 889.145 400 353.395 400"/><path class="cls-9" d="M554.76369,215.48l-6,10.36-89.17,75.77Zm-95.17,86.13,82.87-64.9-3.3,20.12-30.27,20.69,29.33-14.98-3.39,20.67-111.47,51.19Zm-87.87,79.52,132.99-46.77,171.96-89.13,27.55,41.71-28.02-46.18v-.01l-153.59,78.94-123.03,36.23,16.45-14.89,34.54-12.32,84.26-45.5,5.52-15.75.01-.03,8.2-23.37,18.65-10.13-17.34,6.41,9.69-27.63,86.55-109.9h4.04l5.81,4.04-8.23-.48-24.99,41.84,27.47-36.42,5.75-4.94,9.6,15.56,33.35,54.04-36.76-51.16-4.77,2.21-.15.07.45.58,76.71,100.19,5.07-6.03,51.91,26.14,95.25,151.55-95.25-145.48-3.41,2.31,45.44,96.21V336.75l31.87,63.25h-22.6l-69.06-92.05-93,11.74-22.9-36.48,20.23,40.19,91.83,10.32,39.79,66.28h-12.5l-10.85-17.49,5.16,17.49h-66.69l-20.09-23.46,14.03,23.46h-95.88l3.13-4.34,3.5-4.87-69.91-56.43,7.75,10.35,58.66,50.95-53.28-39.74L445.77369,400h-94.9Zm124.58-69.98,23.49-6.85,7.58-6.85Zm79.83-30.49,97.53-64.28h.01l8.95,9.46-9.33-13.06-63.99,38.32-33.17,19.86Zm70.49-61.01-13.29,2.66-13.29,15.91-11.32,4.8-20.84,17.77,32.16-22.57Zm-27.88-42.44,12.59-8.46,30.48-31.33Zm48.09-29-10.36,8.34-72.36,57.97-.02.02-1.17.94,77.55-53.31,6.61,2.54,23.87,33.72Zm111.48,128.15,34.66,43.33-27.49-52.26-19.12,1.28Zm-91.54,34.79,14.79-2.65-11.81-1.49-11.81-9.94Zm110.29,77.13-26.53-46.59-10.41,3.02Zm-220.93-23.27,3.68,2.76,42.93,32.23h-163.15Zm262.99,34.99h-5.72l-48.85-67.8Zm-443.08-40.88,108.67-30.41-117.87,38.74Z" transform="translate(2.5263)"/><path class="cls-8" d="M579.81369,367.77l19.63,32.23h-248.57l20.85-18.87,15.12-13.68,9.2-8.33,3.54-3.2,16.45-14.89,7.33-6.63,36.23-32.79,95.17-86.13,4.8-2.77,86.55-109.9,11.12,24.76,4.58,9.85,5.02,10.79-10.36,8.34,4,5.62,8.84,12.42,3.98,38.19.37,3.6,2.54,24.37v.01l.47,4.47-88.77,56.38,6.58,6.89-35.02,25.86,13.13,21.56Zm-110.08-61.78,20.76-5.99,32.12-16.79Z" transform="translate(2.5263)"/><polygon class="cls-9" points="793.9 248.45 790.49 256.83 788.01 267.43 768.89 268.71 780.84 276.36 772.303 333.716 697.65 359.105 707.124 376.537 711.672 400 625.272 400 706.745 286.94 720.008 248.45 741.99 222.31 793.9 248.45"/><polygon class="cls-9" points="398.57 359.12 402.11 355.92 402.07 355.93 398.57 359.12"/><polygon class="cls-9" points="601.967 315.41 635.251 359.12 629.061 334.4 601.967 315.41"/><polygon class="cls-9" points="780.84 276.36 706.745 286.94 692.28 307.01 709.586 308.5 776.14 307.95 780.84 276.36"/><polygon class="cls-9" points="768.89 268.71 717.121 256.83 720.008 248.45 741.99 222.31 793.9 248.45 788.01 267.43 768.89 268.71"/><polygon class="cls-9" points="660.008 262.545 621.275 286.94 644.345 278.08 660.008 262.545"/><polygon class="cls-9" points="551.29 225.84 557.293 215.484 472.264 292.43 551.29 225.84"/><polygon class="cls-9" points="679.2 245.23 590.43 301.61 509.705 333.082 679.2 245.23"/><polygon class="cls-11" points="680.472 400 544.989 277.52 537.236 277.52 467.28 211.695 442.361 200 420.53 220.79 381.08 173.042 365.575 164.705 256.022 0 102.44 0 2.44 0 2.44 400 680.472 400"/><path class="cls-9" d="M-.3063,188.76l.22-1.31,75.75-53.51,79.39-56.07.45-.32-.47.55-9.17,10.82L-.0863,200.22l-2.44,1.86Zm-2.22,13.32,2.44-1.76,154.37-111.4,57.05,48.5-55.83-65.94-51.3,36.14L-.0863,181.08V69.7l181.43-49.08,2.05-4.03-46.33,10.94,48.27-14.77L191.8237,0h7.16l41.12,65.14,64.65,118.98,18.37,26.82,5.18.25-31.17-62.91,57.44,71.75,53.52,59.11-76.74-100.03-86.42-118.43-21.6-26.14L198.98369,0h54.51l57.79,86.88-38.53-47.99,2.69-1.13,2.36,1.7-3.12-6.15-15.43-16.02-9.01-4.54,61.04,86.02-30.52-36.76,70.11,104.21-21.61-52.3,33.79,50.79-8.22,11.74,48.12,64.42-29.59-50.8.73-10.48,32.65,37.41-30.31-37.39,2.12-6.57,39.45,47.75,21.83-20.79,24.92,11.69,38.66,36.38-33.13-28.54,1.2-.07-2.34-2.84-8.4-3.6,8.84,6.19-9.85-5.75,24.06,22.99-15.66-13.01,16.67,18.07,23.25,19.45-21.6-22.23,34.61,32.33,13.65,6.46h7.75L677.94368,400h-19.96l-114.17-106.45-5.01,6.45,33.79,30.03-43.2-30.03-.24,17.09,78.24,82.91h-94.16l-48.63-51.37-61.65,7.3-84.5-93.46-68.73-72.65,60.78,67.59.01.01,91.43,111.61,68.37-6.72,36.09,37.69H-.0863V339.14l199.79-106.23-5.8-13.41-121.37,53.07,117.34-62.39-.64-5.31-1.36.7-13.42,6.88,11.44-11.46-7.88-18.22,2.42-8.18L-.0863,261.46Zm98.39-127.79-17.16,8.31,13.39-2.64Zm-19.37,45.19,13.57-11.86-34.1,20.52Zm101.12-91.51-.01.01-45.34,32.89,39.31-21.03,20.25,21.03,17.36,16.68Zm104.46,66.82,2.27,8.02,6.82-2.06Zm231.57,204.46,8.97-9.25-55.24-50.26,9.1,11.67-24.63-14.7-7.52-10.87-.67,4.41,8.19,6.46Zm-4.12,4.24h-9.61l4.76,5.01Zm-58.44-9.18,13.52,2.76-14.77-10.13-19.59,21.01Zm-2.83-16.81,49.72,37.91,5.41-5.58-57.8-54.56-3.51-14.52-28.64,25.54,28.3-21.06.34,4.55-29.65,26.58-1.75,17.35Zm-66.14,16.05-1.58-2.66-6.95-3.95Zm4.71-22.59-2.06-8.11-20.01-20.15Zm-42.23-21.75,6.81,2.2-13.5-13.19-5.24-1.51Zm-95.13-152.2-21.22-17.05,25.86,27.66Zm8.74,71.86,21.83,11.37-12.36-15.53-31.29-31.84Zm60.25,180.72-23.5-36.59-6.57-13,62.49,55.93-91.62-94.47-50.07-23.24ZM191.8237,0-.0863,39.84V0Z" transform="translate(2.5263)"/><polygon class="cls-9" points="442.36 200 446.847 225.84 444.604 240.747 459.166 327.447 486.45 400 402.072 400 408.64 315.021 412.177 303.905 420.53 220.79 442.36 200"/><path class="cls-9" d="M191.8237,0l-6.49,12.76-1.94,3.83-2.05,4.03-3.73,7.35-.01.01-6.03,11.86-16.07,31.64-51.3,36.14-28.54,26.32,79.39-56.07-.02.23-.75,10.82,95.44,100.9,68.73,72.65-7.94-5.05-.01-.01-130.07-82.82-2.42,8.18,7.88,18.22,1.98,4.58,2,4.61,4.03,9.32,5.8,13.41,72.26,167.09H-.0863V339.14l196.12-104.73-196.12,69.9V0ZM55.9637,128.14l20.53-8.66,13.57-11.86Zm36.13-48.18,3.77-5.67-17.16,8.31Z" transform="translate(2.5263)"/><polygon class="cls-9" points="101.68 124.54 102.44 124.05 102.44 123.96 101.68 124.54"/><polygon class="cls-9" points="544.99 277.52 520.682 318.179 489.229 325.703 500.5 315.41 537.24 277.52 544.99 277.52"/><polygon class="cls-9" points="365.58 164.71 381.08 173.04 375.89 190.07 367.208 206.895 357.36 176.45 365.58 164.71"/><polygon class="cls-9" points="412.177 303.905 385.777 279.14 353.934 251.405 408.64 315.021 412.177 303.905"/><polygon class="cls-9" points="268.177 149.295 209.634 74.289 247.714 107.62 268.177 149.295"/><polygon class="cls-9" points="261.78 261.46 316.429 283.213 402.072 377.674 402.072 400 261.78 261.46"/><polygon class="cls-9" points="187.86 12.76 139.59 27.53 185.92 16.59 187.86 12.76"/><polygon class="cls-9" points="182.96 174.592 180.541 182.772 196.429 219.504 2.44 304.315 2.44 339.142 202.23 232.91 234.919 308.5 130.235 400 237.739 315.021 148.393 400 2.44 400 2.44 272.224 182.96 174.592"/><polygon class="cls-9" points="459.166 327.447 405.48 355.93 467.13 348.63 459.166 327.447"/><polygon class="cls-9" points="472.84 362.31 486.45 400 402.072 400 404.47 369.03 472.84 362.31"/><polygon class="cls-9" points="444.6 249.78 414.95 276.36 415.96 266.29 444.26 245.23 444.6 249.78"/><polygon class="cls-9" points="520.055 323.863 489.229 328.71 477.103 355.93 520.055 323.863"/><polygon class="cls-9" points="182.96 174.592 2.44 272.224 2.222 283.21 180.541 182.772 182.96 174.592"/><path class="cls-12" d="M1005.53173,211.622s-396.13911,27.09-518.425,34.0083c-111.87061,6.3292-248.44871,14.9244-248.44871,14.9244s363.5541-17.6413,463.07939-15.6627,27.9407,22.0266-42.07068,14.8532c-86.29751-8.8421-205.341-4.8032-205.341-4.8032s206.48408,8.4336,313.91338,7.25,238.1663-10.165,238.1663-10.165Z" transform="translate(2.5263)"/><path class="cls-13" d="M205.92069,310.7241s123.794-3.6718,228.5018-1.5797,137.5986,4.5962,137.5986,4.5962-86.0732,4.1737-189.4877,5.8022-174.4073-1.6285-174.4073-1.6285Z" transform="translate(2.5263)"/><path class="cls-14" d="M349.94689,237.5166s114.3229-4.2233,185.7799-4.2548,180.91509-4.7554,180.91509-4.7554-70.7924.6388-111.343.7597S490.55959,213.0092,450.373,213.8359,349.94689,237.5166,349.94689,237.5166Z" transform="translate(2.5263)"/><polygon class="cls-15" points="223.469 344.546 289.018 301.571 304.678 288.647 316.848 287.126 435.017 334.373 436.717 333.248 628.97 379.111 222.81 356.247 223.469 344.546"/><path class="cls-16" d="M626.44088,379.1108l-192.246-45.8674,81.6514,24.8684h0l-60.8222-15.9136,1.9496,18.9296-6.3595-6.9485-78.1616-24.4115,75.765,21.7927-15.7287-17.1912L314.31749,287.123l48.3557,23.1443-20.0798-7.3301-28.2759-15.8142-12.1651,1.5287-15.6609,12.9203-6.5107,7.8364-43.7245,32.8345,2.7702,9.681,51.6549-39.3791,8.4324-5.8554-33.5224,28.9918-26.3303,17.0571,1.3307,4.6522,27.3666,1.5405,18.9475-12.9455-3.6916,13.8043ZM419.63319,352.4354l10.3239,3.2453-15.62809-2.963-2.29871-2.2227ZM300.93849,328.186l-4.9306,8.947-6.2594,5.5069Z" transform="translate(2.5263)"/><polygon class="cls-17" points="316.844 287.123 319.573 295.99 375.489 320.702 326.352 303.674 350.542 319.288 345.518 326.821 373.012 364.702 463.08 369.773 459.5 361.128 435.015 334.369 316.844 287.123"/><polygon class="cls-9" points="457.55 342.198 459.5 361.128 473.658 370.368 628.967 379.111 436.721 333.243 435.017 334.373 459.5 361.128 457.55 342.198"/><polygon class="cls-9" points="345.518 326.821 455.712 356.988 459.5 361.128 432.483 355.681 349.787 332.702 354.244 338.586 426.293 360.522 448.119 368.931 373.012 364.702 345.518 326.821"/><polygon class="cls-9" points="457.55 342.198 518.373 358.112 591.398 376.996 562.313 375.359 458.877 355.078 457.55 342.198"/><polygon class="cls-9" points="436.721 333.243 509.739 355.853 628.967 379.111 436.721 333.243"/><polygon class="cls-18" points="223.918 354.25 763.063 391.268 902.526 400 182.01 400 223.918 354.25"/><polygon class="cls-19" points="223.918 354.25 428.919 365.79 510.327 365.79 539.609 372.021 810.205 387.783 817.807 395.979 223.918 354.25"/><polygon class="cls-20" points="476.686 371.605 651.032 386.263 375.04 371.484 339.399 381.862 447.676 384.417 470.389 378.245 425.674 377.321 462.432 377.125 564.905 382.505 505.274 382.137 633.445 395.167 620.326 397.884 508.347 400 828.176 400 817.807 395.979 476.686 371.605"/><polygon class="cls-21" points="513.644 385.046 552.116 389.042 525.14 389.042 513.644 385.046"/><polygon class="cls-22" points="412.566 384.287 505.274 390.353 465.716 389.042 412.566 384.287"/><polygon class="cls-21" points="200.2 373.855 404.32 389.042 385.186 390.353 249.456 381.155 355.397 390.353 315.653 398.031 190.601 391.514 200.2 373.855"/><polygon class="cls-23" points="510.327 365.79 502.526 367.45 527.863 372.78 542.846 373.855 539.609 372.021 510.327 365.79"/><polygon class="cls-23" points="480.305 369.823 491.2 369.526 517.537 373.126 480.305 369.823"/><polygon class="cls-23" points="500.558 369.823 518.516 372.7 509.729 370.104 500.558 369.823"/><polygon class="cls-23" points="537.147 375.115 547.568 375.97 542.846 374.784 537.147 375.115"/><polygon class="cls-23" points="579.076 374.32 601.134 377.265 680.214 380.211 579.076 374.32"/></g></g></g></svg>