<svg xmlns="http://www.w3.org/2000/svg" xmlns:xlink="http://www.w3.org/1999/xlink" viewBox="0 0 1005.3807 330.4799"><defs><style>.cls-1{fill:none;}.cls-2{isolation:isolate;}.cls-3{clip-path:url(#clip-path);}.cls-4{fill:#d1ecff;}.cls-10,.cls-11,.cls-12,.cls-13,.cls-15,.cls-16,.cls-17,.cls-18,.cls-19,.cls-20,.cls-21,.cls-22,.cls-23,.cls-24,.cls-25,.cls-26,.cls-27,.cls-28,.cls-29,.cls-30,.cls-31,.cls-32,.cls-33,.cls-34,.cls-35,.cls-36,.cls-37,.cls-38,.cls-39,.cls-4,.cls-40,.cls-41,.cls-42,.cls-43,.cls-44,.cls-45,.cls-46,.cls-47,.cls-48,.cls-49,.cls-5,.cls-50,.cls-51,.cls-52,.cls-53,.cls-54,.cls-6,.cls-60,.cls-61,.cls-62,.cls-63,.cls-7,.cls-8,.cls-9{fill-rule:evenodd;}.cls-5{fill:url(#Áåçûìÿííûé_ãðàäèåíò_249);}.cls-6{fill:#b0abd4;}.cls-14,.cls-17,.cls-6,.cls-7{mix-blend-mode:soft-light;}.cls-7{fill:#b8b4de;}.cls-8{fill:url(#Áåçûìÿííûé_ãðàäèåíò_249-2);}.cls-9{fill:url(#Áåçûìÿííûé_ãðàäèåíò_249-3);}.cls-10{fill:url(#Áåçûìÿííûé_ãðàäèåíò_249-4);}.cls-11{fill:#ae9aff;mix-blend-mode:multiply;}.cls-11,.cls-14{opacity:0.5;}.cls-12{fill:url(#linear-gradient);}.cls-13{fill:#655cc4;}.cls-15{fill:#d0c0cc;}.cls-16{fill:#2f4496;}.cls-17{fill:#a5a1c7;}.cls-18{fill:url(#linear-gradient-2);}.cls-19{fill:url(#linear-gradient-3);}.cls-20{fill:url(#linear-gradient-4);}.cls-21{fill:url(#linear-gradient-5);}.cls-22{fill:url(#linear-gradient-6);}.cls-23{fill:url(#linear-gradient-7);}.cls-24{fill:url(#linear-gradient-8);}.cls-25{fill:url(#linear-gradient-9);}.cls-26{fill:url(#linear-gradient-10);}.cls-27{fill:url(#linear-gradient-11);}.cls-28{fill:url(#linear-gradient-12);}.cls-29{fill:#1a205c;}.cls-30{fill:url(#Áåçûìÿííûé_ãðàäèåíò_249-5);}.cls-31{fill:url(#Áåçûìÿííûé_ãðàäèåíò_249-6);}.cls-32{fill:url(#Áåçûìÿííûé_ãðàäèåíò_249-7);}.cls-33{fill:url(#linear-gradient-13);}.cls-34{fill:url(#linear-gradient-14);}.cls-35{fill:url(#linear-gradient-15);}.cls-36{fill:url(#linear-gradient-16);}.cls-37{fill:url(#linear-gradient-17);}.cls-38{fill:url(#linear-gradient-18);}.cls-39{fill:url(#linear-gradient-19);}.cls-40{fill:url(#linear-gradient-20);}.cls-41{fill:url(#linear-gradient-21);}.cls-42{fill:url(#linear-gradient-22);}.cls-43{fill:url(#linear-gradient-23);}.cls-44{fill:url(#linear-gradient-24);}.cls-45{fill:url(#linear-gradient-25);}.cls-46{fill:url(#linear-gradient-26);}.cls-47{fill:url(#linear-gradient-27);}.cls-48{fill:url(#linear-gradient-28);}.cls-49{fill:url(#linear-gradient-29);}.cls-50{fill:url(#linear-gradient-30);}.cls-51{fill:url(#linear-gradient-31);}.cls-52{fill:url(#linear-gradient-32);}.cls-53{fill:url(#linear-gradient-33);}.cls-54{fill:url(#linear-gradient-34);}.cls-55{fill:url(#linear-gradient-35);}.cls-56{fill:#150c29;}.cls-57{fill:#4638a6;}.cls-58{fill:url(#linear-gradient-36);}.cls-59{fill:url(#linear-gradient-37);}.cls-60{fill:#16638a;}.cls-61{fill:url(#linear-gradient-38);}.cls-62{fill:url(#linear-gradient-39);}.cls-63{fill:#171536;}.cls-64{fill:url(#linear-gradient-40);}.cls-65{fill:url(#linear-gradient-41);}</style><clipPath id="clip-path" transform="translate(3.8807 -80.9274)"><rect class="cls-1" width="1000" height="400"/></clipPath><linearGradient id="Áåçûìÿííûé_ãðàäèåíò_249" x1="3.8807" y1="187.78315" x2="383.74839" y2="187.78315" gradientUnits="userSpaceOnUse"><stop offset="0" stop-color="#110b42"/><stop offset="1" stop-color="#181136"/></linearGradient><linearGradient id="Áåçûìÿííûé_ãðàäèåíò_249-2" x1="3.8807" y1="65.52585" x2="206.03459" y2="65.52585" xlink:href="#Áåçûìÿííûé_ãðàäèåíò_249"/><linearGradient id="Áåçûìÿííûé_ãðàäèåíò_249-3" x1="241.47019" y1="58.4241" x2="278.82939" y2="58.4241" xlink:href="#Áåçûìÿííûé_ãðàäèåíò_249"/><linearGradient id="Áåçûìÿííûé_ãðàäèåíò_249-4" x1="278.35599" y1="59.1888" x2="289.19989" y2="59.1888" xlink:href="#Áåçûìÿííûé_ãðàäèåíò_249"/><linearGradient id="linear-gradient" x1="130.75655" y1="319.0726" x2="130.75655" y2="104.0698" gradientUnits="userSpaceOnUse"><stop offset="0" stop-color="#110b42"/><stop offset="1" stop-color="#100b24"/></linearGradient><linearGradient id="linear-gradient-2" x1="184.0012" y1="277.1788" x2="184.0012" y2="271.3568" gradientUnits="userSpaceOnUse"><stop offset="0" stop-color="#0b0b21"/><stop offset="1" stop-color="#050721"/></linearGradient><linearGradient id="linear-gradient-3" x1="170.91095" y1="274.1076" x2="170.91095" y2="272.4589" xlink:href="#linear-gradient-2"/><linearGradient id="linear-gradient-4" x1="97.31885" y1="300.0853" x2="97.31885" y2="288.1648" xlink:href="#linear-gradient-2"/><linearGradient id="linear-gradient-5" x1="75.9672" y1="314.2398" x2="75.9672" y2="303.1449" xlink:href="#linear-gradient-2"/><linearGradient id="linear-gradient-6" x1="57.9189" y1="306.4936" x2="57.9189" y2="304.4745" xlink:href="#linear-gradient-2"/><linearGradient id="linear-gradient-7" x1="105.0793" y1="283.2244" x2="105.0793" y2="274.7512" xlink:href="#linear-gradient-2"/><linearGradient id="linear-gradient-8" x1="182.745" y1="319.0726" x2="182.745" y2="286.2397" xlink:href="#linear-gradient-2"/><linearGradient id="linear-gradient-9" x1="149.4058" y1="288.905" x2="149.4058" y2="280.8894" xlink:href="#linear-gradient-2"/><linearGradient id="linear-gradient-10" x1="145.57395" y1="170.9901" x2="145.57395" y2="148.4125" xlink:href="#linear-gradient-2"/><linearGradient id="linear-gradient-11" x1="111.11055" y1="156.9485" x2="111.11055" y2="151.3788" xlink:href="#linear-gradient-2"/><linearGradient id="linear-gradient-12" x1="720.34093" y1="319.0726" x2="720.34093" y2="155.7826" gradientUnits="userSpaceOnUse"><stop offset="0" stop-color="#170d36"/><stop offset="1" stop-color="#13062e"/></linearGradient><linearGradient id="Áåçûìÿííûé_ãðàäèåíò_249-5" x1="596.92279" y1="185.5076" x2="1003.8807" y2="185.5076" xlink:href="#Áåçûìÿííûé_ãðàäèåíò_249"/><linearGradient id="Áåçûìÿííûé_ãðàäèåíò_249-6" x1="863.1657" y1="47.6852" x2="925.45808" y2="47.6852" xlink:href="#Áåçûìÿííûé_ãðàäèåíò_249"/><linearGradient id="Áåçûìÿííûé_ãðàäèåíò_249-7" x1="803.63228" y1="55.26155" x2="822.4507" y2="55.26155" xlink:href="#Áåçûìÿííûé_ãðàäèåíò_249"/><linearGradient id="linear-gradient-13" x1="867.46099" y1="319.0726" x2="867.46099" y2="162.4072" xlink:href="#linear-gradient"/><linearGradient id="linear-gradient-14" x1="788.33273" y1="283.5787" x2="788.33273" y2="266.3444" xlink:href="#linear-gradient-2"/><linearGradient id="linear-gradient-15" x1="934.34468" y1="299.4534" x2="934.34468" y2="281.9467" xlink:href="#linear-gradient-2"/><linearGradient id="linear-gradient-16" x1="836.17739" y1="236.9357" x2="836.17739" y2="233.7414" xlink:href="#linear-gradient-2"/><linearGradient id="linear-gradient-17" x1="848.07223" y1="236.4937" x2="848.07223" y2="234.0626" xlink:href="#linear-gradient-2"/><linearGradient id="linear-gradient-18" x1="786.24078" y1="290.2179" x2="786.24078" y2="278.1926" xlink:href="#linear-gradient-2"/><linearGradient id="linear-gradient-19" x1="965.35913" y1="226.508" x2="965.35913" y2="222.7287" xlink:href="#linear-gradient-2"/><linearGradient id="linear-gradient-20" x1="951.46314" y1="229.783" x2="951.46314" y2="224.9536" xlink:href="#linear-gradient-2"/><linearGradient id="linear-gradient-21" x1="952.44183" y1="228.2879" x2="952.44183" y2="223.4989" xlink:href="#linear-gradient-2"/><linearGradient id="linear-gradient-22" x1="950.61353" y1="210.4684" x2="950.61353" y2="201.1252" xlink:href="#linear-gradient-2"/><linearGradient id="linear-gradient-23" x1="989.42599" y1="193.9494" x2="989.42599" y2="189.6248" xlink:href="#linear-gradient-2"/><linearGradient id="linear-gradient-24" x1="629.77803" y1="138.7226" x2="629.77803" y2="70.7455" xlink:href="#linear-gradient-12"/><linearGradient id="linear-gradient-25" x1="633.76678" y1="81.1252" x2="633.76678" y2="70.0843" xlink:href="#linear-gradient-12"/><linearGradient id="linear-gradient-26" x1="343.99109" y1="117.7372" x2="343.99109" y2="86.62" xlink:href="#linear-gradient-12"/><linearGradient id="linear-gradient-27" x1="365.2952" y1="72.1713" x2="365.2952" y2="66.0895" xlink:href="#linear-gradient-12"/><linearGradient id="linear-gradient-28" x1="728.07544" y1="158.1211" x2="728.07544" y2="127.7451" xlink:href="#linear-gradient-12"/><linearGradient id="linear-gradient-29" x1="739.59218" y1="148.4836" x2="739.59218" y2="142.9331" xlink:href="#linear-gradient-12"/><linearGradient id="linear-gradient-30" x1="281.69314" y1="157.2937" x2="281.69314" y2="134.5568" xlink:href="#linear-gradient-12"/><linearGradient id="linear-gradient-31" x1="289.26584" y1="134.3278" x2="289.26584" y2="131.5893" xlink:href="#linear-gradient-12"/><linearGradient id="linear-gradient-32" x1="334.48069" y1="319.0726" x2="334.48069" y2="249.1026" xlink:href="#linear-gradient"/><linearGradient id="linear-gradient-33" x1="376.23335" y1="55.4217" x2="376.23335" y2="12.1408" xlink:href="#linear-gradient-12"/><linearGradient id="linear-gradient-34" x1="601.93464" y1="48.8995" x2="601.93464" y2="2" xlink:href="#linear-gradient-12"/><linearGradient id="linear-gradient-35" x1="484.98924" y1="174.9214" x2="484.98924" y2="129.2847" xlink:href="#linear-gradient-12"/><linearGradient id="linear-gradient-36" x1="371.98879" y1="113.4951" x2="600.001" y2="113.4951" xlink:href="#linear-gradient-12"/><linearGradient id="linear-gradient-37" x1="370.37009" y1="116.81175" x2="599.98828" y2="116.81175" xlink:href="#linear-gradient-12"/><linearGradient id="linear-gradient-38" x1="431.51249" y1="153.022" x2="431.51249" y2="117.8784" xlink:href="#linear-gradient-12"/><linearGradient id="linear-gradient-39" x1="535.27124" y1="138.4317" x2="535.27124" y2="115.7932" xlink:href="#linear-gradient-12"/><linearGradient id="linear-gradient-40" x1="314.55709" y1="121.67895" x2="370.88919" y2="121.67895" gradientTransform="translate(115.23274 -162.06924) rotate(31.73301)" xlink:href="#linear-gradient-12"/><linearGradient id="linear-gradient-41" x1="600.79688" y1="114.71775" x2="649.19728" y2="114.71775" gradientTransform="matrix(0.60947, 0.79281, -0.79281, 0.60947, 335.02825, -450.70209)" xlink:href="#linear-gradient-12"/></defs><title>montanha</title><g class="cls-2"><g id="layer1"><g class="cls-3"><path class="cls-4" d="M1001.5,247.2909l-.5.435V136.9037l-78.42272-1.1627h.0001l-21.0008-18.2568-39.9501,17.3531-44.4933-.6597-2.3923-1.2197-8.58,1.0571-155.946-2.3122.98512-4.1689h-1.16l-.63692,2.8619-47.3015-36.3631-.1531.1992.5564-1.9161H601.092l1.41288-11.3884-3.4914,2.0177-.712,9.3707h-.912v2.6847a213.28051,213.28051,0,0,1-30.75569,16.0381c-19.5742,8.3559-50.5733,18.376-87.0982,18.6587-7.2155.06-14.0885-.2469-20.6077-.8252-8.7236-1.4209-32.964-5.6192-50.2472-11.0066-2.7298-.9927-5.2672-1.987-7.5899-2.9558-16.4883-6.8784-26.0835-13.8895-27.58-15.0199l-.1582-2.2687-.4051.0947-.5896-6.6476h-2.6526l1.0451,7.1612-1.0451.2443.7451,4.368-54.1942,33.5448-.1356-1.7058-1.1898,1.0709.687,2.9953L284.423,140.337l1.89619-4.9159-4.5297-.0011-6.0573,5.173-.00019-.0002-9.92151-8.574-.5267.0842-.1037-.0842-20.6538,3.4023-5.712,6.988-20.7579,1.0212-.0161.2903-14.8944.7593L1,132.8811V277.6216l-3.6055-1.8782-.2752,2.8768L1,280.6127V398H119.5961l25.3471,11.4073L125.0788,398h89.34849l10.8733,3.3333-3.0625-8.805-1.8276-5.3932h0l-4.5579-13.1043,24.9371-77.8265h2.8524l4.0421-4.0515,7.0675-4.4781-21.1473-13.4341-3.934-2.2569,2.9635-19.7337h0l.4443-2.9586,3.51481-5.1177,28.84349-19.1234-.0002.0001,45.4524-30.1353,5.5579-7.0369,6.4421-2.8787,20.0842-17.5924L364.194,145.0169h7.70479l7.8295-8.3768,1.0512.2289,1.38551,26.329.005-24.3418,1.04-.8193-1.04,47.1882,1.04-16.8052,1.36449-2.5184.8239-27.0453L401.505,149.689l1.08229-2.1986c.3902.2143.7885.4303,1.18771.6464l-.49911,1.5673,7.7588,5.9407,7.7588,2.9454.7638-2.7069c.095.042.192.084.2875.126l2.1553,1.5972-.2574,1.0228,3.289,2.6539,11.8577,5.2244,2.9915-.0006.24611-2.3219.765.3529-.21771,1.1585,3.4682,2.0702,12.273,3.3766.8153-2.6862q.8115.18495,1.6309.363l1.193,1.3482.1318-1.0635h0l-.2119,1.7101,5.5412,2.569,10.1673,1.1652.2324-1.2301,3.7116-1.0362-.0895,1.5551,3.4098.7901,12.1507.6872v-.6878l-.0068-1.71c1.3298-.0038,2.6458-.0337,3.953-.0796l.20771,1.7113v.7661l12.57549-.7661,2.9723-1.5326v10.1461h.4776l.7647,20.4282.379-30.2069.7578-.3674.3963,9.1622.8984-8.3408,14.3685-3.9316,1.36791-1.6184v3.0612l1.03209-4.4467.2211.4526,1.2517-.4526.00011-.0002.27009,2.2331,15.1833-7.244.87161-1.3583,1.08429-.4785.5444,1.2251,14.7418-9.4559,1.6159-1.9279-.6201-1.4849h0l.3031.7258.6929-.3205.203.8188,3.2049-.9695,12.3477-10.8345.7288-1.3993-.7505-1.3766v-.0001l.7505,1.3767,2.4585-2.0064h0v-.0001l4.01169-3.274,24.115,21.5423,26.1473-7.3568,46.0997,32.9033-.0001-.0001,5.4373,3.8808,4.9263,1.5993,23.6499,31.0931,3.5368,3.4119,12.6028,7.3968,8.0248,19.8656-39.7448,18.0179-7.1062,3.2052-93.7754,123.6158V398h378.5504l.0635.2415L1001,398l.1566-27.8211L1001.5,309.15l-.5.2234V297.25ZM597.38948,96.0248c-2.8053,1.6424-7.30548,4.1812-13.19148,7.1994,5.87239-3.1073,10.34258-5.8134,13.19148-7.6301ZM477.84909,130.2036c.5596,0,1.1265-.0019,1.6905-.0063,36.35241-.2817,67.2363-10.1846,86.8766-18.5243-5.1908,2.2806-10.8497,4.6057-16.8915,6.865a374.29423,374.29423,0,0,1-39.1645,11.4168c.3489-.0133.7022-.034,1.0564-.0561-22.3645,4.8871-48.77859,7.363-75.2952,2.3572v-5.1717l1.2951-.3789.7519,1.7052.379-.8766a46.59685,46.59685,0,0,0,14.1473,2.42c4.23231-.0955,6.5849-.3089,7.7629-.4574q.5265.0429,1.0558.0835l.7182,3.2818v-3.225C467.23939,130.0018,472.44769,130.2036,477.84909,130.2036Zm-76.9702-14.8408c1.1588.4836,2.3748.9736,3.6355,1.4663,3.8279,2.0078,13.9435,6.7571,29.18561,9.8762l.979-.9381c.06909.0145.13679.0297.20609.0443l.3071,6.2636a133.21313,133.21313,0,0,1-61.4805-29.3038l-.1551-2.2241C375.87869,102.2579,385.32539,108.872,400.87889,115.3628Zm-84.4383,23.3422-.1399-1.7586,54.2404-33.5734.1905,1.1165.9193-.09,3.2657,22.3777-1.564.4017,1.0263,5.934-1.0263-3.159-9.15859,1.404-.94661,4.0632-.1895-3.1737-.6434.1894.6434,3.8351,12.2595-.5921.0899.0196Zm79.6799,2.8315c-1.5997-.8393-3.0751-1.5918-4.42649-2.2911l.35459.0772Zm-20.9603-9.7634.4807-.0329h0Zm28.6752,15.7668.5909-1.4483,14.3672,7.1143c-4.8511-2.187-9.6851-4.5809-14.3672-7.1143l-.48029,1.5083Zm37.5528,14.3569,13.2713,3.7291C450.24239,164.548,445.78809,163.3034,441.38819,161.8968Zm-18.71-6.9845,14.7383,5.671C432.50339,158.9018,427.54439,156.9942,422.67819,154.9123Zm34.3817,12.9866-.6444-1.8433c-.5316-.1243-1.0662-.2617-1.5991-.3913l-.6991-.2386,2.2982.6299,1.8828,2.1278C457.88339,168.0908,457.47259,167.9939,457.05989,167.8989Zm3.1884.7067.2048-1.6529,11.3484,2.0167c-3.77149-.5467-7.5739-1.2215-11.3484-2.0167l-.2048,1.6529Zm34.841,3.8094-.0068-1.6994-.2754.0006-.04509-.0006h.32049l-6.2919-1.5803-13.1075.3533q-1.92555-.2349-3.86709-.517l-17.01771-4.3859-.6818.8397-17.9951-6.1422-30.8109-13.1916L393.491,138.4227l.34059-.8151-5.128-2.2913-4.9457-3.2089-4.5728-2.1526L377,131.6472l3.48949-.2893.0027.0505-3.76419.2574h0l.272-.0186.41049-5.5104-1.21149.3111-1.14191-11.2643-.615-.6177-.918-10.3496.2864-.028-.0523-.7505a134.07586,134.07586,0,0,0,61.4654,29.2783l.8978,18.3059V132.8812c3.2405.6122,6.5247,1.1309,9.861,1.5353a167.221,167.221,0,0,0,20.1323,1.187,214.95786,214.95786,0,0,0,49.3858-6.1219c12.4998-1.7335,26.1363-7.3711,26.1363-7.3711l.1106,3.002,1.1829-3.0809c14.5724.2526,16.1223-6.1532,16.1223-6.1532l2.2737-1.0856-1.2631,21.6389,2.0949-22.3806a313.9411,313.9411,0,0,0,35.23139-17.4468V98h.48l-1.8663,24.5609-2.56.7023-.0116,2.5441-.3935.4628c-.0127.0147-1.2686,1.4835-3.6309,3.8418l4.0244-4.3046-1.6991-.2267-13.6693,13.9387-9.7106,5.003-23.6628,14.2983-20.1214,7.0809-8.7789,3.2338-11.0918-1.4237-1.6661,1.4237H498.595l.38889,3.2045Q497.05234,172.40685,495.08929,172.415Zm78.1226-28.5251,7.3993-5.7955C578.22769,140.0817,575.761,142.0228,573.21189,143.8899Zm-35.7842,19.2433,7.6704-3.0567C542.554,161.1792,539.99149,162.2042,537.42769,163.1332Zm8.1454-3.2691,6.3927-2.9838C549.85859,157.9333,547.722,158.9231,545.57309,159.8641Zm24.6363-11.9245-1.1778-2.8203,1.1779,2.8203ZM586.889,134.6017l-.74061-1.3585c-1.5459,1.4329-3.1593,2.8399-4.8046,4.2303l4.8046-4.2303.6482,1.1888.0925.1697Zm7.80078-3.7221.11022-.0899,28.42218.5129-19.3906-1.8153-.8842-.6347,1.0105-6.3158-1.453,5.2901v-4.5953l-4.7052-1.0683.3612-1.8294-.2842-2.1001L600.38688,98h.4675l1.01962-3.5115,47.40928,36.4459-.1674.7521h.0003Z" transform="translate(3.8807 -80.9274)"/><polygon class="cls-4" points="260.654 292.204 270.904 303.758 275.004 303.758 283.584 317.073 297.735 317.073 303.231 317.073 346.811 317.073 359.544 317.073 365.792 309.58 375.554 309.58 410.307 253.316 410.307 247.103 266.218 288.104 260.654 292.204"/><polygon class="cls-5" points="214.469 319.073 236.485 195.313 232.548 193.074 235.959 170.364 239.474 165.246 313.769 115.988 319.327 108.951 325.769 106.072 345.854 88.48 367.075 66.09 374.779 66.09 383.748 56.494 3.881 75.856 3.881 319.073 214.469 319.073"/><polygon class="cls-6" points="144.839 125.967 229.344 156.589 235.959 170.364 235.515 173.323 178.06 144.734 144.839 125.967"/><polygon class="cls-7" points="150.27 132.878 189.807 152.241 223.533 173.323 164.671 149.645 150.27 132.878"/><polygon class="cls-7" points="103.881 114.094 147.744 141.383 95.996 113.603 103.881 114.094"/><polygon class="cls-6" points="313.769 115.988 164.671 73.597 319.327 108.951 313.769 115.988"/><polygon class="cls-6" points="103.881 70.261 170.386 96.283 240.692 144.913 243.609 155.783 155.575 117.504 114.839 97.658 122.986 104.405 10.944 61.42 103.881 70.261"/><polygon class="cls-6" points="156.684 86.62 217.119 121.52 199.814 104.088 156.684 86.62"/><polygon class="cls-8" points="3.881 53.954 206.035 65.553 3.881 77.098 3.881 53.954"/><polygon class="cls-9" points="241.47 63.757 247.407 56.494 268.061 53.091 278.829 61.842 241.47 63.757"/><polygon class="cls-10" points="278.356 61.885 284.67 56.493 289.2 56.494 287.295 61.432 278.356 61.885"/><polygon class="cls-11" points="164.671 149.645 161.371 185.933 154.28 175.862 150.27 132.878 164.671 149.645"/><polygon class="cls-11" points="161.371 135.306 161.371 138.315 189.807 152.241 190.399 150.874 161.371 135.306"/><polygon class="cls-11" points="144.839 125.967 143.069 138.474 139.807 136.445 142.323 111.048 207.306 139.997 204.874 147.722 197.26 144.409 196.754 139.357 153.049 121.52 149.725 127.738 144.839 125.967"/><polygon class="cls-11" points="122.986 104.405 117.933 122.836 123.844 126.514 126.874 103.521 115.707 98.081 122.986 104.405"/><polygon class="cls-11" points="313.769 115.988 268.317 146.123 305.891 117.378 248.544 111.048 226.804 135.306 213.302 125.967 217.119 121.52 207.306 111.048 217.119 88.509 208.484 86.054 199.814 104.088 196.155 102.606 204.964 85.053 180.612 78.13 173.557 92.835 170.386 92.169 175.885 76.786 313.769 115.988"/><polygon class="cls-11" points="223.533 173.323 201.554 263.808 229.797 170.478 204.964 158.121 203.193 160.608 223.533 173.323"/><polygon class="cls-11" points="367.075 66.09 283.906 63.467 303.744 65.101 289.2 102.064 301.899 104.967 317.575 67.283 321.171 67.283 305.084 105.695 308.481 105.695 324.187 75.856 364.818 68.471 367.075 66.09"/><polygon class="cls-11" points="220.937 64.503 219.733 86.184 235.959 89.893 241.999 63.467 220.937 64.503"/><polygon class="cls-11" points="164.671 67.271 154.28 71.652 126.874 71.652 126.874 70.261 164.671 67.271"/><polygon class="cls-12" points="103.592 119.073 257.632 208.747 250.565 213.225 246.523 217.277 243.67 217.277 218.733 295.103 227.07 319.073 183.365 319.073 3.881 319.073 3.881 159.956 46.98 104.07 103.592 119.073"/><polygon class="cls-7" points="103.592 119.073 46.98 104.07 170.386 211.503 151.028 181.618 187.6 211.503 245.765 212.633 232.375 201.757 250.81 211.503 257.632 208.747 236.485 195.313 103.592 119.073"/><polygon class="cls-7" points="111.617 162.555 166.944 212.633 178.06 238.763 119.196 172.957 111.617 162.555"/><polygon class="cls-7" points="218.733 295.103 161.124 230.223 141.933 216.143 144.839 234.483 182.293 302.553 153.82 260.761 144.839 273.178 156.586 319.073 227.07 319.073 218.733 295.103"/><polygon class="cls-7" points="178.06 240.915 201.554 267.608 193.975 254.261 178.06 240.915"/><polygon class="cls-7" points="139.912 230.223 137.007 216.143 122.986 204.788 139.912 230.223"/><polygon class="cls-7" points="150.27 319.073 103.592 246.52 48.97 181.618 137.007 304.638 103.881 273.178 36.839 286.588 126.931 319.073 150.27 319.073"/><polygon class="cls-7" points="150.27 310.767 147.617 302.809 138.523 292.452 150.27 310.767"/><polygon class="cls-7" points="138.523 290.557 135.996 287.778 135.239 281.923 138.523 282.796 138.523 290.557"/><polygon class="cls-7" points="103.028 165.853 131.449 206.013 71.789 161.057 82.572 154.684 103.028 165.853"/><polygon class="cls-7" points="79.786 214.893 114.46 257.715 103.592 233.322 79.786 214.893"/><polygon class="cls-7" points="114.839 258.615 121.091 267.608 117.775 259.609 114.839 258.615"/><polygon class="cls-11" points="112.877 271.372 109.026 278.265 103.881 273.178 103.881 258.969 112.877 271.372"/><polygon class="cls-11" points="114.46 283.224 117.239 277.385 123.662 286.24 119.662 288.165 114.46 283.224"/><polygon class="cls-11" points="150.27 319.073 156.586 319.073 144.839 273.178 143.831 298.497 147.617 302.809 150.27 310.767 147.683 315.052 150.27 319.073"/><polygon class="cls-11" points="156.781 265.108 159.299 260.763 182.293 302.553 156.781 265.108"/><polygon class="cls-11" points="144.839 234.483 143.831 271.988 139.912 230.223 137.007 216.143 126.931 207.983 126.931 201.728 131.449 206.013 112.877 179.77 114.839 166.975 119.196 172.957 164.067 223.119 161.124 230.223 158.481 228.409 159.617 221.588 157.47 219.482 154.834 225.608 141.933 216.143 144.839 234.483"/><polygon class="cls-11" points="187.6 211.503 176.575 235.274 174.788 231.071 181.912 208.167 180.612 207.599 172.919 226.679 169.017 217.506 170.386 211.503 163.362 200.659 166.808 194.512 187.6 211.503"/><polygon class="cls-11" points="160.865 196.804 163.362 191.696 160.865 189.656 159.38 194.512 160.865 196.804"/><polygon class="cls-11" points="227.07 212.269 214.126 289.914 217.119 292.452 227.07 223.736 236.165 216.143 218.733 295.103 243.67 217.277 245.765 212.633 227.07 212.269"/><polygon class="cls-11" points="242.51 209.989 243.67 207.728 232.375 201.757 242.51 209.989"/><polygon class="cls-11" points="106.975 240.915 103.881 179.868 103.592 233.322 106.975 240.915"/><polygon class="cls-13" points="181.596 206.936 197.701 211.699 187.6 211.503 181.596 206.936"/><polygon class="cls-13" points="138.149 227.573 138.523 223.489 139.912 230.223 138.149 227.573"/><polygon class="cls-13" points="246.677 209.317 254.558 209.989 250.81 211.503 246.677 209.317"/><polygon class="cls-11" points="122.986 204.788 111.617 251.273 122.455 197.483 126.482 201.302 125.822 207.085 122.986 204.788"/><g class="cls-14"><polygon class="cls-7" points="153.302 164.303 182.293 187.896 190.399 183.646 159.38 162.555 153.302 164.303"/><polygon class="cls-7" points="156.684 171.883 164.671 179.863 161.371 179.863 154.043 173.323 156.684 171.883"/><polygon class="cls-7" points="201.554 211.774 170.386 189.656 174.523 186.503 209.801 211.503 192.207 196.804 194.017 196.804 237.431 212.269 201.554 211.774"/><polygon class="cls-7" points="245.765 212.633 233.171 202.177 214.944 200.659 237.431 212.269 245.765 212.633"/><polygon class="cls-7" points="137.007 187.783 134.134 189.656 160.447 219.073 166.817 219.073 137.007 187.783"/><polygon class="cls-7" points="134.134 107.058 139.03 98.081 209.801 123.546 209.801 127.738 168.46 115.988 220.937 146.123 134.134 107.058"/><polygon class="cls-7" points="61.021 291.415 65.918 282.438 136.689 307.903 136.689 312.095 95.347 300.345 147.824 330.48 61.021 291.415"/><polygon class="cls-7" points="305.891 117.378 280.934 114.623 243.67 153.1 248.453 159.293 305.891 117.378"/><polygon class="cls-7" points="260.306 129.385 262.691 122.102 260.306 121.52 256.123 129.385 260.306 129.385"/><polygon class="cls-7" points="31.355 90.907 33.74 83.624 31.355 83.042 27.172 90.907 31.355 90.907"/><polygon class="cls-7" points="210.523 134.553 220.937 138.723 219.241 141.383 209.801 136.958 210.523 134.553"/><polygon class="cls-7" points="152.854 249.049 159.38 248.171 193.136 300.934 180.612 299.266 152.854 249.049"/><polygon class="cls-7" points="159.357 242.753 174.333 266.683 188.9 265.104 163.362 239.071 159.357 242.753"/><polygon class="cls-7" points="16.735 190.57 31.711 214.5 46.279 212.921 20.74 186.888 16.735 190.57"/><polygon class="cls-7" points="174.129 267.608 179.323 267.608 180.612 271.357 174.965 271.357 174.129 267.608"/><polygon class="cls-7" points="156.781 297.03 154.723 294.187 172.995 288.905 178.531 297.03 156.781 297.03"/><polygon class="cls-7" points="162.965 298.497 179.53 298.497 180.612 300.085 162.965 298.497"/></g><g class="cls-14"><polygon class="cls-15" points="133.033 166.085 123.53 161.206 123.805 158.329 134.516 163.908 133.033 166.085"/><polygon class="cls-15" points="14.996 196.324 5.493 191.445 5.768 188.568 16.478 194.148 14.996 196.324"/><polygon class="cls-15" points="9.503 204.572 0 199.693 0.275 196.816 10.985 202.395 9.503 204.572"/><polygon class="cls-15" points="205.78 194.722 192.889 187.78 186.462 176.293 208.941 191.604 205.78 194.722"/><path class="cls-15" d="M123.0304,337.13l6.1093-22.3421s.3741.8193.678.8193-5.5716,22.3794-5.5716,22.3794Z" transform="translate(3.8807 -80.9274)"/><path class="cls-15" d="M209.45879,338.3878l3.56621-13.0416s.21829.4782.39569.4782-3.2523,13.0634-3.2523,13.0634Z" transform="translate(3.8807 -80.9274)"/><polygon class="cls-15" points="272.301 79.238 273.821 75.276 276.556 75.276 274.429 80.094 272.301 79.238"/><polygon class="cls-15" points="30.456 107.248 31.976 103.286 34.711 103.286 32.584 108.104 30.456 107.248"/><polygon class="cls-15" points="128.83 139.444 126.411 135.958 127.951 133.697 130.736 138.168 128.83 139.444"/><polygon class="cls-15" points="251.018 121.42 244.551 136.906 262.131 114.73 251.018 121.42"/><polygon class="cls-15" points="201.525 229.471 202.817 229.471 202.171 242.158 199.736 242.158 201.525 229.471"/><polygon class="cls-15" points="37.239 146.199 38.531 146.199 37.885 158.886 35.449 158.886 37.239 146.199"/><polygon class="cls-15" points="159.063 236.106 164.86 245.46 169.064 243.816 161.365 233.536 159.063 236.106"/><polygon class="cls-15" points="135.77 162.066 135.912 159.956 138.744 161.885 137.522 162.157 135.77 162.066"/><polygon class="cls-15" points="121.231 83.693 122.851 89.547 126.093 89.547 123.662 83.693 121.231 83.693"/><polygon class="cls-15" points="120.304 115.179 121.385 118.32 120.844 118.695 120.304 116.179 120.304 115.179"/><polygon class="cls-15" points="188.919 231.502 190.946 230.538 190.946 232.252 189.286 232.252 188.919 231.502"/><polygon class="cls-15" points="170.888 243.816 172.981 242.959 172.981 244.78 171.934 245.46 170.888 243.816"/><polygon class="cls-15" points="133.089 263.278 135.261 258.245 137.388 258.245 134.451 263.278 133.089 263.278"/><polygon class="cls-15" points="36.529 141.239 38.702 136.206 40.829 136.206 37.891 141.239 36.529 141.239"/><polygon class="cls-15" points="221.157 224.058 222.425 221.12 223.667 221.12 221.952 224.058 221.157 224.058"/><polygon class="cls-15" points="258.592 121.723 265.975 112.209 270.431 114.747 261.435 122.796 258.592 121.723"/><polygon class="cls-15" points="38.751 96.436 46.134 86.922 50.589 89.461 41.594 97.509 38.751 96.436"/><polygon class="cls-15" points="259.018 135.504 259.851 133.301 262.923 132.901 259.682 135.755 259.018 135.504"/><polygon class="cls-15" points="29.555 97.459 30.387 95.255 33.459 94.856 30.218 97.71 29.555 97.459"/><polygon class="cls-15" points="220.905 223.183 222.689 216.871 220.974 216.309 220.087 223.183 220.905 223.183"/><polygon class="cls-15" points="187.349 233.723 187.349 229.471 186.521 229.471 186.935 233.801 187.349 233.723"/><polygon class="cls-15" points="188.354 232 188.886 228.721 189.735 228.721 188.887 232 188.354 232"/><polygon class="cls-15" points="143.692 150.401 145.461 159.253 150.072 161.164 145.583 150.401 143.692 150.401"/><polygon class="cls-15" points="148.824 152.543 150.072 156.826 151.796 156.826 150.072 153.399 148.824 152.543"/></g><polygon class="cls-16" points="182.293 302.553 224.712 312.294 223.291 308.208 182.293 302.553"/><polygon class="cls-16" points="176.811 292.389 182.293 291.852 174.476 288.165 176.811 292.389"/><polygon class="cls-16" points="246.677 209.317 220.937 191.399 238.023 200.659 242.078 201.757 244.899 200.659 257.632 208.747 254.558 209.989 246.677 209.317"/><polygon class="cls-16" points="233.171 202.177 245.765 212.633 198.491 210.965 227.07 206.116 222.689 203.055 232.375 203.428 233.171 202.177"/><polygon class="cls-16" points="114.839 258.615 121.091 267.608 117.775 259.609 114.839 258.615"/><polygon class="cls-16" points="112.877 188.4 122.986 194.022 131.449 206.013 112.877 188.4"/><polygon class="cls-16" points="105.284 181.198 114.46 182.006 114.823 182.519 105.98 181.859 105.284 181.198"/><polygon class="cls-16" points="169.064 166.085 174.129 170.478 181.596 171.883 171.934 166.085 169.064 166.085"/><polygon class="cls-16" points="184.502 110.209 194.586 113.022 186.462 113.022 184.502 110.209"/><polygon class="cls-16" points="193.136 154.322 223.533 173.323 184.937 158.329 193.136 154.322"/><polygon class="cls-16" points="220.087 166.085 235.515 173.323 235.959 170.364 220.087 166.085"/><polygon class="cls-16" points="259.018 101.061 242.078 91.292 224.688 87.317 244.551 96.308 259.018 101.061"/><polygon class="cls-16" points="247.407 56.494 264.512 59.94 260.971 58.217 278.613 61.666 268.691 53.091 247.407 56.494"/><polygon class="cls-16" points="284.67 56.493 287.206 61.243 289.2 56.494 284.67 56.493"/><polygon class="cls-16" points="3.881 53.954 206.035 65.553 3.881 57.631 3.881 53.954"/><polygon class="cls-16" points="219.241 200.659 209.801 194.512 201.554 192.446 219.241 200.659"/><polygon class="cls-16" points="96.361 307.893 86.921 301.747 78.674 299.681 96.361 307.893"/><polygon class="cls-16" points="154.043 211.914 161.371 215.901 162.215 221.12 154.043 211.914"/><polygon class="cls-7" points="3.881 282.057 117.171 319.003 83.575 319.003 3.881 282.057"/><polygon class="cls-7" points="24.712 297.03 53.512 308.208 32.796 305.016 24.712 297.03"/><polygon class="cls-7" points="44.67 310.767 54.523 310.767 57.428 313.673 51.996 313.673 44.67 310.767"/><polygon class="cls-7" points="94.439 255.567 104.544 266.683 97.849 263.278 94.439 255.567"/><polygon class="cls-7" points="68.417 199.483 78.965 213.757 78.649 207.883 68.417 199.483"/><polygon class="cls-7" points="103.028 163.215 88.565 153.1 100.754 155.783 103.028 163.215"/><polygon class="cls-7" points="3.881 164.583 88.565 242.959 94.439 255.567 34.312 221.12 51.049 238.763 3.881 219.073 3.881 164.583"/><polygon class="cls-7" points="52.881 239.652 59.702 239.652 88.565 257.715 59.575 244.199 52.881 239.652"/><polygon class="cls-17" points="144.396 309.943 111.617 298.497 117.965 306.568 147.683 315.052 119.616 308.87 120.976 310.767 149.003 317.104 144.396 309.943"/><polygon class="cls-17" points="119.662 280.725 126.369 281.923 133.143 292.452 127.416 291.415 119.662 280.725"/><polygon class="cls-17" points="116.511 285.173 103.881 285.173 103.881 281.923 116.511 285.173"/><polygon class="cls-17" points="146.141 278.265 167.422 280.725 146.456 279.495 146.141 278.265"/><polygon class="cls-17" points="150.731 296.198 225.481 314.503 227.07 319.073 152.546 303.289 209.801 319.073 174.902 319.073 154.46 310.767 150.731 296.198"/><polygon class="cls-17" points="147.744 240.915 153.302 252.915 147.744 246.915 147.744 240.915"/><polygon class="cls-17" points="202.817 269.209 210.523 279.495 208.249 270.599 202.817 266.683 202.817 269.209"/><polygon class="cls-17" points="135.77 179.905 154.043 186.503 159.063 194.022 141.228 184.887 135.77 179.905"/><polygon class="cls-17" points="150.523 193.371 162.537 199.386 165.807 203.055 150.523 193.371"/><polygon class="cls-17" points="144.839 234.483 175.945 246.915 167.422 237.316 147.744 229.471 163.876 233.322 162.164 231.395 143.692 224.378 144.839 234.483"/><polygon class="cls-17" points="154.043 242.158 170.386 248.171 159.818 246.915 154.043 242.158"/><polygon class="cls-17" points="184.502 302.553 224.712 312.294 223.291 308.208 184.502 302.553"/><polygon class="cls-17" points="5.493 219.746 44.501 202.177 62.756 219.073 34.312 221.12 67.197 223.183 68.488 224.378 37.912 223.183 33.399 231.395 5.493 219.746"/><polygon class="cls-17" points="39.428 197.483 21.049 202.177 41.965 199.83 39.428 197.483"/><polygon class="cls-17" points="88.067 173.323 108.315 173.323 105.754 169.704 82.31 168.984 88.067 173.323"/><polygon class="cls-17" points="59.489 282.057 82.31 288.634 103.028 280.593 68.189 280.317 106.542 279.229 108.379 278.516 73.593 279.236 59.489 282.057"/><polygon class="cls-17" points="94.439 245.154 101.253 243.741 91.506 232.159 85.139 232.159 94.439 245.154"/><polygon class="cls-17" points="83.131 229.353 89.876 230.223 87.043 226.856 80.677 225.923 83.131 229.353"/><polygon class="cls-16" points="59.575 244.199 68.488 245.46 87.517 257.059 59.575 244.199"/><polygon class="cls-16" points="64.755 283.575 57.428 285.173 86.733 293.845 64.755 283.575"/><polygon class="cls-16" points="32.584 300.085 40.611 306.22 53.512 308.208 32.584 300.085"/><polygon class="cls-11" points="3.881 219.073 3.881 282.057 24.046 288.634 19.912 228.073 41.965 240.915 46.98 284.56 49.16 284.124 44.67 240.915 46.98 240.915 51.904 283.575 53.512 282.057 57.428 244.199 68.488 250.345 73.593 279.236 88.565 276.241 88.186 257.715 52.881 239.652 51.049 238.763 3.881 219.073"/><polygon class="cls-11" points="24.712 297.03 24.712 319.003 23.765 319.003 22.881 291.946 20.733 290.494 22.723 319.073 14.923 319.003 10.818 286.452 13.786 319.003 13.091 319.003 8.964 284.414 38.679 298.19 37.533 302.006 24.712 297.03"/><polygon class="cls-11" points="89.876 310.102 89.876 307.635 56.964 293.845 126.931 319.073 117.171 319.003 117.171 316.452 114.46 315.441 114.46 318.118 89.876 310.102"/><polygon class="cls-11" points="48.97 181.618 95.699 246.915 69.175 213.757 62.756 219.073 52.014 209.13 56.86 197.483 56.007 195.946 50.394 207.632 46.98 204.472 51.365 186.963 48.97 181.618"/><polygon class="cls-11" points="71.789 161.057 71.34 201.882 68.417 199.483 71.789 204.046 71.34 208.197 65.007 199.83 60.526 125.967 51.049 108.601 97.916 148.413 94.439 154.322 88.565 153.1 93.892 156.826 92.229 159.956 82.572 154.684 71.789 161.057"/><polygon class="cls-16" points="57.915 231.583 63.398 231.047 55.58 227.359 57.915 231.583"/><polygon class="cls-16" points="198.491 192.446 205.78 194.722 204.649 194.722 198.491 193.584 198.491 192.446"/><polygon class="cls-16" points="202.991 184.72 203.908 185.052 203.908 184.436 202.47 184.436 202.991 184.72"/><polygon class="cls-16" points="16.999 194.432 17.916 194.763 17.916 194.148 16.478 194.148 16.999 194.432"/><polygon class="cls-16" points="181.958 273.776 182.876 274.108 182.876 273.492 181.437 273.492 181.958 273.776"/><polygon class="cls-16" points="164.067 164.588 165.049 164.162 162.87 163.215 161.875 163.822 164.067 164.588"/><polygon class="cls-16" points="71.327 304.833 72.31 304.407 70.131 303.46 69.136 304.067 71.327 304.833"/><polygon class="cls-16" points="120.207 146.123 118.06 145.167 117.171 146.123 119.05 147.722 120.207 146.123"/><polygon class="cls-16" points="7.011 207.083 4.864 206.128 3.975 207.083 5.854 208.682 7.011 207.083"/><polygon class="cls-16" points="109.026 176.293 111.617 181.198 112.877 179.77 109.026 176.293"/><polygon class="cls-16" points="110.952 260.763 111.617 263.111 114.839 263.278 110.952 260.763"/><polygon class="cls-16" points="199.736 303.946 203.503 303.627 208.67 303.946 199.736 303.946"/><polygon class="cls-16" points="206.731 299.291 206.731 298.251 208.67 295.103 208.67 300.085 206.731 299.291"/><polygon class="cls-16" points="133.71 303.946 138.149 305.016 137.388 306.22 133.71 306.211 133.71 303.946"/><polygon class="cls-16" points="151.549 295.183 151.549 295.846 159.487 298.342 151.549 295.183"/><polygon class="cls-16" points="156.586 295.562 160.691 296.198 159.175 296.762 156.333 296.125 156.586 295.562"/><polygon class="cls-18" points="165.185 271.357 201.277 275.443 202.817 277.179 184.001 273.8 165.185 271.357"/><polygon class="cls-19" points="166.411 273.938 174.919 272.459 175.411 272.685 166.642 274.108 166.411 273.938"/><polygon class="cls-20" points="73.546 300.085 119.662 288.165 121.091 289.522 97.739 294.125 87.517 296.841 74.271 300.085 73.546 300.085"/><polygon class="cls-21" points="49.369 303.145 72.081 305.904 75.681 308.683 101.197 313.673 102.566 314.24 75.349 308.692 72.73 306.537 70.798 305.829 49.988 303.432 49.79 304.681 49.369 303.145"/><polygon class="cls-22" points="56.517 306.459 59.038 304.475 59.321 304.507 56.592 306.494 56.517 306.459"/><polygon class="cls-23" points="95.699 274.814 114.46 283.224 113.986 282.775 96.014 274.751 95.699 274.814"/><polygon class="cls-24" points="148.271 286.588 165.807 298.184 191.956 306.22 213.064 319.073 217.308 319.073 191.956 305.462 177.483 301.554 160.691 294.638 148.182 286.24 148.271 286.588"/><polygon class="cls-25" points="146.812 280.889 151.999 288.905 151.447 288.432 150.909 287.337 146.864 281.089 146.812 280.889"/><polygon class="cls-26" points="97.916 148.413 141.933 155.783 150.072 153.399 189.544 168.383 194.088 170.99 169.975 161.249 145.036 155.233 141.696 155.991 98.427 148.858 97.06 149.652 97.916 148.413"/><polygon class="cls-27" points="107.58 156.826 113.719 151.379 114.641 151.531 109.647 155.127 107.721 156.948 107.58 156.826"/><polygon class="cls-28" points="611.151 319.073 611.151 311.399 704.926 187.783 712.033 184.578 775.551 155.783 829.531 319.073 611.151 319.073"/><polygon class="cls-29" points="704.926 187.783 711.78 188.819 653.927 276.593 711.78 196.593 726.807 216.148 685.488 304.638 611.151 311.399 704.926 187.783"/><polygon class="cls-29" points="704.926 270.204 731.041 219.073 740.327 223.373 704.926 270.204"/><polygon class="cls-29" points="691.127 296.703 704.926 270.204 700.033 286.523 691.127 296.703"/><polygon class="cls-29" points="676.154 319.073 707.278 294.638 683.359 319.073 676.154 319.073"/><polygon class="cls-29" points="687.112 319.073 704.926 300.228 733.849 291.852 710.481 319.073 687.112 319.073"/><polygon class="cls-29" points="723.766 247.783 749.512 212.623 743.753 230.223 723.766 247.783"/><polygon class="cls-11" points="685.488 304.638 685.344 311.399 692.394 306.323 691.127 296.703 703.934 272.109 702.991 267.153 685.488 304.638"/><polygon class="cls-11" points="706.03 268.744 708.186 299.284 712.076 298.157 712.076 263.399 715.028 260.761 715.028 296.338 733.849 291.852 722.721 304.815 722.627 319.073 759.87 319.073 754.358 234.483 756.244 216.148 768.581 319.073 829.531 317.453 788.161 188.819 749.512 212.623 743.753 230.223 723.766 247.783 706.03 268.744"/><polygon class="cls-29" points="715.028 285.088 730.997 275.529 726.807 281.947 715.028 285.088"/><polygon class="cls-29" points="708.744 294.187 723.766 287.898 718.881 294.187 706.03 297.441 708.744 294.187"/><polygon class="cls-29" points="668.677 308.115 678.848 306.758 671.131 310.341 668.677 308.115"/><polygon class="cls-29" points="666.515 308.241 648.523 308.55 659.386 309.504 666.515 308.241"/><polygon class="cls-16" points="648.523 300.085 661.761 289.276 655.107 298.767 648.523 300.085"/><polygon class="cls-16" points="704.926 187.783 666.515 241.618 711.78 188.819 704.926 187.783"/><polygon class="cls-16" points="679.741 237.428 676.375 240.157 672.082 249.049 679.741 237.428"/><polygon class="cls-16" points="621.681 305.463 629.458 299.284 635.133 297.504 623.265 306.856 621.681 305.463"/><polygon class="cls-16" points="678.848 305.242 694.639 281.383 696.848 280.309 685.488 304.638 678.848 305.242"/><polygon class="cls-30" points="596.923 51.943 1003.881 57.976 1003.881 319.073 780.636 319.073 780.198 312.644 794.531 272.4 743.753 146.694 731.15 139.298 727.613 135.886 703.963 104.793 699.037 103.193 647.5 66.409 621.353 73.766 596.923 51.943"/><polygon class="cls-6" points="743.753 146.694 891.491 183.063 836.611 175.903 863.166 187.783 829.531 190.033 762.621 176.494 743.753 146.694"/><polygon class="cls-6" points="756.244 177.618 817.455 190.033 767.415 200.02 756.244 177.618"/><polygon class="cls-6" points="796.687 196.593 883.903 187.783 897.175 187.783 829.531 212.258 796.687 196.593"/><polygon class="cls-6" points="788.454 249.803 827.07 218.323 804.965 242.809 788.454 249.803"/><polygon class="cls-6" points="788.454 245.588 796.687 238.767 786.849 242.178 788.454 245.588"/><polygon class="cls-6" points="904.457 61.592 731.041 83.783 855.483 75.4 822.451 80.442 710.802 99.313 843.112 100.918 990.834 71.176 904.457 61.592"/><polygon class="cls-6" points="744.12 59.94 790.439 61.592 767.415 65.841 744.12 59.94"/><polygon class="cls-6" points="794.611 151.609 1003.881 162.407 907.926 171.098 817.898 157.293 834.52 157.293 794.611 151.609"/><polygon class="cls-6" points="751.021 148.484 794.611 151.609 780.429 151.609 751.021 148.484"/><polygon class="cls-31" points="863.166 56.493 904.457 38.557 925.458 56.814 863.166 56.493"/><polygon class="cls-32" points="822.451 56.493 817.622 54.031 803.632 56.493 822.451 56.493"/><polygon class="cls-11" points="843.112 100.918 851.745 154.557 863.166 155.147 866.081 105.695 871.531 101.743 869.99 155.147 882.01 156.119 878.796 96.094 884.981 92.488 904.353 146.694 903.881 116.367 903.881 88.683 843.112 100.918"/><polygon class="cls-11" points="710.802 99.313 721.721 127.745 703.963 104.793 698.52 83.783 731.041 83.783 757.93 81.971 757.93 91.347 710.802 99.313"/><polygon class="cls-11" points="647.5 66.409 681.568 66.409 693.6 99.313 647.5 66.409"/><polygon class="cls-11" points="767.415 89.744 769.626 81.183 784.255 80.198 781.029 87.443 767.415 89.744"/><polygon class="cls-11" points="767.415 79.128 767.415 65.841 772.816 64.844 771.524 78.602 772.816 78.437 775.835 64.287 790.439 61.592 787.406 76.57 767.415 79.128"/><polygon class="cls-11" points="736.639 99.626 756.244 147.216 753.049 148.484 731.041 99.626 736.639 99.626"/><polygon class="cls-11" points="863.166 187.783 837.734 176.405 880.588 181.64 879.615 188.216 831.082 193.118 829.531 190.033 863.166 187.783"/><polygon class="cls-11" points="817.455 190.033 817.622 194.478 819.744 194.478 818.974 187.896 792.561 182.552 792.561 184.984 817.455 190.033"/><polygon class="cls-13" points="828.143 100.736 860.867 97.464 843.112 100.918 828.143 100.736"/><polygon class="cls-11" points="833.651 210.767 836.611 257.604 839.07 254.197 839.07 210.767 844.173 208.229 844.505 232.917 858.816 223.373 857.091 202.286 833.651 210.767"/><polygon class="cls-6" points="863.166 56.493 893.007 54.031 903.996 42.662 904.457 38.557 863.166 56.493"/><polygon class="cls-6" points="899.542 130.323 1003.881 107.833 1003.881 133.489 944.142 134.553 969.491 131.738 899.542 130.323"/><polygon class="cls-6" points="939.807 134.553 894.312 137.866 911.07 141.101 939.807 134.553"/><polygon class="cls-6" points="957.933 81.971 1003.881 68.367 1003.881 77.749 957.933 81.971"/><polygon class="cls-6" points="749.817 104.734 813.041 101.743 770.986 110.058 749.817 104.734"/><polygon class="cls-6" points="723.766 59.94 712.631 57.504 715.446 61.592 723.766 59.94"/><polygon class="cls-6" points="957.933 90.979 973.385 85.907 967.096 91.241 957.933 90.979"/><polygon class="cls-33" points="731.041 305.336 839.07 217.925 904.754 187.783 951.683 170.478 1003.881 162.407 1003.881 319.073 872.923 319.073 751.281 319.073 751.231 317.78 744.545 310.009 731.041 305.336"/><polygon class="cls-7" points="731.041 305.336 809.22 286.93 863.166 234.483 822.451 267.794 817.898 267.153 868.488 218.323 839.07 217.925 731.041 305.336"/><polygon class="cls-7" points="886.186 209.318 863.166 234.483 951.683 170.478 920.631 173.323 886.186 209.318"/><polygon class="cls-7" points="751.231 317.78 799.764 301.609 822.451 302.553 780.636 319.073 751.231 317.78"/><polygon class="cls-7" points="796.687 319.073 883.903 273.178 830.942 307.733 1004.381 230.223 1004.037 291.252 916.511 319.073 796.687 319.073"/><polygon class="cls-7" points="809.891 289.546 844.249 257.604 832.123 275.582 809.891 289.546"/><polygon class="cls-7" points="822.451 298.767 830.102 294.638 836.611 294.638 822.451 298.767"/><polygon class="cls-7" points="883.903 273.178 1003.881 218.323 1004.381 168.364 883.903 273.178"/><polygon class="cls-11" points="855.464 240.784 851.745 234.483 868.488 218.323 869.99 227.023 855.464 240.784"/><polygon class="cls-11" points="866.081 232.375 872.796 278.193 877.414 276.593 873.554 233.322 883.903 273.178 901.834 252.197 899.069 208.522 903.881 249.803 903.881 205.043 866.081 232.375"/><polygon class="cls-11" points="809.891 289.546 817.455 302.345 811.66 301.609 802.345 288.548 807.762 301.942 802.345 301.789 796.687 289.881 809.22 286.93 827.07 269.576 828.647 272.109 809.891 289.546"/><polygon class="cls-11" points="822.451 302.553 823.36 305.037 824.664 304.351 822.451 298.767 825.554 296.703 821.99 281.947 816.207 285.579 822.451 302.553"/><polygon class="cls-11" points="828.194 295.668 823.36 281.086 824.837 280.158 828.194 295.668"/><polygon class="cls-7" points="839.07 217.925 872.923 216.148 904.754 187.783 839.07 217.925"/><polygon class="cls-11" points="880.588 209.318 880.588 215.438 894.865 200.249 894.865 196.596 880.588 209.318"/><polygon class="cls-11" points="827.07 258.3 828.194 263.095 833.651 258.631 832.117 253.428 827.07 258.3"/><polygon class="cls-11" points="870.463 281.947 870.463 287.398 860.867 292.335 860.867 288.208 870.463 281.947"/><polygon class="cls-13" points="802.345 288.548 812.667 283.579 809.22 286.93 802.345 288.548"/><polygon class="cls-34" points="817.898 267.153 757.93 283.579 818.735 266.344 817.898 267.153"/><polygon class="cls-35" points="888.297 281.947 978.234 299.453 980.392 298.767 888.297 281.947"/><g class="cls-14"><polygon class="cls-7" points="790.439 258.969 825.554 234.483 842.607 235.274 809.891 252.155 790.439 258.969"/><polygon class="cls-7" points="807.762 257.604 819.744 249.803 822.451 251.652 815.106 258.13 807.762 257.604"/><polygon class="cls-7" points="778.772 277.672 790.439 269.576 830.36 255.123 818.735 266.344 778.772 277.672"/><polygon class="cls-7" points="768.581 283.454 796.687 275.529 796.687 278.193 768.581 283.454"/><polygon class="cls-7" points="827.96 314.319 876.712 291.852 891.491 293.492 866.081 310.328 870.463 310.341 900.586 291.852 903.881 290.557 904.641 314.319 827.96 314.319"/><polygon class="cls-7" points="825.554 314.169 840.902 306.856 835.382 306.856 815.015 314.761 825.554 314.169"/><polygon class="cls-7" points="749.817 156.273 812.86 172.831 816.523 177.618 753.3 161.773 756.244 166.423 803.007 177.618 806.153 185.302 762.621 176.494 749.817 156.273"/><polygon class="cls-7" points="829.531 190.033 827.828 184.761 831.744 184.761 834.335 189.711 829.531 190.033"/><polygon class="cls-7" points="652.386 295.043 706.03 236.448 717.876 235.274 690.739 293.393 652.386 295.043"/><polygon class="cls-7" points="637.101 300.228 655.107 274.962 646.104 275.003 625.946 300.833 637.101 300.228"/><polygon class="cls-7" points="662.796 279.491 662.796 274.962 677.765 260.761 662.796 279.491"/><polygon class="cls-7" points="749.512 99.782 836.611 88.683 863.166 87.062 806.153 99.191 749.512 99.782"/><polygon class="cls-7" points="813.041 100.918 831.082 97.464 846.233 97.464 834.335 100.918 813.041 100.918"/><path class="cls-7" d="M752.36338,187.5185c.0734-.0777,14.9789,43.3412,14.9789,43.3412l32.4093.1142L780.374,181.845Z" transform="translate(3.8807 -80.9274)"/><polygon class="cls-7" points="790.439 112.578 806.153 148.484 813.041 147.577 804.826 110.058 790.439 112.578"/><polygon class="cls-7" points="899.769 89.524 915.483 125.43 922.372 124.523 914.156 87.004 899.769 89.524"/><polygon class="cls-7" points="745.586 99.313 819.744 88.683 764.165 89.744 710.802 99.313 745.586 99.313"/><polygon class="cls-7" points="873.732 93.422 889.723 89.744 903.881 88.683 879.138 93.664 873.732 93.422"/><polygon class="cls-7" points="879.267 104.875 883.811 141.631 894.865 143.146 883.811 104.875 879.267 104.875"/><polygon class="cls-7" points="731.041 219.073 721.667 237.428 726.807 238.767 740.327 223.373 731.041 219.073"/><polygon class="cls-7" points="788.454 216.523 804.566 222.563 812.667 209.318 794.612 197.153 788.454 216.523"/><polygon class="cls-7" points="784.881 213.673 788.454 200.02 784.881 202.283 784.881 213.673"/><polygon class="cls-7" points="688.355 84.971 679.47 61.592 691.028 59.94 691.028 84.971 688.355 84.971"/><polygon class="cls-7" points="813.041 125.967 811.154 122.401 814.944 122.401 816.523 127.745 813.041 125.967"/><polygon class="cls-7" points="976.097 96.456 974.21 92.889 978 92.889 979.579 98.234 976.097 96.456"/><polygon class="cls-7" points="775.835 244.842 772.816 235.488 779.938 233.322 779.938 243.071 775.835 244.842"/></g><g class="cls-14"><polygon class="cls-15" points="673.137 298.631 663.634 293.751 663.909 290.875 674.619 296.454 673.137 298.631"/><polygon class="cls-15" points="830.53 185.619 817.639 178.677 811.211 167.19 833.69 182.501 830.53 185.619"/><path class="cls-15" d="M729.359,349.2743l6.10928-22.3421s.374.8193.6779.8193-5.5716,22.3794-5.5716,22.3794Z" transform="translate(3.8807 -80.9274)"/><path class="cls-15" d="M793.7,312.7822l2.55408-9.3403s.1563.3425.2834.3425-2.3293,9.356-2.3293,9.356Z" transform="translate(3.8807 -80.9274)"/><path class="cls-15" d="M952.63148,232.5544l2.5541-9.3403s.1563.3425.28342.3425-2.32932,9.3559-2.32932,9.3559Z" transform="translate(3.8807 -80.9274)"/><polygon class="cls-15" points="864.086 88.179 865.605 84.217 868.34 84.217 866.213 89.036 864.086 88.179"/><polygon class="cls-15" points="668.934 271.99 666.515 268.503 668.055 266.243 670.84 270.714 668.934 271.99"/><polygon class="cls-15" points="832.013 129.09 825.546 144.576 843.125 122.401 832.013 129.09"/><polygon class="cls-15" points="986.017 144.085 979.55 159.571 997.13 137.396 986.017 144.085"/><polygon class="cls-15" points="894.595 218.844 895.52 218.844 895.057 227.931 893.313 227.931 894.595 218.844"/><polygon class="cls-15" points="751.409 173.074 752.335 173.074 751.872 182.161 750.128 182.161 751.409 173.074"/><polygon class="cls-15" points="874.407 290.1 880.204 299.453 884.408 297.81 876.709 287.53 874.407 290.1"/><polygon class="cls-15" points="675.874 294.612 676.016 292.502 678.848 294.431 677.626 294.702 675.874 294.612"/><polygon class="cls-15" points="713.015 92.635 714.636 98.488 717.877 98.488 715.446 92.635 713.015 92.635"/><polygon class="cls-15" points="822.111 239.34 823.191 242.481 822.651 242.855 822.111 240.339 822.111 239.34"/><polygon class="cls-15" points="780.091 213.264 781.542 212.573 781.542 213.8 780.353 213.8 780.091 213.264"/><polygon class="cls-15" points="868.148 259.792 870.241 258.936 870.241 260.756 869.194 261.436 868.148 259.792"/><polygon class="cls-15" points="830.349 279.254 832.521 274.221 834.648 274.221 831.71 279.254 830.349 279.254"/><polygon class="cls-15" points="803.18 207.932 804.088 205.828 804.977 205.828 803.749 207.932 803.18 207.932"/><polygon class="cls-15" points="850.377 130.664 857.759 121.151 862.215 123.689 853.22 131.738 850.377 130.664"/><polygon class="cls-15" points="982.126 109.111 984.079 97.228 989.206 97.335 985.137 108.699 982.126 109.111"/><polygon class="cls-15" points="928.425 271.827 935.808 262.314 940.264 264.852 931.268 272.901 928.425 271.827"/><polygon class="cls-15" points="879.535 81.969 886.917 72.456 891.373 74.994 882.378 83.043 879.535 81.969"/><polygon class="cls-15" points="965.056 146.062 972.439 136.549 976.895 139.087 967.899 147.136 965.056 146.062"/><polygon class="cls-15" points="850.803 144.446 851.635 142.242 854.707 141.842 851.466 144.696 850.803 144.446"/><polygon class="cls-15" points="844.979 83.148 845.811 80.944 848.883 80.544 845.642 83.398 844.979 83.148"/><polygon class="cls-15" points="802.999 207.305 804.277 202.785 803.049 202.382 802.413 207.305 802.999 207.305"/><polygon class="cls-15" points="933.334 144.304 934.612 139.784 933.384 139.381 932.749 144.304 933.334 144.304"/><polygon class="cls-15" points="932.403 110.294 933.681 105.774 932.452 105.371 931.817 110.294 932.403 110.294"/><polygon class="cls-15" points="778.966 214.854 778.966 211.809 778.373 211.809 778.67 214.91 778.966 214.854"/><polygon class="cls-15" points="934.909 102.412 934.909 99.367 934.316 99.367 934.612 102.468 934.909 102.412"/><polygon class="cls-15" points="779.686 213.62 780.067 211.272 780.675 211.272 780.068 213.62 779.686 213.62"/><polygon class="cls-15" points="683.796 282.946 685.565 291.798 690.176 293.71 685.687 282.946 683.796 282.946"/><polygon class="cls-15" points="700.744 64.979 702.513 73.83 707.125 75.742 702.635 64.979 700.744 64.979"/><polygon class="cls-15" points="688.928 285.088 690.176 289.371 691.9 289.371 690.176 285.945 688.928 285.088"/></g><polygon class="cls-16" points="764.587 278.193 786.667 269.576 770.606 273.323 764.587 278.193"/><polygon class="cls-16" points="818.735 266.344 803.18 273.884 815.627 274.221 822.451 267.794 818.735 266.344"/><polygon class="cls-16" points="846.931 217.925 864.095 222.563 868.488 218.323 846.931 217.925"/><polygon class="cls-16" points="869.99 227.023 884.408 213.62 889.112 206.368 869.99 227.023"/><polygon class="cls-16" points="743.753 146.694 809.891 163.133 776.822 156.589 782.634 161.044 781.542 164.605 749.817 156.273 743.753 146.694"/><polygon class="cls-16" points="767.415 65.841 790.439 61.592 756.988 63.2 767.415 65.841"/><polygon class="cls-16" points="863.166 56.493 893.007 54.031 903.996 42.662 904.457 38.557 863.166 56.493"/><polygon class="cls-16" points="817.622 54.031 816.933 55.262 807.63 55.262 817.622 54.031"/><polygon class="cls-16" points="756.244 80.198 803.632 78.893 888.807 73.532 852.755 74.76 926.729 63.717 904.457 61.592 756.244 80.198"/><polygon class="cls-16" points="807.506 276.738 809.891 275.529 812.147 275.529 810.712 276.738 807.506 276.738"/><polygon class="cls-16" points="826.509 234.527 827.828 232.213 830.36 232.213 826.509 234.527"/><polygon class="cls-16" points="826.028 237.428 827.07 236.494 827.828 236.494 826.928 238.104 826.028 237.428"/><polygon class="cls-16" points="873.732 163.133 880.588 161.044 884.981 162.555 873.732 163.133"/><polygon class="cls-16" points="703.934 227.364 706.03 224.746 706.03 227.364 703.934 227.364"/><polygon class="cls-16" points="848.883 306.856 869.194 303.49 870.463 307.424 855.576 311.399 848.883 306.856"/><polygon class="cls-16" points="863.166 311.399 866.081 310.328 870.463 310.341 863.166 311.399"/><polygon class="cls-16" points="834.335 79.285 840.333 79.285 840.333 81.255 833.69 81.255 834.335 79.285"/><polygon class="cls-16" points="839.765 83.043 846.931 81.971 842.607 84.217 839.765 83.043"/><polygon class="cls-7" points="926.481 319.073 945.681 319.073 965.765 305.336 926.481 319.073"/><polygon class="cls-7" points="953.512 316.253 959.954 312.204 977.386 312.204 986.607 314.761 960.839 317.453 953.512 316.253"/><polygon class="cls-7" points="979.786 303.49 988.691 299.453 997.407 299.453 992.102 302.345 979.786 303.49"/><polygon class="cls-7" points="974.67 303.49 979.281 302.438 983.133 299.904 969.491 303.883 974.67 303.49"/><polygon class="cls-7" points="907.425 203.778 933.681 185.749 923.07 198.978 918.27 201.378 907.425 203.778"/><polygon class="cls-7" points="908.55 207.305 916.375 206.368 912.463 207.932 905.765 207.932 908.55 207.305"/><polygon class="cls-7" points="911.07 244.638 916.375 236.494 926.481 232.213 926.039 234.03 911.07 245.462 911.07 244.638"/><polygon class="cls-7" points="908.417 248.936 914.923 244.842 908.417 250.515 906.144 251.273 908.417 248.936"/><polygon class="cls-7" points="930.781 209.318 951.683 187.397 994.312 170.478 999.491 168.364 949.66 211.809 930.781 209.318"/><polygon class="cls-7" points="854.917 281.547 868.508 274.28 880.005 271.928 867.461 278.005 854.917 281.547"/><polygon class="cls-11" points="923.07 198.978 923.749 233.37 926.481 232.213 926.039 234.03 923.603 235.891 923.375 238.838 928.381 234.483 925.123 198.978 926.481 196.596 929.66 233.37 930.781 232.213 928.817 193.118 930.202 190.086 933.681 206.017 946.788 191.64 944.142 177.473 951.683 170.478 926.481 188.819 926.481 190.086 933.681 185.749 923.07 198.978"/><polygon class="cls-11" points="949.66 211.809 949.739 215.901 981.929 187.896 983.217 182.552 949.66 211.809"/><polygon class="cls-11" points="990.268 176.405 990.268 180.642 993.744 177.618 996.355 171.098 990.268 176.405"/><polygon class="cls-11" points="927.306 253.333 924.723 265.822 934.536 261.436 935.954 252.157 937.377 250.515 937.334 260.186 940.057 258.969 940.057 249.803 975.428 232.213 975.574 243.097 982.458 240.02 984.428 227.931 985.978 226.508 985.104 238.838 993.239 234.483 992.803 223.387 927.306 253.333"/><polygon class="cls-11" points="1004.037 291.252 985.47 296.703 985.47 300.913 988.691 299.453 997.407 299.453 992.102 302.345 991.912 319.073 987.363 302.786 985.47 302.961 989.765 319.314 1003.881 319.073 1004.037 291.252"/><polygon class="cls-17" points="751.231 317.78 780.636 319.073 799.764 310.341 781.018 310.341 805.538 309.234 809.891 306.758 784.019 306.856 751.231 317.78"/><polygon class="cls-17" points="799.764 317.453 870.999 315.052 804.327 315.052 799.764 317.453"/><polygon class="cls-17" points="829.531 301.789 842.445 300.228 858.816 289.546 850.284 290.869 829.531 301.789"/><polygon class="cls-17" points="828.647 272.109 835.382 270.75 844.249 257.604 828.647 272.109"/><polygon class="cls-17" points="842.607 261.631 846.931 257.604 850.284 255.631 846.931 260.761 842.607 261.631"/><polygon class="cls-17" points="839.07 254.197 851.745 246.52 861.937 235.488 839.07 254.197"/><polygon class="cls-17" points="829.531 228.662 834.345 221.749 839.07 221.749 833.651 228.662 829.531 228.662"/><polygon class="cls-17" points="873.732 188.81 886.515 191.64 897.175 187.783 885.454 187.783 873.732 188.81"/><polygon class="cls-17" points="860.867 190.109 871.912 193.118 865.665 189.625 860.867 190.109"/><polygon class="cls-17" points="850.284 157.293 860.867 158.431 855.576 159.567 850.284 157.293"/><polygon class="cls-17" points="731.041 305.336 751.021 294.187 791.768 289.546 788.651 291.773 731.041 305.336"/><polygon class="cls-17" points="747.312 292.171 756.244 290.557 761.405 284.494 752.574 287.913 747.312 292.171"/><polygon class="cls-17" points="897.399 261.436 916.375 258.631 939.447 247.783 920.553 249.803 943.335 246.005 944.522 245.462 912.777 248.057 897.399 261.436"/><polygon class="cls-17" points="916.746 244.605 941.891 240.74 918.775 242.855 916.746 244.605"/><polygon class="cls-17" points="946.123 256.258 1003.881 238.104 1004.381 230.223 946.123 256.258"/><polygon class="cls-17" points="933.681 265.159 969.491 256.258 975.252 258.969 940.249 267.608 933.681 265.159"/><polygon class="cls-17" points="929.319 314.319 964.298 303.883 934.345 310.341 929.319 314.319"/><polygon class="cls-17" points="951.898 209.858 958.981 200.02 979.55 185.749 951.898 209.858"/><polygon class="cls-17" points="939.313 200.37 965.724 191.64 986.607 179.597 992.059 174.843 972.046 179.315 951.683 187.397 939.313 200.37"/><polygon class="cls-16" points="944.522 245.462 949.66 240.784 965.136 235.488 944.522 245.462"/><polygon class="cls-16" points="980.392 298.767 952.701 293.71 985.47 296.703 987.191 296.198 976.312 293.71 979.028 292.335 999.293 292.644 980.392 298.767"/><polygon class="cls-16" points="973.723 292.335 970.975 291.252 970.975 290.7 973.723 289.546 973.723 292.335"/><polygon class="cls-16" points="929.319 303.883 931.66 303.49 934.345 303.49 929.319 304.515 929.319 303.883"/><polygon class="cls-16" points="963.925 214.791 966.266 214.398 968.951 214.398 963.925 215.423 963.925 214.791"/><polygon class="cls-16" points="960.839 317.453 970.06 314.829 986.607 314.761 960.839 317.453"/><polygon class="cls-16" points="880.588 314.319 888.297 309.101 894.417 309.101 885.454 312.916 880.588 314.319"/><polygon class="cls-16" points="897.365 308.62 899.954 307.444 900.534 307.444 898.949 308.62 897.365 308.62"/><polygon class="cls-16" points="906.744 277.672 907.425 276.738 913.186 276.133 914.923 276.738 907.425 278.193 906.744 277.672"/><polygon class="cls-16" points="899.212 279.552 900.16 278.888 898.786 278.888 895.66 280.262 899.212 279.552"/><polygon class="cls-16" points="954.466 227.023 958.981 221.749 965.765 220.683 955.912 227.023 954.466 227.023"/><polygon class="cls-16" points="956.544 228.662 960.116 227.023 958.981 228.662 956.544 229.553 956.544 228.662"/><polygon class="cls-16" points="944.142 203.778 946.123 201.125 947.954 201.125 946.048 203.778 944.142 203.778"/><polygon class="cls-16" points="916.254 165.932 918.235 163.279 920.067 163.279 918.161 165.932 916.254 165.932"/><polygon class="cls-16" points="924.723 187.397 927.87 183.915 930.781 182.552 924.723 187.397"/><polygon class="cls-16" points="979.55 265.822 983.217 263.095 990.268 263.095 979.55 265.822"/><polygon class="cls-36" points="819.162 233.741 851.745 234.483 853.193 236.936 852.513 233.741 819.162 233.741"/><polygon class="cls-37" points="849.662 236.494 846.233 234.063 849.911 236.253 849.662 236.494"/><polygon class="cls-38" points="776.36 278.355 795.254 290.218 796.122 290.218 785.765 283.862 777.617 278.715 777.594 278.193 776.36 278.355"/><polygon class="cls-39" points="941.891 222.729 985.978 226.508 988.827 225.205 952.217 223.387 941.891 222.729"/><polygon class="cls-40" points="933.783 229.783 950.417 228.288 969.144 225.065 967.845 224.954 950.216 228.204 933.783 229.783"/><polygon class="cls-41" points="954.466 223.499 950.417 228.288 950.94 228.071 954.466 223.807 954.466 223.499"/><polygon class="cls-42" points="939.313 210.444 961.914 201.125 960.393 202.452 957.878 202.969 939.5 210.468 939.313 210.444"/><polygon class="cls-43" points="975.252 193.705 1003.881 189.625 1003.881 191.372 1002.239 190.325 974.971 193.949 975.252 193.705"/><polygon class="cls-44" points="628.212 71.836 630.211 132.878 631.344 138.723 631.344 74.862 631.344 70.745 628.212 71.836"/><polygon class="cls-45" points="633.095 70.084 634.439 81.125 634.439 70.084 633.095 70.084"/><polygon class="cls-46" points="346.312 86.62 344.86 117.737 343.723 96.283 342.055 96.283 341.67 92.144 346.312 86.62"/><polygon class="cls-47" points="367.075 66.09 365.679 72.171 363.516 66.09 367.075 66.09"/><polygon class="cls-48" points="721.721 127.745 723.766 158.121 729.87 144.913 732.902 144.734 734.43 141.223 721.721 127.745"/><polygon class="cls-49" points="737.344 142.933 738.144 148.484 741.84 145.572 737.344 142.933"/><polygon class="cls-50" points="285.762 134.557 283.631 147.722 281.86 149.645 281.86 157.294 278.828 141.383 277.624 139.952 285.762 134.557"/><polygon class="cls-51" points="288.294 132.878 289.2 134.328 290.238 131.589 288.294 132.878"/><polygon class="cls-52" points="282.584 319.073 274.004 305.758 269.904 305.758 259.654 294.204 265.218 290.104 275.443 287.194 409.307 249.103 409.307 255.316 374.554 311.58 364.792 311.58 358.544 319.073 282.584 319.073"/><polygon class="cls-7" points="259.654 294.204 296.731 298.497 372.325 273.178 332.183 288.429 350.102 290.557 400.375 263.111 409.307 249.103 265.218 290.104 259.654 294.204"/><polygon class="cls-7" points="298.164 300.934 325.849 291.852 314.041 298.497 298.164 300.934"/><polygon class="cls-7" points="355.18 298.497 391.281 273.8 381.123 286.148 355.18 298.497"/><polygon class="cls-7" points="302.231 319.073 364.706 296.394 376.375 297.757 345.811 319.073 302.231 319.073"/><polygon class="cls-17" points="329.273 309.256 357.979 310.586 371.07 301.578 351.82 301.578 373.23 300.228 376.375 297.757 364.706 296.394 329.273 309.256"/><polygon class="cls-17" points="364.892 291.852 374.416 289.341 381.123 286.148 373.879 285.705 364.892 291.852"/><polygon class="cls-17" points="340.753 285.173 357.593 286.523 372.75 278.193 354.339 279.495 340.753 285.173"/><polygon class="cls-17" points="372.325 273.178 396.711 265.112 365.679 273.323 372.325 273.178"/><polygon class="cls-11" points="376.375 297.757 374.554 311.58 364.792 311.58 365.948 305.102 376.375 297.757"/><polygon class="cls-11" points="298.164 300.934 302.231 319.073 296.735 319.073 282.584 319.073 274.004 305.758 285.619 300.085 289.975 312.536 286.764 297.343 296.731 298.497 298.164 300.934"/><polygon class="cls-11" points="303.596 296.198 304.375 298.497 314.966 295.423 314.966 292.389 303.596 296.198"/><polygon class="cls-11" points="321.442 290.22 321.442 293.298 325.849 291.852 327.121 310.037 329.273 309.256 329.273 288.905 330.902 288.779 330.902 308.665 332.183 308.199 332.183 288.429 347.489 282.358 347.489 281.496 321.442 290.22"/><polygon class="cls-16" points="330.902 308.665 343.912 310.586 322.87 311.58 330.902 308.665"/><polygon class="cls-16" points="372.116 269.482 367.786 269.02 371.192 265.112 381.195 264.896 372.116 269.482"/><polygon class="cls-16" points="380.029 266.427 385.05 264.896 389.386 265.112 380.029 266.427"/><polygon class="cls-16" points="400.249 261.757 401.07 258.599 399.681 258.599 397.407 260.62 400.249 261.757"/><polygon class="cls-16" points="276.27 291.252 277.407 290.904 278.544 290.557 280.024 290.904 276.27 291.252"/><polygon class="cls-16" points="301.565 291.252 298.998 294.187 295.312 295.767 289.344 295.443 295.312 292.928 301.565 291.252"/><polygon class="cls-16" points="383.196 284.62 383.748 279.495 380.029 281.923 383.196 284.62"/><polygon class="cls-16" points="313.239 292.968 318.333 288.165 331.028 285.705 313.239 292.968"/><polygon class="cls-16" points="331.028 313.212 331.746 312.725 334.06 312.725 331.786 313.862 331.028 313.212"/><polygon class="cls-16" points="376.375 263.808 380.029 263.115 380.796 263.115 377.512 263.808 376.375 263.808"/><polygon class="cls-16" points="376.66 264.378 378.586 264.378 378.586 264.694 376.375 264.536 376.66 264.378"/><polygon class="cls-53" points="378.902 55.422 372.586 12.141 375.239 12.141 377.323 35.639 377.938 36.256 379.881 55.422 378.902 55.422"/><polygon class="cls-54" points="598.484 48.9 601.894 4.018 605.386 2 600.757 39.306 601.042 41.407 599.62 48.607 598.484 48.9"/><path class="cls-55" d="M493.75,174.9214q-1.67206,0-3.36671-.0459c-32.583-.8945-60.9419-11.5415-78.9946-20.315A192.93023,192.93023,0,0,1,379.77,135.5986l-5.51411.3775-.0342-.499,5.7055-.3902.0757.0596c.47511.375,48.2139,37.522,110.39411,39.229,32.45849.895,58.59129-11.3379,74.79049-21.7534,17.5586-11.291,27.5654-22.9444,27.6641-23.0611l.0683-.08,2.80179-.1963.0351.499-2.59369.1816a138.29192,138.29192,0,0,1-27.6914,23.0679C549.77539,163.1289,524.791,174.9214,493.75,174.9214Z" transform="translate(3.8807 -80.9274)"/><polygon class="cls-56" points="378.198 56.752 395.907 60.608 396.712 58.68 386.091 53.934 384.621 57.345 383.354 56.399 378.198 56.752"/><polygon class="cls-56" points="388.279 59.929 404.386 70.762 406.157 67.164 403.534 65.074 402.338 68.661 388.279 59.929"/><polygon class="cls-56" points="406.157 70.777 413.915 76.717 421.674 79.663 422.505 76.717 421.674 74.279 420.871 77.475 406.157 70.777"/><path class="cls-57" d="M380.74019,138.2719c-.5625-.4119-.9863-.7316-1.2666-.9455l-5.1562.3534-.1572-3.9067,6.0703-.4152.395.312c.0132.0102.5537.4368,1.58451,1.1919Z" transform="translate(3.8807 -80.9274)"/><path class="cls-57" d="M493.80709,176.628q-1.7124,0-3.4482-.0471c-3.9033-.107-7.8804-.3572-11.8213-.743l.2246-3.9004c3.8877.3801,7.8106.6265,11.6597.7328q1.70355.0459,3.3852.0459l.2754-.0006.0156,3.9118Zm4.44491-.0789-.657-5.4138h15.83369l.3711,3.8812A125.22913,125.22913,0,0,1,498.252,176.5491Zm-23.84821-1.1652c-5.0986-.622-10.2895-1.4867-15.4292-2.569l.4785-3.8622c5.0738,1.069,10.1983,1.9222,15.23,2.5359Zm43.5171-1.1046-.4473-3.8686a127.78155,127.78155,0,0,0,15.0078-3.9175l.72861,3.7947A130.23849,130.23849,0,0,1,517.92089,174.2793Zm-63.0356-2.373c-5.0499-1.1817-10.1675-2.5977-15.211-4.2098l.7139-3.7997c4.9829,1.593,10.0386,2.9918,15.0273,4.1588Zm82.3452-3.0039-.8028-3.7692a137.30847,137.30847,0,0,0,14.5381-6.2529L552.04,162.533A139.7831,139.7831,0,0,1,537.23049,168.9024Zm-101.5147-1.0009-14.9731-7.2722.9355-3.717c4.8662,2.0819,9.8252,3.9895,14.7383,5.671Zm120.1895-7.3735-1.1446-3.6164,13.2709-9.7923,1.9948,4.7765A151.40105,151.40105,0,0,1,555.90529,160.528ZM416.99,158.4019l-14.71411-6.6978,1.1504-3.6125c4.6821,2.5334,9.5161,4.9273,14.3672,7.1143Zm-18.53251-8.8135c-5.0039-2.8377-9.7339-5.7754-14.0591-8.7322l1.0394-2.5843c2.92921,2.003,8.0661,4.2416,14.216,7.7294Zm175.2232-.2884-1.4688-3.4101a146.00327,146.00327,0,0,0,12.9365-10.6467l1.7383,3.1885A149.05374,149.05374,0,0,1,573.68069,149.3Z" transform="translate(3.8807 -80.9274)"/><path class="cls-57" d="M590.23139,135.2177l-1.8242-3.1058c2.3623-2.3583,3.6182-3.8271,3.6309-3.8418l.3935-.4628,3.22759-.2267.1601,3.9067-2.17969.1528C593.07619,132.2717,591.93359,133.519,590.23139,135.2177Z" transform="translate(3.8807 -80.9274)"/><polygon class="cls-56" points="440.297 81.656 443.077 84.601 442.762 87.58 439.77 87.58 427.912 82.356 424.623 79.702 439.596 86.974 440.297 81.656"/><polygon class="cls-56" points="443.555 86.769 447.023 88.839 459.296 92.216 460.123 89.493 459.296 87.128 458.766 90.979 443.555 86.769"/><polygon class="cls-56" points="462.855 91.888 468.396 94.457 478.564 95.622 479.136 92.594 478.564 90.561 478.284 94.457 462.855 91.888"/><polygon class="cls-56" points="482.418 94.911 485.828 95.701 497.979 96.388 497.979 95.7 482.418 94.911"/><polygon class="cls-56" points="502.133 95.622 502.133 96.388 514.708 95.622 517.68 94.089 502.133 95.622"/><polygon class="cls-56" points="521.354 89.483 520.456 91.632 521.354 94.911 535.723 90.979 537.091 89.361 521.802 93.352 521.354 89.483"/><polygon class="cls-56" points="540.308 84.206 539.423 86.549 539.866 90.208 555.049 82.964 555.921 81.606 541.111 87.975 540.308 84.206"/><polygon class="cls-56" points="558.641 75.984 556.219 79.358 557.549 82.352 572.291 72.896 573.907 70.968 559.786 79.601 558.641 75.984"/><polygon class="cls-56" points="576.093 64.963 573.907 68.373 574.486 70.708 577.691 69.738 590.039 58.904 590.767 57.504 577.561 68.373 576.093 64.963"/><polygon class="cls-56" points="592.288 51.185 589.526 55.228 590.767 57.504 597.681 51.862 599.486 51.467 599.7 50.56 597.52 50.713 594.112 54.29 592.288 51.185"/><path class="cls-58" d="M476.84909,132.2036c-34.1694,0-60.66209-8.0351-76.9702-14.8408-17.9673-7.4981-27.793-15.166-27.8901-15.2427l.3095-.3926c.09671.0762,9.8819,7.7105,27.7925,15.1822,16.5293,6.895,43.5518,15.0776,78.4448,14.7876,36.5249-.2827,67.524-10.3028,87.0982-18.6587,21.2119-9.0552,33.94821-18.1612,34.07421-18.252l.293.4053c-.127.0913-12.89851,9.2236-34.15721,18.3008-19.6182,8.3764-50.6905,18.4209-87.3042,18.7046C477.97559,132.2017,477.40869,132.2036,476.84909,132.2036Z" transform="translate(3.8807 -80.9274)"/><path class="cls-59" d="M465.11469,137.6035a167.221,167.221,0,0,1-20.1323-1.187c-28.5757-3.4634-53.6787-14.5679-74.6123-33.0044l.3301-.375c47.2353,41.6006,106.9736,37.4849,148.7715,26.7066a312.6941,312.6941,0,0,0,80.249-33.7237l.2676.4219a313.21085,313.21085,0,0,1-80.37889,33.7827A218.82367,218.82367,0,0,1,465.11469,137.6035Z" transform="translate(3.8807 -80.9274)"/><polygon class="cls-60" points="379.881 52.72 382.066 51.027 386.639 53.18 408.191 67.164 439.002 80.356 457.791 86.769 444.269 82.969 443.773 85.611 439.881 83.816 440.297 81.656 425.559 75.985 424.881 78.679 421.245 75.985 421.674 74.279 407.307 67.164 406.599 68.898 402.837 67.164 403.534 65.074 389.318 57.345 388.976 58.197 388.279 59.929 387.455 86.974 386.091 89.493 385.051 106.298 386.091 59.11 385.051 59.929 385.046 84.271 383.37 52.431 379.881 52.72"/><polygon class="cls-60" points="596.312 46.88 594.613 46.653 580.944 60.592 571.233 65.595 547.57 79.893 527.449 86.974 518.67 90.208 507.578 88.784 505.912 90.208 517.309 90.208 517.68 94.089 517.68 104.235 518.158 104.235 518.923 124.663 519.302 94.457 520.06 94.089 520.456 103.251 521.354 94.911 521.354 89.483 528.773 87.975 536.362 85.566 537.091 89.361 537.091 92.422 538.123 87.975 538.344 88.428 539.596 87.975 540.308 84.206 548.115 81.095 554.846 77.953 555.921 81.606 558.641 80.405 558.641 75.984 571.912 66.192 573.59 70.209 577.561 68.373 576.093 64.963 583.741 58.972 589.029 54.316 590.18 56.427 593.226 55.498 592.288 51.185 596.312 46.88"/><polygon class="cls-60" points="456.997 86.498 457.679 85.658 474.701 90.045 463.334 88.025 462.935 91.241 459.296 87.128 456.997 86.498"/><polygon class="cls-60" points="478.564 90.561 491.671 90.208 497.963 91.788 490.021 91.788 482.643 91.01 482.508 93.355 478.564 94.457 478.564 90.561"/><path class="cls-61" d="M401.79339,117.8784s11.154,6.7848,30.90661,10.8269l1.17369-1.1247,1.2477,25.4414V129.0842l1.2951-.3789.7519,1.7052.379-.8766a46.59685,46.59685,0,0,0,14.1473,2.42c6.8211-.1539,8.766-.6146,8.766-.6146l.7709,3.5225v-3.4654S422.56569,125.5567,401.79339,117.8784Z" transform="translate(3.8807 -80.9274)"/><path class="cls-62" d="M509.36019,131.9548a372.56906,372.56906,0,0,0,51.8221-16.1616l-2.1191,22.6385,1.2631-21.6389-2.2737,1.0856s-1.5499,6.4058-16.1223,6.1532l-1.1829,3.0809-.1106-3.002S522.91659,131.4377,509.36019,131.9548Z" transform="translate(3.8807 -80.9274)"/><polygon class="cls-60" points="596.312 46.88 599.54 46.653 599.486 51.467 597.681 51.862 626.103 52.375 606.712 50.56 605.828 49.925 606.839 43.609 605.386 48.9 605.386 44.304 600.68 43.236 599.7 46.185 600.333 43.236 596.324 44.336 596.312 46.88"/><polygon class="cls-60" points="379.881 52.72 378.041 52.846 378.198 56.752 365.939 57.345 365.295 53.509 365.939 53.32 366.128 56.494 367.075 52.431 376.233 51.027 377.26 54.186 376.233 48.252 380.291 47.209 379.881 52.72"/><polygon class="cls-63" points="600.27 13.388 600.27 19.073 603.735 19.073 605.386 13.388 600.27 13.388"/><polygon class="cls-63" points="372.586 19.546 376.233 18.694 376.691 25.261 373.612 25.562 372.586 19.546"/><rect class="cls-64" x="309.75251" y="121.42922" width="65.94126" height="0.49947" transform="translate(-8.88349 117.52183) rotate(-31.73301)"/><rect class="cls-65" x="624.74706" y="84.38525" width="0.50005" height="60.66501" transform="translate(157.01067 459.37577) rotate(-52.44869)"/><polygon class="cls-63" points="651.997 52.759 652.921 48.607 654.081 48.607 653.039 53.016 651.997 52.759"/><polygon class="cls-63" points="318.506 59.854 317.811 56.824 319.001 55.753 319.327 59.854 318.506 59.854"/></g></g></g></svg>