<svg xmlns="http://www.w3.org/2000/svg" xmlns:xlink="http://www.w3.org/1999/xlink" viewBox="0 0 565.67649 194.8098"><defs><style>.cls-1{fill:none;}.cls-2{isolation:isolate;}.cls-3{clip-path:url(#clip-path);}.cls-10,.cls-11,.cls-12,.cls-13,.cls-14,.cls-15,.cls-16,.cls-17,.cls-18,.cls-19,.cls-20,.cls-21,.cls-22,.cls-23,.cls-24,.cls-25,.cls-26,.cls-27,.cls-28,.cls-29,.cls-30,.cls-31,.cls-32,.cls-33,.cls-34,.cls-35,.cls-36,.cls-37,.cls-38,.cls-39,.cls-4,.cls-5,.cls-7,.cls-8,.cls-9{fill-rule:evenodd;}.cls-10,.cls-11,.cls-12,.cls-13,.cls-14,.cls-15,.cls-16,.cls-17,.cls-18,.cls-19,.cls-20,.cls-21,.cls-22,.cls-23,.cls-24,.cls-25,.cls-26,.cls-27,.cls-28,.cls-29,.cls-30,.cls-31,.cls-32,.cls-33,.cls-34,.cls-35,.cls-36,.cls-37,.cls-38,.cls-39,.cls-4,.cls-5,.cls-7,.cls-8{mix-blend-mode:screen;}.cls-4{fill:url(#radial-gradient);}.cls-5{fill:url(#radial-gradient-2);}.cls-6,.cls-9{fill:#fff700;}.cls-7{fill:url(#radial-gradient-3);}.cls-8{fill:url(#radial-gradient-4);}.cls-10{fill:url(#radial-gradient-5);}.cls-11{fill:url(#radial-gradient-6);}.cls-12{fill:url(#radial-gradient-7);}.cls-13{fill:url(#radial-gradient-8);}.cls-14{fill:url(#radial-gradient-9);}.cls-15{fill:url(#radial-gradient-10);}.cls-16{fill:url(#radial-gradient-11);}.cls-17{fill:url(#radial-gradient-12);}.cls-18{fill:url(#radial-gradient-13);}.cls-19{fill:url(#radial-gradient-14);}.cls-20{fill:url(#radial-gradient-15);}.cls-21{fill:url(#radial-gradient-16);}.cls-22{fill:url(#radial-gradient-17);}.cls-23{fill:url(#radial-gradient-18);}.cls-24{fill:url(#radial-gradient-19);}.cls-25{fill:url(#radial-gradient-20);}.cls-26{fill:url(#radial-gradient-21);}.cls-27{fill:url(#radial-gradient-22);}.cls-28{fill:url(#radial-gradient-23);}.cls-29{fill:url(#radial-gradient-24);}.cls-30{fill:url(#radial-gradient-25);}.cls-31{fill:url(#radial-gradient-26);}.cls-32{fill:url(#radial-gradient-27);}.cls-33{fill:url(#radial-gradient-28);}.cls-34{fill:url(#radial-gradient-29);}.cls-35{fill:url(#radial-gradient-30);}.cls-36{fill:url(#radial-gradient-31);}.cls-37{fill:url(#radial-gradient-32);}.cls-38{fill:url(#radial-gradient-33);}.cls-39{fill:url(#radial-gradient-34);}</style><clipPath id="clip-path" transform="translate(-16.9954 -33.4711)"><rect class="cls-1" width="600" height="270" transform="translate(600 270) rotate(180)"/></clipPath><radialGradient id="radial-gradient" cx="413.18321" cy="194.30506" r="5.16763" gradientTransform="translate(-302.7821 -63.0611) scale(1.57 1.3907)" gradientUnits="userSpaceOnUse"><stop offset="0" stop-color="#de5500"/><stop offset="0.09738" stop-color="#c14a00"/><stop offset="0.34244" stop-color="#7d3000"/><stop offset="0.56403" stop-color="#471b00"/><stop offset="0.75437" stop-color="#200c00"/><stop offset="0.90598" stop-color="#090300"/><stop offset="1"/></radialGradient><radialGradient id="radial-gradient-2" cx="413.18321" cy="194.30506" r="2.42301" gradientTransform="translate(-302.7821 -63.0611) scale(1.57 1.3907)" gradientUnits="userSpaceOnUse"><stop offset="0" stop-color="#ff1c1c"/><stop offset="0.18424" stop-color="#c11515"/><stop offset="0.40551" stop-color="#7d0e0e"/><stop offset="0.60587" stop-color="#470808"/><stop offset="0.77799" stop-color="#200404"/><stop offset="0.91506" stop-color="#090101"/><stop offset="1"/></radialGradient><radialGradient id="radial-gradient-3" cx="262.71669" cy="160.93561" r="4.05679" xlink:href="#radial-gradient"/><radialGradient id="radial-gradient-4" cx="262.71672" cy="160.93557" r="1.90217" xlink:href="#radial-gradient-2"/><radialGradient id="radial-gradient-5" cx="280.53267" cy="129.39753" r="4.05679" xlink:href="#radial-gradient"/><radialGradient id="radial-gradient-6" cx="280.53264" cy="129.39757" r="1.90217" xlink:href="#radial-gradient-2"/><radialGradient id="radial-gradient-7" cx="558.81579" cy="198.04174" r="5.16761" xlink:href="#radial-gradient"/><radialGradient id="radial-gradient-8" cx="558.81579" cy="198.04174" r="2.42302" xlink:href="#radial-gradient-2"/><radialGradient id="radial-gradient-9" cx="505.73595" cy="202.54811" r="1.30837" xlink:href="#radial-gradient"/><radialGradient id="radial-gradient-10" cx="505.73595" cy="202.54811" r="0.61347" xlink:href="#radial-gradient-2"/><radialGradient id="radial-gradient-11" cx="341.19143" cy="70.72104" r="1.30837" xlink:href="#radial-gradient"/><radialGradient id="radial-gradient-12" cx="341.19143" cy="70.72104" r="0.61347" xlink:href="#radial-gradient-2"/><radialGradient id="radial-gradient-13" cx="428.68589" cy="181.07503" r="2.76695" xlink:href="#radial-gradient"/><radialGradient id="radial-gradient-14" cx="428.68592" cy="181.07503" r="1.29738" xlink:href="#radial-gradient-2"/><radialGradient id="radial-gradient-15" cx="361.94143" cy="117.90303" r="1.49086" xlink:href="#radial-gradient"/><radialGradient id="radial-gradient-16" cx="361.94146" cy="117.90303" r="0.69904" xlink:href="#radial-gradient-2"/><radialGradient id="radial-gradient-17" cx="271.06073" cy="170.89631" r="2.17217" xlink:href="#radial-gradient"/><radialGradient id="radial-gradient-18" cx="271.0607" cy="170.89631" r="1.01851" xlink:href="#radial-gradient-2"/><radialGradient id="radial-gradient-19" cx="465.97534" cy="145.94647" r="2.76693" xlink:href="#radial-gradient"/><radialGradient id="radial-gradient-20" cx="465.97534" cy="145.94647" r="1.29738" xlink:href="#radial-gradient-2"/><radialGradient id="radial-gradient-21" cx="380.17805" cy="163.22913" r="2.76695" xlink:href="#radial-gradient"/><radialGradient id="radial-gradient-22" cx="380.17808" cy="163.22913" r="1.29738" xlink:href="#radial-gradient-2"/><radialGradient id="radial-gradient-23" cx="350.56022" cy="125.95776" r="2.76695" xlink:href="#radial-gradient"/><radialGradient id="radial-gradient-24" cx="350.56025" cy="125.95776" r="1.29738" xlink:href="#radial-gradient-2"/><radialGradient id="radial-gradient-25" cx="205.85213" cy="153.71238" r="2.17217" xlink:href="#radial-gradient"/><radialGradient id="radial-gradient-26" cx="205.85213" cy="153.71238" r="1.01849" xlink:href="#radial-gradient-2"/><radialGradient id="radial-gradient-27" cx="213.74395" cy="193.3596" r="2.17215" xlink:href="#radial-gradient"/><radialGradient id="radial-gradient-28" cx="213.74392" cy="193.35957" r="1.01851" xlink:href="#radial-gradient-2"/><radialGradient id="radial-gradient-29" cx="242.06459" cy="207.32088" r="2.17217" xlink:href="#radial-gradient"/><radialGradient id="radial-gradient-30" cx="242.06462" cy="207.32088" r="1.01851" xlink:href="#radial-gradient-2"/><radialGradient id="radial-gradient-31" cx="289.76449" cy="100.81642" r="2.17217" xlink:href="#radial-gradient"/><radialGradient id="radial-gradient-32" cx="289.76455" cy="100.81642" r="1.01849" xlink:href="#radial-gradient-2"/><radialGradient id="radial-gradient-33" cx="535.09849" cy="176.21421" r="2.76696" xlink:href="#radial-gradient"/><radialGradient id="radial-gradient-34" cx="535.09853" cy="176.21417" r="1.29738" xlink:href="#radial-gradient-2"/></defs><title>brilho</title><g class="cls-2"><g id="Ñëîé_1" data-name="Ñëîé 1"><g class="cls-3"><path class="cls-4" d="M354.02879,207.1589c0,3.9691-3.6324,7.1866-8.1133,7.1866s-8.1132-3.2175-8.1132-7.1866,3.6324-7.1865,8.1132-7.1865S354.02879,203.1899,354.02879,207.1589Z" transform="translate(-16.9954 -33.4711)"/><path class="cls-5" d="M349.71969,207.1589a3.83217,3.83217,0,1,1-3.8042-3.3696A3.60674,3.60674,0,0,1,349.71969,207.1589Z" transform="translate(-16.9954 -33.4711)"/><circle class="cls-6" cx="329.3606" cy="173.8622" r="1.3107"/><path class="cls-7" d="M116.0523,160.752c0,3.1159-2.8515,5.6418-6.3692,5.6418s-6.3692-2.5259-6.3692-5.6418,2.8516-5.6417,6.3692-5.6417S116.0523,157.6361,116.0523,160.752Z" transform="translate(-16.9954 -33.4711)"/><path class="cls-8" d="M112.6696,160.752a3.00845,3.00845,0,1,1-2.9865-2.6453A2.83145,2.83145,0,0,1,112.6696,160.752Z" transform="translate(-16.9954 -33.4711)"/><path class="cls-9" d="M109,160.8889a1.029,1.029,0,1,0,1.029-1.029A1.02892,1.02892,0,0,0,109,160.8889Z" transform="translate(-16.9954 -33.4711)"/><path class="cls-10" d="M144.0234,116.892c0,3.116-2.8516,5.6418-6.3692,5.6418s-6.3692-2.5258-6.3692-5.6418c0-3.1158,2.8516-5.6417,6.3692-5.6417S144.0234,113.7762,144.0234,116.892Z" transform="translate(-16.9954 -33.4711)"/><path class="cls-11" d="M140.6406,116.892a3.00846,3.00846,0,1,1-2.9864-2.6452A2.83136,2.83136,0,0,1,140.6406,116.892Z" transform="translate(-16.9954 -33.4711)"/><path class="cls-9" d="M136.971,117.029A1.029,1.029,0,1,0,138,116,1.029,1.029,0,0,0,136.971,117.029Z" transform="translate(-16.9954 -33.4711)"/><path class="cls-12" d="M582.67189,212.3555c0,3.969-3.6324,7.1866-8.1132,7.1866s-8.1132-3.2176-8.1132-7.1866,3.6324-7.1865,8.1132-7.1865S582.67189,208.3865,582.67189,212.3555Z" transform="translate(-16.9954 -33.4711)"/><path class="cls-13" d="M578.36289,212.3555a3.83223,3.83223,0,1,1-3.8042-3.3696A3.6068,3.6068,0,0,1,578.36289,212.3555Z" transform="translate(-16.9954 -33.4711)"/><circle class="cls-6" cx="558.00379" cy="179.0588" r="1.3107"/><path class="cls-14" d="M493.27749,218.6226a2.06927,2.06927,0,1,1-2.0542-1.8196A1.94755,1.94755,0,0,1,493.27749,218.6226Z" transform="translate(-16.9954 -33.4711)"/><path class="cls-15" d="M492.18649,218.6226a.97023.97023,0,1,1-.9632-.8532A.91319.91319,0,0,1,492.18649,218.6226Z" transform="translate(-16.9954 -33.4711)"/><path class="cls-9" d="M491.003,218.6667a.33185.33185,0,1,0,.33189-.3318A.3319.3319,0,0,0,491.003,218.6667Z" transform="translate(-16.9954 -33.4711)"/><path class="cls-16" d="M234.94259,35.2907a2.06927,2.06927,0,1,1-2.0542-1.8196A1.94755,1.94755,0,0,1,234.94259,35.2907Z" transform="translate(-16.9954 -33.4711)"/><path class="cls-17" d="M233.85159,35.2907a.97023.97023,0,1,1-.9632-.8532A.91319.91319,0,0,1,233.85159,35.2907Z" transform="translate(-16.9954 -33.4711)"/><path class="cls-9" d="M232.66809,35.3348A.33185.33185,0,1,0,233,35.003.33191.33191,0,0,0,232.66809,35.3348Z" transform="translate(-16.9954 -33.4711)"/><path class="cls-18" d="M374.59889,188.7599a4.37615,4.37615,0,1,1-4.3441-3.8479A4.11866,4.11866,0,0,1,374.59889,188.7599Z" transform="translate(-16.9954 -33.4711)"/><path class="cls-19" d="M372.29169,188.7599a2.05191,2.05191,0,1,1-2.0369-1.8042A1.93123,1.93123,0,0,1,372.29169,188.7599Z" transform="translate(-16.9954 -33.4711)"/><circle class="cls-6" cx="353.49519" cy="155.3822" r="0.7018"/><path class="cls-20" d="M267.80659,100.9066a2.35789,2.35789,0,1,1-2.34059-2.0733A2.21917,2.21917,0,0,1,267.80659,100.9066Z" transform="translate(-16.9954 -33.4711)"/><path class="cls-21" d="M266.56349,100.9066a1.10559,1.10559,0,1,1-1.09749-.9721A1.0406,1.0406,0,0,1,266.56349,100.9066Z" transform="translate(-16.9954 -33.4711)"/><path class="cls-9" d="M265.21489,100.9569a.37815.37815,0,1,0,.37811-.3781A.37815.37815,0,0,0,265.21489,100.9569Z" transform="translate(-16.9954 -33.4711)"/><path class="cls-22" d="M126.1936,174.6043a3.43548,3.43548,0,1,1-3.4104-3.0207A3.23343,3.23343,0,0,1,126.1936,174.6043Z" transform="translate(-16.9954 -33.4711)"/><path class="cls-23" d="M124.3823,174.6043a1.6109,1.6109,0,1,1-1.5991-1.4163A1.51611,1.51611,0,0,1,124.3823,174.6043Z" transform="translate(-16.9954 -33.4711)"/><path class="cls-9" d="M122.4174,174.6777a.551.551,0,1,0,.551-.551A.551.551,0,0,0,122.4174,174.6777Z" transform="translate(-16.9954 -33.4711)"/><path class="cls-24" d="M433.14329,139.9066a4.37609,4.37609,0,1,1-4.3441-3.8479A4.11867,4.11867,0,0,1,433.14329,139.9066Z" transform="translate(-16.9954 -33.4711)"/><path class="cls-25" d="M430.83609,139.9066a2.05191,2.05191,0,1,1-2.0369-1.8042A1.93117,1.93117,0,0,1,430.83609,139.9066Z" transform="translate(-16.9954 -33.4711)"/><path class="cls-9" d="M428.33329,140a.70175.70175,0,1,0,.7018-.7018A.70179.70179,0,0,0,428.33329,140Z" transform="translate(-16.9954 -33.4711)"/><path class="cls-26" d="M298.44159,163.9417a4.37614,4.37614,0,1,1-4.3441-3.848A4.11859,4.11859,0,0,1,298.44159,163.9417Z" transform="translate(-16.9954 -33.4711)"/><path class="cls-27" d="M296.13439,163.9417a2.05189,2.05189,0,1,1-2.0369-1.8043A1.93122,1.93122,0,0,1,296.13439,163.9417Z" transform="translate(-16.9954 -33.4711)"/><path class="cls-9" d="M293.63149,164.035a.7018.7018,0,1,0,.7018-.7017A.70179.70179,0,0,0,293.63149,164.035Z" transform="translate(-16.9954 -33.4711)"/><path class="cls-28" d="M251.94159,112.1084a4.37614,4.37614,0,1,1-4.3441-3.848A4.11859,4.11859,0,0,1,251.94159,112.1084Z" transform="translate(-16.9954 -33.4711)"/><path class="cls-29" d="M249.63439,112.1084a2.05189,2.05189,0,1,1-2.0369-1.8043A1.93122,1.93122,0,0,1,249.63439,112.1084Z" transform="translate(-16.9954 -33.4711)"/><path class="cls-9" d="M247.13149,112.2017a.7018.7018,0,1,0,.7018-.7017A.70179.70179,0,0,0,247.13149,112.2017Z" transform="translate(-16.9954 -33.4711)"/><path class="cls-30" d="M23.8161,150.7067a3.23342,3.23342,0,0,1-3.4104,3.0208,3.043,3.043,0,1,1,0-6.0416A3.23342,3.23342,0,0,1,23.8161,150.7067Z" transform="translate(-16.9954 -33.4711)"/><path class="cls-31" d="M22.0048,150.7067a1.61083,1.61083,0,1,1-1.5991-1.4164A1.5161,1.5161,0,0,1,22.0048,150.7067Z" transform="translate(-16.9954 -33.4711)"/><path class="cls-9" d="M20.04,150.78a.5509.5509,0,1,0,.5509-.551A.55084.55084,0,0,0,20.04,150.78Z" transform="translate(-16.9954 -33.4711)"/><path class="cls-32" d="M36.2062,205.844a3.2334,3.2334,0,0,1-3.4103,3.0209,3.043,3.043,0,1,1,0-6.0416A3.23324,3.23324,0,0,1,36.2062,205.844Z" transform="translate(-16.9954 -33.4711)"/><path class="cls-33" d="M34.3949,205.844a1.61083,1.61083,0,1,1-1.599-1.4164A1.51608,1.51608,0,0,1,34.3949,205.844Z" transform="translate(-16.9954 -33.4711)"/><path class="cls-9" d="M32.4301,205.9173a.551.551,0,1,0,.551-.5509A.551.551,0,0,0,32.4301,205.9173Z" transform="translate(-16.9954 -33.4711)"/><path class="cls-34" d="M80.6696,225.2601a3.4354,3.4354,0,1,1-3.4103-3.0209A3.23326,3.23326,0,0,1,80.6696,225.2601Z" transform="translate(-16.9954 -33.4711)"/><path class="cls-35" d="M78.8584,225.2601a1.61081,1.61081,0,1,1-1.5991-1.4165A1.51616,1.51616,0,0,1,78.8584,225.2601Z" transform="translate(-16.9954 -33.4711)"/><path class="cls-9" d="M76.8935,225.3333a.551.551,0,1,0,.5509-.5509A.551.551,0,0,0,76.8935,225.3333Z" transform="translate(-16.9954 -33.4711)"/><path class="cls-36" d="M155.5585,77.1444a3.43545,3.43545,0,1,1-3.4103-3.0209A3.23325,3.23325,0,0,1,155.5585,77.1444Z" transform="translate(-16.9954 -33.4711)"/><path class="cls-37" d="M153.7473,77.1444a1.61081,1.61081,0,1,1-1.5991-1.4165A1.51609,1.51609,0,0,1,153.7473,77.1444Z" transform="translate(-16.9954 -33.4711)"/><path class="cls-9" d="M151.7824,77.2176a.551.551,0,1,0,.5509-.5509A.551.551,0,0,0,151.7824,77.2176Z" transform="translate(-16.9954 -33.4711)"/><path class="cls-38" d="M541.66669,182a4.37614,4.37614,0,1,1-4.3441-3.848A4.11867,4.11867,0,0,1,541.66669,182Z" transform="translate(-16.9954 -33.4711)"/><path class="cls-39" d="M539.35949,182a2.05189,2.05189,0,1,1-2.0369-1.8043A1.93116,1.93116,0,0,1,539.35949,182Z" transform="translate(-16.9954 -33.4711)"/><path class="cls-9" d="M536.85659,182.0934a.7018.7018,0,1,0,.7018-.7018A.70177.70177,0,0,0,536.85659,182.0934Z" transform="translate(-16.9954 -33.4711)"/></g></g></g></svg>