<svg xmlns="http://www.w3.org/2000/svg" xmlns:xlink="http://www.w3.org/1999/xlink" viewBox="0 0 741.94688 367.5799"><defs><style>.cls-1{mask:url(#mask);}.cls-101,.cls-166,.cls-167,.cls-168,.cls-169,.cls-170,.cls-171,.cls-172,.cls-173,.cls-2,.cls-30,.cls-4,.cls-45,.cls-60,.cls-61,.cls-80,.cls-83,.cls-84,.cls-86,.cls-88,.cls-89,.cls-9{mix-blend-mode:multiply;}.cls-2{fill:url(#Áåçûìÿííûé_ãðàäèåíò_190);}.cls-3{mask:url(#mask-2);}.cls-4{fill:url(#Áåçûìÿííûé_ãðàäèåíò_189);}.cls-5{fill:none;}.cls-6{isolation:isolate;}.cls-7{clip-path:url(#clip-path);}.cls-8{fill:url(#Áåçûìÿííûé_ãðàäèåíò_92);}.cls-103,.cls-83,.cls-86,.cls-9{opacity:0.5;}.cls-10,.cls-100,.cls-101,.cls-102,.cls-104,.cls-105,.cls-106,.cls-108,.cls-109,.cls-11,.cls-12,.cls-13,.cls-131,.cls-132,.cls-133,.cls-134,.cls-145,.cls-19,.cls-20,.cls-21,.cls-22,.cls-92,.cls-93,.cls-94,.cls-95,.cls-96,.cls-97,.cls-98,.cls-99{fill-rule:evenodd;}.cls-10{fill:url(#Áåçûìÿííûé_ãðàäèåíò_52);}.cls-11{fill:url(#Áåçûìÿííûé_ãðàäèåíò_52-2);}.cls-12{fill:url(#Áåçûìÿííûé_ãðàäèåíò_52-3);}.cls-13{fill:url(#Áåçûìÿííûé_ãðàäèåíò_52-4);}.cls-14{fill:url(#Áåçûìÿííûé_ãðàäèåíò_52-5);}.cls-15{fill:url(#Áåçûìÿííûé_ãðàäèåíò_52-6);}.cls-16{fill:url(#Áåçûìÿííûé_ãðàäèåíò_52-7);}.cls-17,.cls-44{opacity:0.4;}.cls-111,.cls-112,.cls-113,.cls-114,.cls-131,.cls-132,.cls-136,.cls-137,.cls-138,.cls-139,.cls-140,.cls-141,.cls-142,.cls-17,.cls-27,.cls-42,.cls-43,.cls-44,.cls-46,.cls-90,.cls-91,.cls-98{mix-blend-mode:screen;}.cls-17{fill:url(#Áåçûìÿííûé_ãðàäèåíò_45);}.cls-18{fill:url(#Áåçûìÿííûé_ãðàäèåíò_92-2);}.cls-19{fill:url(#Áåçûìÿííûé_ãðàäèåíò_52-8);}.cls-20{fill:url(#Áåçûìÿííûé_ãðàäèåíò_52-9);}.cls-21{fill:url(#Áåçûìÿííûé_ãðàäèåíò_52-10);}.cls-22{fill:url(#Áåçûìÿííûé_ãðàäèåíò_52-11);}.cls-23{fill:url(#Áåçûìÿííûé_ãðàäèåíò_52-12);}.cls-24{fill:url(#Áåçûìÿííûé_ãðàäèåíò_52-13);}.cls-25{fill:url(#Áåçûìÿííûé_ãðàäèåíò_52-14);}.cls-26{mask:url(#mask-3);}.cls-27,.cls-42{opacity:0.26;}.cls-27{fill:url(#Áåçûìÿííûé_ãðàäèåíò_160);}.cls-28{fill:url(#Áåçûìÿííûé_ãðàäèåíò_92-3);}.cls-29{fill:url(#Áåçûìÿííûé_ãðàäèåíò_92-4);}.cls-30,.cls-84,.cls-88,.cls-89{opacity:0.3;}.cls-31{fill:url(#Áåçûìÿííûé_ãðàäèåíò_52-15);}.cls-32{fill:url(#Áåçûìÿííûé_ãðàäèåíò_52-16);}.cls-33{fill:url(#Áåçûìÿííûé_ãðàäèåíò_52-17);}.cls-34{fill:url(#Áåçûìÿííûé_ãðàäèåíò_52-18);}.cls-35{fill:url(#Áåçûìÿííûé_ãðàäèåíò_52-19);}.cls-36{fill:url(#Áåçûìÿííûé_ãðàäèåíò_52-20);}.cls-37{fill:url(#Áåçûìÿííûé_ãðàäèåíò_52-21);}.cls-38{fill:url(#Áåçûìÿííûé_ãðàäèåíò_52-22);}.cls-39{fill:url(#Áåçûìÿííûé_ãðàäèåíò_52-23);}.cls-40{fill:url(#Áåçûìÿííûé_ãðàäèåíò_52-24);}.cls-41{mask:url(#mask-4);}.cls-42{fill:url(#Áåçûìÿííûé_ãðàäèåíò_160-2);}.cls-43{opacity:0.72;}.cls-44{fill:url(#Áåçûìÿííûé_ãðàäèåíò_188);}.cls-45{opacity:0.43;fill:url(#Áåçûìÿííûé_ãðàäèåíò_58);}.cls-136,.cls-137,.cls-138,.cls-139,.cls-140,.cls-141,.cls-142,.cls-46{opacity:0.6;}.cls-46{fill:url(#Áåçûìÿííûé_ãðàäèåíò_158);}.cls-47{fill:url(#Áåçûìÿííûé_ãðàäèåíò_55);}.cls-48{fill:url(#Áåçûìÿííûé_ãðàäèåíò_47);}.cls-49{fill:url(#Áåçûìÿííûé_ãðàäèåíò_47-2);}.cls-50{fill:url(#Áåçûìÿííûé_ãðàäèåíò_47-3);}.cls-51{fill:url(#Áåçûìÿííûé_ãðàäèåíò_55-2);}.cls-52{fill:url(#Áåçûìÿííûé_ãðàäèåíò_47-4);}.cls-53{fill:url(#Áåçûìÿííûé_ãðàäèåíò_47-5);}.cls-54{fill:url(#Áåçûìÿííûé_ãðàäèåíò_52-25);}.cls-55{fill:url(#Áåçûìÿííûé_ãðàäèåíò_16);}.cls-56{fill:url(#Áåçûìÿííûé_ãðàäèåíò_16-2);}.cls-57{fill:url(#Áåçûìÿííûé_ãðàäèåíò_92-5);}.cls-58{fill:url(#Áåçûìÿííûé_ãðàäèåíò_55-3);}.cls-59{fill:url(#Áåçûìÿííûé_ãðàäèåíò_92-6);}.cls-169,.cls-60,.cls-61{opacity:0.46;}.cls-60{fill:url(#Áåçûìÿííûé_ãðàäèåíò_52-26);}.cls-62{fill:url(#Áåçûìÿííûé_ãðàäèåíò_52-27);}.cls-63{fill:url(#Áåçûìÿííûé_ãðàäèåíò_52-28);}.cls-64{fill:url(#Áåçûìÿííûé_ãðàäèåíò_52-29);}.cls-65{fill:url(#Áåçûìÿííûé_ãðàäèåíò_134);}.cls-66,.cls-99{fill:#d92242;}.cls-67{fill:url(#Áåçûìÿííûé_ãðàäèåíò_134-2);}.cls-68{fill:url(#Áåçûìÿííûé_ãðàäèåíò_134-3);}.cls-69{fill:url(#Áåçûìÿííûé_ãðàäèåíò_134-4);}.cls-70{fill:url(#Áåçûìÿííûé_ãðàäèåíò_134-5);}.cls-71{fill:url(#Áåçûìÿííûé_ãðàäèåíò_134-6);}.cls-72{fill:url(#Áåçûìÿííûé_ãðàäèåíò_134-7);}.cls-73{fill:url(#Áåçûìÿííûé_ãðàäèåíò_134-8);}.cls-74{fill:url(#Áåçûìÿííûé_ãðàäèåíò_134-9);}.cls-75{fill:url(#Áåçûìÿííûé_ãðàäèåíò_134-10);}.cls-76{fill:url(#Áåçûìÿííûé_ãðàäèåíò_134-11);}.cls-77{fill:url(#Áåçûìÿííûé_ãðàäèåíò_134-12);}.cls-78{fill:url(#Áåçûìÿííûé_ãðàäèåíò_134-13);}.cls-79{fill:url(#Áåçûìÿííûé_ãðàäèåíò_52-30);}.cls-80,.cls-83,.cls-84{fill:#a4006d;}.cls-80{opacity:0.71;}.cls-81{fill:url(#Áåçûìÿííûé_ãðàäèåíò_52-31);}.cls-82{fill:url(#Áåçûìÿííûé_ãðàäèåíò_52-32);}.cls-85{fill:url(#Áåçûìÿííûé_ãðàäèåíò_52-33);}.cls-86{fill:url(#Áåçûìÿííûé_ãðàäèåíò_52-34);}.cls-87{fill:url(#Áåçûìÿííûé_ãðàäèåíò_52-35);}.cls-88{fill:url(#Áåçûìÿííûé_ãðàäèåíò_52-36);}.cls-89{fill:url(#Áåçûìÿííûé_ãðàäèåíò_52-37);}.cls-90{fill:url(#radial-gradient);}.cls-91{fill:url(#radial-gradient-2);}.cls-92{fill:url(#linear-gradient);}.cls-93{fill:url(#linear-gradient-2);}.cls-94{fill:url(#Áåçûìÿííûé_ãðàäèåíò_134-14);}.cls-95{fill:#ff4242;}.cls-96{fill:#1f0328;}.cls-97{fill:url(#Áåçûìÿííûé_ãðàäèåíò_55-4);}.cls-98{fill:url(#radial-gradient-3);}.cls-100{fill:#a93843;}.cls-101{fill:#962b2b;}.cls-102{fill:#ff8f4a;}.cls-103{mix-blend-mode:soft-light;}.cls-104{fill:#c5828c;}.cls-105{fill:url(#linear-gradient-3);}.cls-106{fill:url(#linear-gradient-4);}.cls-107{fill:#ff5029;}.cls-108{fill:url(#linear-gradient-5);}.cls-109{fill:url(#linear-gradient-6);}.cls-110{fill:url(#linear-gradient-7);}.cls-111,.cls-112,.cls-113,.cls-114,.cls-168,.cls-170,.cls-171,.cls-172{opacity:0.57;}.cls-111{fill:url(#Áåçûìÿííûé_ãðàäèåíò_188-2);}.cls-112{fill:url(#Áåçûìÿííûé_ãðàäèåíò_188-3);}.cls-113{fill:url(#Áåçûìÿííûé_ãðàäèåíò_188-4);}.cls-114{fill:url(#Áåçûìÿííûé_ãðàäèåíò_188-5);}.cls-115{fill:url(#Áåçûìÿííûé_ãðàäèåíò_47-6);}.cls-116{fill:url(#Áåçûìÿííûé_ãðàäèåíò_47-7);}.cls-117{fill:url(#Áåçûìÿííûé_ãðàäèåíò_47-8);}.cls-118{fill:url(#Áåçûìÿííûé_ãðàäèåíò_47-9);}.cls-119{fill:url(#Áåçûìÿííûé_ãðàäèåíò_47-10);}.cls-120{fill:url(#Áåçûìÿííûé_ãðàäèåíò_47-11);}.cls-121{fill:url(#Áåçûìÿííûé_ãðàäèåíò_47-12);}.cls-122{fill:url(#Áåçûìÿííûé_ãðàäèåíò_47-13);}.cls-123{fill:url(#Áåçûìÿííûé_ãðàäèåíò_47-14);}.cls-124{fill:url(#Áåçûìÿííûé_ãðàäèåíò_47-15);}.cls-125{fill:url(#Áåçûìÿííûé_ãðàäèåíò_47-16);}.cls-126{fill:url(#Áåçûìÿííûé_ãðàäèåíò_47-17);}.cls-127{fill:url(#Áåçûìÿííûé_ãðàäèåíò_47-18);}.cls-128{fill:url(#Áåçûìÿííûé_ãðàäèåíò_47-19);}.cls-129{fill:url(#Áåçûìÿííûé_ãðàäèåíò_47-20);}.cls-130{fill:url(#Áåçûìÿííûé_ãðàäèåíò_47-21);}.cls-131{fill:url(#radial-gradient-4);}.cls-132{fill:url(#radial-gradient-5);}.cls-133{fill:url(#linear-gradient-8);}.cls-134,.cls-135{fill:#fff;}.cls-136{fill:url(#Áåçûìÿííûé_ãðàäèåíò_52-38);}.cls-137{fill:url(#Áåçûìÿííûé_ãðàäèåíò_52-39);}.cls-138{fill:url(#Áåçûìÿííûé_ãðàäèåíò_52-40);}.cls-139{fill:url(#Áåçûìÿííûé_ãðàäèåíò_52-41);}.cls-140{fill:url(#Áåçûìÿííûé_ãðàäèåíò_52-42);}.cls-141{fill:url(#Áåçûìÿííûé_ãðàäèåíò_52-43);}.cls-142{fill:url(#Áåçûìÿííûé_ãðàäèåíò_52-44);}.cls-143{fill:url(#Áåçûìÿííûé_ãðàäèåíò_47-22);}.cls-144{fill:url(#Áåçûìÿííûé_ãðàäèåíò_55-5);}.cls-145{fill:url(#Áåçûìÿííûé_ãðàäèåíò_55-6);}.cls-146{fill:url(#Áåçûìÿííûé_ãðàäèåíò_55-7);}.cls-147{fill:url(#Áåçûìÿííûé_ãðàäèåíò_47-23);}.cls-148{fill:url(#Áåçûìÿííûé_ãðàäèåíò_47-24);}.cls-149{fill:url(#Áåçûìÿííûé_ãðàäèåíò_47-25);}.cls-150{fill:url(#Áåçûìÿííûé_ãðàäèåíò_47-26);}.cls-151{fill:url(#Áåçûìÿííûé_ãðàäèåíò_55-8);}.cls-152{fill:url(#Áåçûìÿííûé_ãðàäèåíò_55-9);}.cls-153{fill:url(#Áåçûìÿííûé_ãðàäèåíò_47-27);}.cls-154{fill:url(#Áåçûìÿííûé_ãðàäèåíò_47-28);}.cls-155{fill:url(#Áåçûìÿííûé_ãðàäèåíò_47-29);}.cls-156{fill:url(#Áåçûìÿííûé_ãðàäèåíò_47-30);}.cls-157{fill:url(#Áåçûìÿííûé_ãðàäèåíò_55-10);}.cls-158{fill:url(#Áåçûìÿííûé_ãðàäèåíò_55-11);}.cls-159{fill:url(#Áåçûìÿííûé_ãðàäèåíò_55-12);}.cls-160{fill:url(#Áåçûìÿííûé_ãðàäèåíò_55-13);}.cls-161{fill:url(#Áåçûìÿííûé_ãðàäèåíò_47-31);}.cls-162{fill:url(#Áåçûìÿííûé_ãðàäèåíò_55-14);}.cls-163{fill:url(#Áåçûìÿííûé_ãðàäèåíò_47-32);}.cls-164{fill:url(#Áåçûìÿííûé_ãðàäèåíò_47-33);}.cls-165{fill:url(#Áåçûìÿííûé_ãðàäèåíò_47-34);}.cls-166,.cls-167{opacity:0.53;}.cls-166{fill:url(#Áåçûìÿííûé_ãðàäèåíò_52-45);}.cls-167{fill:url(#Áåçûìÿííûé_ãðàäèåíò_52-46);}.cls-168{fill:url(#Áåçûìÿííûé_ãðàäèåíò_52-47);}.cls-169{fill:url(#Áåçûìÿííûé_ãðàäèåíò_52-48);}.cls-170{fill:url(#Áåçûìÿííûé_ãðàäèåíò_52-49);}.cls-171{fill:url(#Áåçûìÿííûé_ãðàäèåíò_52-50);}.cls-172{fill:url(#Áåçûìÿííûé_ãðàäèåíò_52-51);}.cls-173{opacity:0.76;fill:url(#Áåçûìÿííûé_ãðàäèåíò_58-2);}.cls-174{filter:url(#luminosity-noclip-4);}.cls-175{filter:url(#luminosity-noclip-3);}.cls-176{filter:url(#luminosity-noclip-2);}.cls-177{filter:url(#luminosity-noclip);}</style><filter id="luminosity-noclip" x="244.35249" y="-8327" width="155.7754" height="32766" filterUnits="userSpaceOnUse" color-interpolation-filters="sRGB"><feFlood flood-color="#fff" result="bg"/><feBlend in="SourceGraphic" in2="bg"/></filter><mask id="mask" x="244.35249" y="-8327" width="155.7754" height="32766" maskUnits="userSpaceOnUse"><g class="cls-177"/></mask><linearGradient id="Áåçûìÿííûé_ãðàäèåíò_190" x1="278.73844" y1="217.23741" x2="266.99384" y2="98.25858" gradientTransform="matrix(-1, 0, 0, 1, 600, 0)" gradientUnits="userSpaceOnUse"><stop offset="0" stop-color="#fff"/><stop offset="1" stop-color="#737373"/></linearGradient><filter id="luminosity-noclip-2" x="33.1008" y="-8327" width="119.1396" height="32766" filterUnits="userSpaceOnUse" color-interpolation-filters="sRGB"><feFlood flood-color="#fff" result="bg"/><feBlend in="SourceGraphic" in2="bg"/></filter><mask id="mask-2" x="33.1008" y="-8327" width="119.1396" height="32766" maskUnits="userSpaceOnUse"><g class="cls-176"/></mask><linearGradient id="Áåçûìÿííûé_ãðàäèåíò_189" x1="552.53552" y1="118.02597" x2="471.34405" y2="120.06852" xlink:href="#Áåçûìÿííûé_ãðàäèåíò_190"/><clipPath id="clip-path" transform="translate(42.266 95.4043)"><rect class="cls-5" width="600" height="270" transform="translate(600 270) rotate(180)"/></clipPath><linearGradient id="Áåçûìÿííûé_ãðàäèåíò_92" x1="104.27155" y1="16.11721" x2="105.48068" y2="288.2227" gradientTransform="matrix(-1, 0, 0, 1, 642.266, 95.4043)" gradientUnits="userSpaceOnUse"><stop offset="0" stop-color="#520c36"/><stop offset="0.51676" stop-color="#661d35"/><stop offset="1" stop-color="#36188c"/></linearGradient><linearGradient id="Áåçûìÿííûé_ãðàäèåíò_52" x1="49.4195" y1="207.72225" x2="103.7674" y2="207.72225" gradientTransform="translate(309.16639 95.4043)" gradientUnits="userSpaceOnUse"><stop offset="0" stop-color="#bb2630"/><stop offset="1" stop-color="#4f0069"/></linearGradient><linearGradient id="Áåçûìÿííûé_ãðàäèåíò_52-2" x1="-88.73" y1="178.43" x2="238.05" y2="178.43" gradientTransform="matrix(-1, 0, 0, 1, 642.266, 95.4043)" xlink:href="#Áåçûìÿííûé_ãðàäèåíò_52"/><linearGradient id="Áåçûìÿííûé_ãðàäèåíò_52-3" x1="366.48549" y1="224.44885" x2="432.78049" y2="224.44885" xlink:href="#Áåçûìÿííûé_ãðàäèåíò_52"/><linearGradient id="Áåçûìÿííûé_ãðàäèåíò_52-4" x1="201.00619" y1="13.55275" x2="243.36929" y2="13.55275" xlink:href="#Áåçûìÿííûé_ãðàäèåíò_52"/><linearGradient id="Áåçûìÿííûé_ãðàäèåíò_52-5" x1="300.96449" y1="112.7595" x2="358.12309" y2="112.7595" xlink:href="#Áåçûìÿííûé_ãðàäèåíò_52"/><linearGradient id="Áåçûìÿííûé_ãðàäèåíò_52-6" x1="91.55" y1="66.19" x2="217.37" y2="66.19" gradientTransform="matrix(-1, 0, 0, 1, 642.266, 95.4043)" xlink:href="#Áåçûìÿííûé_ãðàäèåíò_52"/><linearGradient id="Áåçûìÿííûé_ãðàäèåíò_52-7" x1="212.61089" y1="111.4144" x2="305.78629" y2="111.4144" xlink:href="#Áåçûìÿííûé_ãðàäèåíò_52"/><linearGradient id="Áåçûìÿííûé_ãðàäèåíò_45" x1="211.24394" y1="196.81601" x2="90.98848" y2="150.09253" gradientTransform="matrix(-1, 0, 0, 1, 642.266, 95.4043)" gradientUnits="userSpaceOnUse"><stop offset="0" stop-color="#ff2630"/><stop offset="1" stop-color="#4f0069"/></linearGradient><linearGradient id="Áåçûìÿííûé_ãðàäèåíò_92-2" x1="276.35853" y1="-72.80978" x2="278.03665" y2="304.83678" xlink:href="#Áåçûìÿííûé_ãðàäèåíò_92"/><linearGradient id="Áåçûìÿííûé_ãðàäèåíò_52-8" x1="209.94021" y1="178.97245" x2="230.59661" y2="178.97245" gradientTransform="matrix(-1, 0, 0, 1, 642.266, 95.4043)" xlink:href="#Áåçûìÿííûé_ãðàäèåíò_52"/><linearGradient id="Áåçûìÿííûé_ãðàäèåíò_52-9" x1="227.28491" y1="124.69959" x2="351.48621" y2="124.69959" gradientTransform="matrix(-1, 0, 0, 1, 642.266, 95.4043)" xlink:href="#Áåçûìÿííûé_ãðàäèåíò_52"/><linearGradient id="Áåçûìÿííûé_ãðàäèåíò_52-10" x1="330.45021" y1="209.96265" x2="355.64751" y2="209.96265" gradientTransform="matrix(-1, 0, 0, 1, 642.266, 95.4043)" xlink:href="#Áåçûìÿííûé_ãðàäèåíò_52"/><linearGradient id="Áåçûìÿííûé_ãðàäèåíò_52-11" x1="257.34461" y1="-65.8611" x2="289.01971" y2="-65.8611" gradientTransform="matrix(-1, 0, 0, 1, 642.266, 95.4043)" xlink:href="#Áåçûìÿííûé_ãðàäèåíò_52"/><linearGradient id="Áåçûìÿííûé_ãðàäèåíò_52-12" x1="305.54711" y1="3.03027" x2="327.27181" y2="3.03027" gradientTransform="matrix(-1, 0, 0, 1, 642.266, 95.4043)" xlink:href="#Áåçûìÿííûé_ãðàäèåíò_52"/><linearGradient id="Áåçûìÿííûé_ãðàäèåíò_52-13" x1="258.00731" y1="-21.07935" x2="288.32661" y2="-21.07935" gradientTransform="matrix(-1, 0, 0, 1, 642.266, 95.4043)" xlink:href="#Áåçûìÿííûé_ãðàäèåíò_52"/><linearGradient id="Áåçûìÿííûé_ãðàäèåíò_52-14" x1="271.96581" y1="0.53805" x2="307.37971" y2="0.53805" gradientTransform="matrix(-1, 0, 0, 1, 642.266, 95.4043)" xlink:href="#Áåçûìÿííûé_ãðàäèåíò_52"/><filter id="luminosity-noclip-3" x="244.35249" y="-95.4043" width="155.7754" height="336.2735" filterUnits="userSpaceOnUse" color-interpolation-filters="sRGB"><feFlood flood-color="#fff" result="bg"/><feBlend in="SourceGraphic" in2="bg"/></filter><mask id="mask-3" x="286.61849" y="0" width="155.7754" height="336.2735" maskUnits="userSpaceOnUse"><g class="cls-175"><g transform="translate(42.266 95.4043)"><g class="cls-1"><polygon class="cls-2" points="244.352 238.805 258.323 239.068 262.638 239.149 264.022 239.175 264.423 239.184 293.02 239.724 298.126 239.819 341.206 240.631 341.206 240.633 353.81 240.869 400.128 240.869 397.139 112.634 391.056 105.396 379.237 68.868 359.656 -48.253 326.961 -91.363 323.896 -95.404 310.98 -77.785 313.218 -63.375 273.343 -6.323 272.728 -5.445 260.287 12.357 251.777 133.304 248.514 179.694 248.431 180.857 248.429 180.857 244.352 238.805"/></g></g></g></mask><linearGradient id="Áåçûìÿííûé_ãðàäèåíò_160" x1="278.73844" y1="217.23741" x2="266.99384" y2="98.25858" xlink:href="#Áåçûìÿííûé_ãðàäèåíò_45"/><linearGradient id="Áåçûìÿííûé_ãðàäèåíò_92-3" x1="531.05137" y1="172.1761" x2="542.60057" y2="187.19006" xlink:href="#Áåçûìÿííûé_ãðàäèåíò_92"/><linearGradient id="Áåçûìÿííûé_ãðàäèåíò_92-4" x1="506.00722" y1="-51.41824" x2="507.62057" y2="311.65143" xlink:href="#Áåçûìÿííûé_ãðàäèåíò_92"/><linearGradient id="Áåçûìÿííûé_ãðàäèåíò_52-15" x1="470.20784" y1="42.35219" x2="475.77164" y2="25.66074" gradientTransform="matrix(-1, 0, 0, 1, 642.266, 95.4043)" xlink:href="#Áåçûìÿííûé_ãðàäèåíò_52"/><linearGradient id="Áåçûìÿííûé_ãðàäèåíò_52-16" x1="428.647" y1="240.18091" x2="459.6204" y2="147.26044" gradientTransform="matrix(-1, 0, 0, 1, 642.266, 95.4043)" xlink:href="#Áåçûìÿííûé_ãðàäèåíò_52"/><linearGradient id="Áåçûìÿííûé_ãðàäèåíò_52-17" x1="464.1632" y1="258.79858" x2="502.26031" y2="144.50692" gradientTransform="matrix(-1, 0, 0, 1, 642.266, 95.4043)" xlink:href="#Áåçûìÿííûé_ãðàäèåíò_52"/><linearGradient id="Áåçûìÿííûé_ãðàäèåíò_52-18" x1="495.26482" y1="252.64582" x2="497.17559" y2="246.91348" gradientTransform="matrix(-1, 0, 0, 1, 642.266, 95.4043)" xlink:href="#Áåçûìÿííûé_ãðàäèåíò_52"/><linearGradient id="Áåçûìÿííûé_ãðàäèåíò_52-19" x1="509.39572" y1="249.09755" x2="510.0311" y2="247.19139" gradientTransform="matrix(-1, 0, 0, 1, 642.266, 95.4043)" xlink:href="#Áåçûìÿííûé_ãðàäèåíò_52"/><linearGradient id="Áåçûìÿííûé_ãðàäèåíò_52-20" x1="514.62239" y1="259.83945" x2="539.2321" y2="186.01012" gradientTransform="matrix(-1, 0, 0, 1, 642.266, 95.4043)" xlink:href="#Áåçûìÿííûé_ãðàäèåíò_52"/><linearGradient id="Áåçûìÿííûé_ãðàäèåíò_52-21" x1="498.27428" y1="261.29098" x2="530.41345" y2="164.87319" gradientTransform="matrix(-1, 0, 0, 1, 642.266, 95.4043)" xlink:href="#Áåçûìÿííûé_ãðàäèåíò_52"/><linearGradient id="Áåçûìÿííûé_ãðàäèåíò_52-22" x1="468.63905" y1="260.59605" x2="506.81583" y2="146.06539" gradientTransform="matrix(-1, 0, 0, 1, 642.266, 95.4043)" xlink:href="#Áåçûìÿííûé_ãðàäèåíò_52"/><linearGradient id="Áåçûìÿííûé_ãðàäèåíò_52-23" x1="470.62299" y1="261.25714" x2="508.79969" y2="146.7267" gradientTransform="matrix(-1, 0, 0, 1, 642.266, 95.4043)" xlink:href="#Áåçûìÿííûé_ãðàäèåíò_52"/><linearGradient id="Áåçûìÿííûé_ãðàäèåíò_52-24" x1="461.97004" y1="258.3366" x2="500.14025" y2="143.82564" gradientTransform="matrix(-1, 0, 0, 1, 642.266, 95.4043)" xlink:href="#Áåçûìÿííûé_ãðàäèåíò_52"/><filter id="luminosity-noclip-4" x="33.1008" y="-12.4255" width="119.1396" height="263.8938" filterUnits="userSpaceOnUse" color-interpolation-filters="sRGB"><feFlood flood-color="#fff" result="bg"/><feBlend in="SourceGraphic" in2="bg"/></filter><mask id="mask-4" x="75.3668" y="82.9788" width="119.1396" height="263.8938" maskUnits="userSpaceOnUse"><g class="cls-174"><g transform="translate(42.266 95.4043)"><g class="cls-3"><polygon class="cls-4" points="33.101 247.194 51.873 246.856 52.166 249.5 88.143 247.502 88.112 248.286 92.156 248.286 92.217 247.271 100.443 246.81 100.443 249.5 105.609 251.468 105.931 246.502 122.459 245.58 122.475 245.58 149.796 245.088 152.24 245.057 143.431 131.099 140.602 62.65 141.124 52.933 141.785 40.879 139.956 38.696 115.694 9.73 115.694 -4.723 108.207 -12.426 104.44 53.655 81.685 85.512 70.508 101.164 70.308 102.501 66.126 130.391 73.46 142.138 89.942 146.858 106.008 150.978 106.008 152.147 44.37 145.628 42.91 158.773 42.772 158.712 42.772 159.265 42.848 159.296 33.101 247.194"/></g></g></g></mask><linearGradient id="Áåçûìÿííûé_ãðàäèåíò_160-2" x1="552.53552" y1="118.02597" x2="471.34405" y2="120.06852" xlink:href="#Áåçûìÿííûé_ãðàäèåíò_45"/><linearGradient id="Áåçûìÿííûé_ãðàäèåíò_188" x1="274.87289" y1="238.62823" x2="271.2984" y2="172.24522" gradientTransform="matrix(-1, 0, 0, 1, 600, 0)" gradientUnits="userSpaceOnUse"><stop offset="0" stop-color="#ff3800"/><stop offset="0.12167" stop-color="#d12e00"/><stop offset="0.30252" stop-color="#922000"/><stop offset="0.47587" stop-color="#5e1500"/><stop offset="0.63685" stop-color="#350c00"/><stop offset="0.78275" stop-color="#180500"/><stop offset="0.9086" stop-color="#060100"/><stop offset="1"/></linearGradient><linearGradient id="Áåçûìÿííûé_ãðàäèåíò_58" x1="303.64894" y1="221.76056" x2="303.64894" y2="8.11433" gradientTransform="matrix(-1, 0, 0, 1, 642.266, 95.4043)" gradientUnits="userSpaceOnUse"><stop offset="0.00813" stop-color="#fff"/><stop offset="1" stop-color="#4f0069"/></linearGradient><linearGradient id="Áåçûìÿííûé_ãðàäèåíò_158" x1="280.87386" y1="115.70307" x2="282.92857" y2="234.36669" gradientTransform="matrix(-1, 0, 0, 1, 642.266, 95.4043)" gradientUnits="userSpaceOnUse"><stop offset="0"/><stop offset="0.35771" stop-color="#020002"/><stop offset="0.53196" stop-color="#07000a"/><stop offset="0.66654" stop-color="#110017"/><stop offset="0.78077" stop-color="#1f0029"/><stop offset="0.88214" stop-color="#310042"/><stop offset="0.97302" stop-color="#47005f"/><stop offset="1" stop-color="#4f0069"/></linearGradient><linearGradient id="Áåçûìÿííûé_ãðàäèåíò_55" x1="293.15217" y1="221.12936" x2="294.79867" y2="308.39575" gradientTransform="matrix(-1, 0, 0, 1, 642.266, 95.4043)" gradientUnits="userSpaceOnUse"><stop offset="0" stop-color="#ffab00"/><stop offset="0.99441" stop-color="#ff0c00"/></linearGradient><linearGradient id="Áåçûìÿííûé_ãðàäèåíò_47" x1="289.38596" y1="304.09779" x2="273.40066" y2="230.01199" gradientTransform="matrix(-1, 0, 0, 1, 600, 0)" gradientUnits="userSpaceOnUse"><stop offset="0" stop-color="#ffbd00"/><stop offset="0.23226" stop-color="#ffc200"/><stop offset="0.49165" stop-color="#ffcf00"/><stop offset="0.76303" stop-color="#ffe500"/><stop offset="1" stop-color="#ff0"/></linearGradient><linearGradient id="Áåçûìÿííûé_ãðàäèåíò_47-2" x1="452.92846" y1="277.51941" x2="441.08092" y2="222.61054" xlink:href="#Áåçûìÿííûé_ãðàäèåíò_47"/><linearGradient id="Áåçûìÿííûé_ãðàäèåíò_47-3" x1="501.41692" y1="268.91321" x2="483.64244" y2="186.53526" xlink:href="#Áåçûìÿííûé_ãðàäèåíò_47"/><linearGradient id="Áåçûìÿííûé_ãðàäèåíò_55-2" x1="196.35977" y1="162.00069" x2="176.61517" y2="297.74473" gradientTransform="matrix(-1, 0, 0, 1, 600, 0)" xlink:href="#Áåçûìÿííûé_ãðàäèåíò_55"/><linearGradient id="Áåçûìÿííûé_ãðàäèåíò_47-4" x1="273.70506" y1="265.44673" x2="273.86856" y2="254.98247" xlink:href="#Áåçûìÿííûé_ãðàäèåíò_47"/><linearGradient id="Áåçûìÿííûé_ãðàäèåíò_47-5" x1="295.7216" y1="229.32971" x2="295.7216" y2="271.71329" xlink:href="#Áåçûìÿííûé_ãðàäèåíò_47"/><linearGradient id="Áåçûìÿííûé_ãðàäèåíò_52-25" x1="402.6778" y1="268.36977" x2="403.46638" y2="293.99859" gradientTransform="matrix(-1, 0, 0, 1, 642.266, 95.4043)" xlink:href="#Áåçûìÿííûé_ãðàäèåíò_52"/><linearGradient id="Áåçûìÿííûé_ãðàäèåíò_16" x1="514.89996" y1="149.35846" x2="486.3042" y2="137.35846" gradientTransform="matrix(-1, 0, 0, 1, 642.266, 95.4043)" gradientUnits="userSpaceOnUse"><stop offset="0" stop-color="#d1295c"/><stop offset="1" stop-color="#45003d"/></linearGradient><linearGradient id="Áåçûìÿííûé_ãðàäèåíò_16-2" x1="516.18746" y1="39.95344" x2="552.44275" y2="3.69815" xlink:href="#Áåçûìÿííûé_ãðàäèåíò_16"/><linearGradient id="Áåçûìÿííûé_ãðàäèåíò_92-5" x1="573.04251" y1="5.34772" x2="571.51054" y2="290.79473" xlink:href="#Áåçûìÿííûé_ãðàäèåíò_92"/><linearGradient id="Áåçûìÿííûé_ãðàäèåíò_55-3" x1="535.7113" y1="-11.43266" x2="485.93867" y2="234.76449" xlink:href="#Áåçûìÿííûé_ãðàäèåíò_55"/><linearGradient id="Áåçûìÿííûé_ãðàäèåíò_92-6" x1="541.3876" y1="-22.5031" x2="514.0938" y2="73.72867" xlink:href="#Áåçûìÿííûé_ãðàäèåíò_92"/><linearGradient id="Áåçûìÿííûé_ãðàäèåíò_52-26" x1="551.53405" y1="-24.84896" x2="544.89576" y2="-2.89154" gradientTransform="matrix(-1, 0, 0, 1, 642.266, 95.4043)" xlink:href="#Áåçûìÿííûé_ãðàäèåíò_52"/><linearGradient id="Áåçûìÿííûé_ãðàäèåíò_52-27" x1="490.01484" y1="24.46375" x2="485.69809" y2="39.68362" gradientTransform="matrix(-1, 0, 0, 1, 642.266, 95.4043)" xlink:href="#Áåçûìÿííûé_ãðàäèåíò_52"/><linearGradient id="Áåçûìÿííûé_ãðàäèåíò_52-28" x1="466.08286" y1="9.94199" x2="459.17229" y2="34.30707" gradientTransform="matrix(-1, 0, 0, 1, 642.266, 95.4043)" xlink:href="#Áåçûìÿííûé_ãðàäèåíò_52"/><linearGradient id="Áåçûìÿííûé_ãðàäèåíò_52-29" x1="470.48354" y1="10.41329" x2="467.04221" y2="22.54665" gradientTransform="matrix(-1, 0, 0, 1, 642.266, 95.4043)" xlink:href="#Áåçûìÿííûé_ãðàäèåíò_52"/><linearGradient id="Áåçûìÿííûé_ãðàäèåíò_134" x1="400.89251" y1="106.18976" x2="402.25418" y2="155.21099" gradientTransform="matrix(-1, 0, 0, 1, 600, 0)" gradientUnits="userSpaceOnUse"><stop offset="0" stop-color="#7a2228"/><stop offset="1" stop-color="#1f0328"/></linearGradient><linearGradient id="Áåçûìÿííûé_ãðàäèåíò_134-2" x1="401.685" y1="239.85" x2="401.685" y2="134.72" xlink:href="#Áåçûìÿííûé_ãðàäèåíò_134"/><linearGradient id="Áåçûìÿííûé_ãðàäèåíò_134-3" x1="401.50092" y1="247.46462" x2="402.03968" y2="211.10037" xlink:href="#Áåçûìÿííûé_ãðàäèåíò_134"/><linearGradient id="Áåçûìÿííûé_ãðàäèåíò_134-4" x1="399.63177" y1="183.68056" x2="403.78265" y2="240.91865" gradientTransform="matrix(-1, 0, 0, 1, 642.266, 95.4043)" xlink:href="#Áåçûìÿííûé_ãðàäèåíò_134"/><linearGradient id="Áåçûìÿííûé_ãðàäèåíò_134-5" x1="398.73281" y1="121.89209" x2="404.77881" y2="205.26283" gradientTransform="matrix(-1, 0, 0, 1, 642.266, 95.4043)" xlink:href="#Áåçûìÿííûé_ãðàäèåíò_134"/><linearGradient id="Áåçûìÿííûé_ãðàäèåíò_134-6" x1="387.76147" y1="160.54544" x2="387.04416" y2="184.64745" gradientTransform="matrix(-1, 0, 0, 1, 642.266, 95.4043)" xlink:href="#Áåçûìÿííûé_ãðàäèåíò_134"/><linearGradient id="Áåçûìÿííûé_ãðàäèåíò_134-7" x1="410.01238" y1="161.2577" x2="409.29692" y2="185.29753" gradientTransform="matrix(-1, 0, 0, 1, 642.266, 95.4043)" xlink:href="#Áåçûìÿííûé_ãðàäèåíò_134"/><linearGradient id="Áåçûìÿííûé_ãðàäèåíò_134-8" x1="335.96447" y1="20.52033" x2="354.57078" y2="277.08996" xlink:href="#Áåçûìÿííûé_ãðàäèåíò_134"/><linearGradient id="Áåçûìÿííûé_ãðàäèåíò_134-9" x1="407.25791" y1="156.80454" x2="416.88079" y2="289.49822" gradientTransform="matrix(-1, 0, 0, 1, 642.266, 95.4043)" xlink:href="#Áåçûìÿííûé_ãðàäèåíò_134"/><linearGradient id="Áåçûìÿííûé_ãðàäèåíò_134-10" x1="407.62255" y1="207.70683" x2="408.77765" y2="223.63489" gradientTransform="matrix(-1, 0, 0, 1, 642.266, 95.4043)" xlink:href="#Áåçûìÿííûé_ãðàäèåíò_134"/><linearGradient id="Áåçûìÿííûé_ãðàäèåíò_134-11" x1="401.87593" y1="83.30811" x2="411.55321" y2="216.752" gradientTransform="matrix(-1, 0, 0, 1, 642.266, 95.4043)" xlink:href="#Áåçûìÿííûé_ãðàäèåíò_134"/><linearGradient id="Áåçûìÿííûé_ãðàäèåíò_134-12" x1="427.52586" y1="66.41572" x2="439.99188" y2="238.31463" gradientTransform="matrix(-1, 0, 0, 1, 642.266, 95.4043)" xlink:href="#Áåçûìÿííûé_ãðàäèåíò_134"/><linearGradient id="Áåçûìÿííûé_ãðàäèåíò_134-13" x1="462.06906" y1="74.76246" x2="472.1492" y2="213.76144" xlink:href="#Áåçûìÿííûé_ãðàäèåíò_134"/><linearGradient id="Áåçûìÿííûé_ãðàäèåíò_52-30" x1="420.42871" y1="101.80895" x2="394.8054" y2="140.13711" gradientTransform="matrix(-1, 0, 0, 1, 600, 0)" xlink:href="#Áåçûìÿííûé_ãðàäèåíò_52"/><linearGradient id="Áåçûìÿííûé_ãðàäèåíò_52-31" x1="454.4817" y1="177.36672" x2="483.25065" y2="3.36139" gradientTransform="matrix(-1, 0, 0, 1, 642.266, 95.4043)" xlink:href="#Áåçûìÿííûé_ãðàäèåíò_52"/><linearGradient id="Áåçûìÿííûé_ãðàäèåíò_52-32" x1="378.72053" y1="186.31452" x2="384.83774" y2="149.31536" gradientTransform="matrix(-1, 0, 0, 1, 642.266, 95.4043)" xlink:href="#Áåçûìÿííûé_ãðàäèåíò_52"/><linearGradient id="Áåçûìÿííûé_ãðàäèåíò_52-33" x1="409.08278" y1="94.25186" x2="383.54236" y2="132.45602" gradientTransform="matrix(-1, 0, 0, 1, 600, 0)" xlink:href="#Áåçûìÿííûé_ãðàäèåíò_52"/><linearGradient id="Áåçûìÿííûé_ãðàäèåíò_52-34" x1="403.15326" y1="211.18301" x2="402.29851" y2="166.52058" gradientTransform="matrix(-1, 0, 0, 1, 600, 0)" xlink:href="#Áåçûìÿííûé_ãðàäèåíò_52"/><linearGradient id="Áåçûìÿííûé_ãðàäèåíò_52-35" x1="402.54027" y1="221.75921" x2="400.8374" y2="251.77256" gradientTransform="matrix(-1, 0, 0, 1, 600, 0)" xlink:href="#Áåçûìÿííûé_ãðàäèåíò_52"/><linearGradient id="Áåçûìÿííûé_ãðàäèåíò_52-36" x1="341.38888" y1="232.42573" x2="340.33238" y2="251.04683" gradientTransform="matrix(-1, 0, 0, 1, 642.266, 95.4043)" xlink:href="#Áåçûìÿííûé_ãðàäèåíò_52"/><linearGradient id="Áåçûìÿííûé_ãðàäèåíò_52-37" x1="347.89184" y1="232.06147" x2="346.74838" y2="252.21515" gradientTransform="matrix(-1, 0, 0, 1, 642.266, 95.4043)" xlink:href="#Áåçûìÿííûé_ãðàäèåíò_52"/><radialGradient id="radial-gradient" cx="403.63387" cy="85.1522" r="69.73759" gradientTransform="matrix(-0.00006, -1.24772, -1.21336, 0.00006, 300.67891, 581.98711)" gradientUnits="userSpaceOnUse"><stop offset="0" stop-color="#f77300"/><stop offset="0.00809" stop-color="#f47200"/><stop offset="0.22553" stop-color="#ab5000"/><stop offset="0.42988" stop-color="#6e3300"/><stop offset="0.61514" stop-color="#3f1d00"/><stop offset="0.7778" stop-color="#1c0d00"/><stop offset="0.91162" stop-color="#080400"/><stop offset="1"/></radialGradient><radialGradient id="radial-gradient-2" cx="403.63387" cy="85.15218" r="51.13077" gradientTransform="matrix(-0.00004, -1.24772, -1.21336, 0.00004, 300.66957, 581.98901)" gradientUnits="userSpaceOnUse"><stop offset="0" stop-color="#f70000"/><stop offset="0.00809" stop-color="#f40000"/><stop offset="0.22553" stop-color="#ab0000"/><stop offset="0.42988" stop-color="#6e0000"/><stop offset="0.61514" stop-color="#3f0000"/><stop offset="0.7778" stop-color="#1c0000"/><stop offset="0.91162" stop-color="#080000"/><stop offset="1"/></radialGradient><linearGradient id="linear-gradient" x1="362.05655" y1="80.65222" x2="443.63884" y2="80.65222" gradientTransform="matrix(-0.9983, -0.0583, -0.0583, 0.9983, 603.9208, 23.54939)" gradientUnits="userSpaceOnUse"><stop offset="0" stop-color="#ffbd00"/><stop offset="0.2899" stop-color="#ffb800"/><stop offset="0.61361" stop-color="#ffab00"/><stop offset="0.95248" stop-color="#ff9500"/><stop offset="1" stop-color="#ff9100"/></linearGradient><linearGradient id="linear-gradient-2" x1="431.48397" y1="140.94628" x2="431.48397" y2="25.45863" gradientTransform="matrix(-0.9983, -0.0583, -0.0583, 0.9983, 646.1868, 118.95369)" gradientUnits="userSpaceOnUse"><stop offset="0" stop-color="#4f1235"/><stop offset="1" stop-color="#2e0918"/></linearGradient><linearGradient id="Áåçûìÿííûé_ãðàäèåíò_134-14" x1="356.50643" y1="140.87529" x2="356.50643" y2="22.40194" gradientTransform="translate(-108.8815 74.8003) rotate(3.34224)" xlink:href="#Áåçûìÿííûé_ãðàäèåíò_134"/><linearGradient id="Áåçûìÿííûé_ãðàäèåíò_55-4" x1="355.01466" y1="137.35378" x2="355.01466" y2="39.28797" gradientTransform="translate(-108.8815 74.8003) rotate(3.34224)" xlink:href="#Áåçûìÿííûé_ãðàäèåíò_55"/><radialGradient id="radial-gradient-3" cx="353.66992" cy="-4403.8518" r="30.20082" gradientTransform="matrix(0.9983, 0.0583, -0.1301, 2.2276, -687.3023, 9978.0411)" gradientUnits="userSpaceOnUse"><stop offset="0"/><stop offset="0.19805" stop-color="#030201"/><stop offset="0.33222" stop-color="#0c0a02"/><stop offset="0.44757" stop-color="#1b1606"/><stop offset="0.55223" stop-color="#31280a"/><stop offset="0.64973" stop-color="#4c3f10"/><stop offset="0.74189" stop-color="#6f5c17"/><stop offset="0.82987" stop-color="#977d20"/><stop offset="0.9145" stop-color="#c7a42a"/><stop offset="0.9938" stop-color="#fbcf35"/><stop offset="1" stop-color="#ffd336"/></radialGradient><linearGradient id="linear-gradient-3" x1="384.32008" y1="134.83863" x2="384.32008" y2="129.24866" gradientTransform="matrix(-0.9983, -0.0583, -0.0583, 0.9983, 646.1868, 118.95369)" gradientUnits="userSpaceOnUse"><stop offset="0" stop-color="#681134"/><stop offset="1" stop-color="#4a1733"/></linearGradient><linearGradient id="linear-gradient-4" x1="363.30505" y1="136.98376" x2="363.30505" y2="131.45661" xlink:href="#linear-gradient-3"/><linearGradient id="linear-gradient-5" x1="367.92547" y1="120.8995" x2="367.92547" y2="114.43162" xlink:href="#linear-gradient-3"/><linearGradient id="linear-gradient-6" x1="429.90424" y1="136.24375" x2="429.90424" y2="132.57138" xlink:href="#linear-gradient-3"/><linearGradient id="linear-gradient-7" x1="400.6831" y1="127.74023" x2="400.6831" y2="80.71181" gradientTransform="matrix(-0.9983, -0.0583, -0.0583, 0.9983, 646.1868, 118.95369)" gradientUnits="userSpaceOnUse"><stop offset="0" stop-color="#ff8000"/><stop offset="0.99441" stop-color="#ff0c00"/></linearGradient><linearGradient id="Áåçûìÿííûé_ãðàäèåíò_188-2" x1="395.99889" y1="102.20584" x2="404.5379" y2="102.20584" gradientTransform="matrix(-0.9983, -0.0583, -0.0583, 0.9983, 646.1868, 118.95369)" xlink:href="#Áåçûìÿííûé_ãðàäèåíò_188"/><linearGradient id="Áåçûìÿííûé_ãðàäèåíò_188-3" x1="403.80926" y1="105.74193" x2="405.22555" y2="105.74193" gradientTransform="matrix(-0.9983, -0.0583, -0.0583, 0.9983, 646.1868, 118.95369)" xlink:href="#Áåçûìÿííûé_ãðàäèåíò_188"/><linearGradient id="Áåçûìÿííûé_ãðàäèåíò_188-4" x1="409.18486" y1="100.32269" x2="415.35287" y2="100.32269" gradientTransform="matrix(-0.9983, -0.0583, -0.0583, 0.9983, 646.1868, 118.95369)" xlink:href="#Áåçûìÿííûé_ãðàäèåíò_188"/><linearGradient id="Áåçûìÿííûé_ãðàäèåíò_188-5" x1="391.80355" y1="94.24238" x2="394.90444" y2="94.24238" gradientTransform="matrix(-0.9983, -0.0583, -0.0583, 0.9983, 646.1868, 118.95369)" xlink:href="#Áåçûìÿííûé_ãðàäèåíò_188"/><linearGradient id="Áåçûìÿííûé_ãðàäèåíò_47-6" x1="382.91089" y1="95.90792" x2="395.34316" y2="95.90792" gradientTransform="matrix(-0.9983, -0.0583, -0.0583, 0.9983, 646.1868, 118.95369)" xlink:href="#Áåçûìÿííûé_ãðàäèåíò_47"/><linearGradient id="Áåçûìÿííûé_ãðàäèåíò_47-7" x1="386.62208" y1="103.11304" x2="390.50426" y2="103.11304" gradientTransform="matrix(-0.9983, -0.0583, -0.0583, 0.9983, 646.1868, 118.95369)" xlink:href="#Áåçûìÿííûé_ãðàäèåíò_47"/><linearGradient id="Áåçûìÿííûé_ãðàäèåíò_47-8" x1="398.24717" y1="108.22901" x2="414.35526" y2="108.22901" gradientTransform="matrix(-0.9983, -0.0583, -0.0583, 0.9983, 646.1868, 118.95369)" xlink:href="#Áåçûìÿííûé_ãðàäèåíò_47"/><linearGradient id="Áåçûìÿííûé_ãðàäèåíò_47-9" x1="401.24155" y1="114.40508" x2="409.18495" y2="114.40508" gradientTransform="matrix(-0.9983, -0.0583, -0.0583, 0.9983, 646.1868, 118.95369)" xlink:href="#Áåçûìÿííûé_ãðàäèåíò_47"/><linearGradient id="Áåçûìÿííûé_ãðàäèåíò_47-10" x1="395.99889" y1="99.14257" x2="404.5379" y2="99.14257" gradientTransform="matrix(-0.9983, -0.0583, -0.0583, 0.9983, 646.1868, 118.95369)" xlink:href="#Áåçûìÿííûé_ãðàäèåíò_47"/><linearGradient id="Áåçûìÿííûé_ãðàäèåíò_47-11" x1="397.30898" y1="100.4096" x2="398.68916" y2="100.4096" gradientTransform="matrix(-0.9983, -0.0583, -0.0583, 0.9983, 646.1868, 118.95369)" xlink:href="#Áåçûìÿííûé_ãðàäèåíò_47"/><linearGradient id="Áåçûìÿííûé_ãðàäèåíò_47-12" x1="397.68252" y1="104.46165" x2="399.85129" y2="104.46165" gradientTransform="matrix(-0.9983, -0.0583, -0.0583, 0.9983, 646.1868, 118.95369)" xlink:href="#Áåçûìÿííûé_ãðàäèåíò_47"/><linearGradient id="Áåçûìÿííûé_ãðàäèåíò_47-13" x1="410.77601" y1="97.83574" x2="415.35287" y2="97.83574" gradientTransform="matrix(-0.9983, -0.0583, -0.0583, 0.9983, 646.1868, 118.95369)" xlink:href="#Áåçûìÿííûé_ãðàäèåíò_47"/><linearGradient id="Áåçûìÿííûé_ãðàäèåíò_47-14" x1="411.97285" y1="99.87582" x2="414.3553" y2="99.87582" gradientTransform="matrix(-0.9983, -0.0583, -0.0583, 0.9983, 646.1868, 118.95369)" xlink:href="#Áåçûìÿííûé_ãðàäèåíò_47"/><linearGradient id="Áåçûìÿííûé_ãðàäèåíò_47-15" x1="403.04037" y1="116.78387" x2="405.60894" y2="116.78387" gradientTransform="matrix(-0.9983, -0.0583, -0.0583, 0.9983, 646.1868, 118.95369)" xlink:href="#Áåçûìÿííûé_ãðàäèåíò_47"/><linearGradient id="Áåçûìÿííûé_ãðàäèåíò_47-16" x1="389.89261" y1="122.74158" x2="413.46306" y2="122.74158" gradientTransform="matrix(-0.9983, -0.0583, -0.0583, 0.9983, 646.1868, 118.95369)" xlink:href="#Áåçûìÿííûé_ãðàäèåíò_47"/><linearGradient id="Áåçûìÿííûé_ãðàäèåíò_47-17" x1="406.30131" y1="125.05136" x2="412.24634" y2="125.05136" gradientTransform="matrix(-0.9983, -0.0583, -0.0583, 0.9983, 646.1868, 118.95369)" xlink:href="#Áåçûìÿííûé_ãðàäèåíò_47"/><linearGradient id="Áåçûìÿííûé_ãðàäèåíò_47-18" x1="387.36508" y1="124.84507" x2="391.23271" y2="124.84507" gradientTransform="matrix(-0.9983, -0.0583, -0.0583, 0.9983, 646.1868, 118.95369)" xlink:href="#Áåçûìÿííûé_ãðàäèåíò_47"/><linearGradient id="Áåçûìÿííûé_ãðàäèåíò_47-19" x1="384.91225" y1="127.08574" x2="393.99427" y2="127.08574" gradientTransform="matrix(-0.9983, -0.0583, -0.0583, 0.9983, 646.1868, 118.95369)" xlink:href="#Áåçûìÿííûé_ãðàäèåíò_47"/><linearGradient id="Áåçûìÿííûé_ãðàäèåíò_47-20" x1="387.01595" y1="116.1046" x2="393.35411" y2="116.1046" gradientTransform="matrix(-0.9983, -0.0583, -0.0583, 0.9983, 646.1868, 118.95369)" xlink:href="#Áåçûìÿííûé_ãðàäèåíò_47"/><linearGradient id="Áåçûìÿííûé_ãðàäèåíò_47-21" x1="387.63347" y1="118.181" x2="389.45324" y2="118.181" gradientTransform="matrix(-0.9983, -0.0583, -0.0583, 0.9983, 646.1868, 118.95369)" xlink:href="#Áåçûìÿííûé_ãðàäèåíò_47"/><radialGradient id="radial-gradient-4" cx="397.0869" cy="91.7241" r="32.58551" gradientTransform="matrix(-0.9983, -0.0583, -0.0583, 0.9983, 646.1868, 118.95369)" gradientUnits="userSpaceOnUse"><stop offset="0"/><stop offset="0.1011" stop-color="#110d00"/><stop offset="0.30014" stop-color="#3c3000"/><stop offset="0.57805" stop-color="#816800"/><stop offset="0.92104" stop-color="#e0b400"/><stop offset="1" stop-color="#f7c600"/></radialGradient><radialGradient id="radial-gradient-5" cx="414.30554" cy="88.27368" r="34.45188" xlink:href="#radial-gradient-4"/><linearGradient id="linear-gradient-8" x1="412.24638" y1="137.85048" x2="412.24638" y2="133.5771" xlink:href="#linear-gradient-3"/><linearGradient id="Áåçûìÿííûé_ãðàäèåíò_52-38" x1="400.59071" y1="35.53112" x2="400.59951" y2="36.4339" gradientTransform="matrix(-1, 0, 0, 1, 600, 0)" xlink:href="#Áåçûìÿííûé_ãðàäèåíò_52"/><linearGradient id="Áåçûìÿííûé_ãðàäèåíò_52-39" x1="400.61981" y1="40.36366" x2="400.65394" y2="43.86626" gradientTransform="matrix(-1, 0, 0, 1, 600, 0)" xlink:href="#Áåçûìÿííûé_ãðàäèåíò_52"/><linearGradient id="Áåçûìÿííûé_ãðàäèåíò_52-40" x1="401.02708" y1="39.57858" x2="401.03392" y2="40.28123" gradientTransform="matrix(-1, 0, 0, 1, 600, 0)" xlink:href="#Áåçûìÿííûé_ãðàäèåíò_52"/><linearGradient id="Áåçûìÿííûé_ãðàäèåíò_52-41" x1="409.6731" y1="56.11459" x2="409.728" y2="61.74771" gradientTransform="matrix(-1, 0, 0, 1, 600, 0)" xlink:href="#Áåçûìÿííûé_ãðàäèåíò_52"/><linearGradient id="Áåçûìÿííûé_ãðàäèåíò_52-42" x1="411.67302" y1="37.96154" x2="411.67875" y2="38.54989" gradientTransform="matrix(-1, 0, 0, 1, 600, 0)" xlink:href="#Áåçûìÿííûé_ãðàäèåíò_52"/><linearGradient id="Áåçûìÿííûé_ãðàäèåíò_52-43" x1="412.46579" y1="54.32025" x2="412.47546" y2="55.31274" gradientTransform="matrix(-1, 0, 0, 1, 600, 0)" xlink:href="#Áåçûìÿííûé_ãðàäèåíò_52"/><linearGradient id="Áåçûìÿííûé_ãðàäèåíò_52-44" x1="412.5447" y1="39.72228" x2="412.55178" y2="40.44906" gradientTransform="matrix(-1, 0, 0, 1, 600, 0)" xlink:href="#Áåçûìÿííûé_ãðàäèåíò_52"/><linearGradient id="Áåçûìÿííûé_ãðàäèåíò_47-22" x1="373.17267" y1="126.92163" x2="375.15483" y2="154.25453" xlink:href="#Áåçûìÿííûé_ãðàäèåíò_47"/><linearGradient id="Áåçûìÿííûé_ãðàäèåíò_55-5" x1="447.87135" y1="-1.72324" x2="430.93096" y2="82.07135" gradientTransform="matrix(-1, 0, 0, 1, 600, 0)" xlink:href="#Áåçûìÿííûé_ãðàäèåíò_55"/><linearGradient id="Áåçûìÿííûé_ãðàäèåíò_55-6" x1="387.86209" y1="250.66651" x2="420.75405" y2="-10.31194" gradientTransform="matrix(-1, 0, 0, 1, 600, 0)" xlink:href="#Áåçûìÿííûé_ãðàäèåíò_55"/><linearGradient id="Áåçûìÿííûé_ãðàäèåíò_55-7" x1="392.73908" y1="251.2858" x2="425.63225" y2="-9.70218" gradientTransform="matrix(-1, 0, 0, 1, 600, 0)" xlink:href="#Áåçûìÿííûé_ãðàäèåíò_55"/><linearGradient id="Áåçûìÿííûé_ãðàäèåíò_47-23" x1="404.20235" y1="132.97728" x2="405.33409" y2="156.51735" xlink:href="#Áåçûìÿííûé_ãðàäèåíò_47"/><linearGradient id="Áåçûìÿííûé_ãðàäèåíò_47-24" x1="387.96819" y1="132.97648" x2="389.31629" y2="161.01678" xlink:href="#Áåçûìÿííûé_ãðàäèåíò_47"/><linearGradient id="Áåçûìÿííûé_ãðàäèåíò_47-25" x1="395.2624" y1="194.5997" x2="383.75868" y2="218.68561" xlink:href="#Áåçûìÿííûé_ãðàäèåíò_47"/><linearGradient id="Áåçûìÿííûé_ãðàäèåíò_47-26" x1="411.26424" y1="131.85643" x2="412.61234" y2="159.89676" xlink:href="#Áåçûìÿííûé_ãðàäèåíò_47"/><linearGradient id="Áåçûìÿííûé_ãðàäèåíò_55-8" x1="399.40618" y1="252.12681" x2="432.29981" y2="-8.86487" gradientTransform="matrix(-1, 0, 0, 1, 600, 0)" xlink:href="#Áåçûìÿííûé_ãðàäèåíò_55"/><linearGradient id="Áåçûìÿííûé_ãðàäèåíò_55-9" x1="400.62344" y1="252.28051" x2="433.51724" y2="-8.71248" gradientTransform="matrix(-1, 0, 0, 1, 600, 0)" xlink:href="#Áåçûìÿííûé_ãðàäèåíò_55"/><linearGradient id="Áåçûìÿííûé_ãðàäèåíò_47-27" x1="381.23889" y1="230.05249" x2="381.30801" y2="231.49025" xlink:href="#Áåçûìÿííûé_ãðàäèåíò_47"/><linearGradient id="Áåçûìÿííûé_ãðàäèåíò_47-28" x1="394.0815" y1="229.67208" x2="394.15335" y2="231.16641" xlink:href="#Áåçûìÿííûé_ãðàäèåíò_47"/><linearGradient id="Áåçûìÿííûé_ãðàäèåíò_47-29" x1="402.79087" y1="229.30037" x2="402.87092" y2="230.96533" xlink:href="#Áåçûìÿííûé_ãðàäèåíò_47"/><linearGradient id="Áåçûìÿííûé_ãðàäèåíò_47-30" x1="423.16736" y1="228.66401" x2="423.25879" y2="230.56568" xlink:href="#Áåçûìÿííûé_ãðàäèåíò_47"/><linearGradient id="Áåçûìÿííûé_ãðàäèåíò_55-10" x1="426.42586" y1="143.61987" x2="435.47471" y2="73.7844" gradientTransform="matrix(-1, 0, 0, 1, 600, 0)" xlink:href="#Áåçûìÿííûé_ãðàäèåíò_55"/><linearGradient id="Áåçûìÿííûé_ãðàäèåíò_55-11" x1="364.38026" y1="241.73934" x2="367.07641" y2="214.6878" gradientTransform="matrix(-1, 0, 0, 1, 600, 0)" xlink:href="#Áåçûìÿííûé_ãðàäèåíò_55"/><linearGradient id="Áåçûìÿííûé_ãðàäèåíò_55-12" x1="437.7648" y1="240.05463" x2="439.89716" y2="218.65977" gradientTransform="matrix(-1, 0, 0, 1, 600, 0)" xlink:href="#Áåçûìÿííûé_ãðàäèåíò_55"/><linearGradient id="Áåçûìÿííûé_ãðàäèåíò_55-13" x1="466.74912" y1="189.3879" x2="443.56178" y2="89.6287" gradientTransform="matrix(-1, 0, 0, 1, 600, 0)" xlink:href="#Áåçûìÿííûé_ãðàäèåíò_55"/><linearGradient id="Áåçûìÿííûé_ãðàäèåíò_47-31" x1="475.7695" y1="209.15233" x2="449.49693" y2="163.37774" xlink:href="#Áåçûìÿííûé_ãðàäèåíò_47"/><linearGradient id="Áåçûìÿííûé_ãðàäèåíò_55-14" x1="474.27718" y1="187.63849" x2="451.09009" y2="87.88035" gradientTransform="matrix(-1, 0, 0, 1, 600, 0)" xlink:href="#Áåçûìÿííûé_ãðàäèåíò_55"/><linearGradient id="Áåçûìÿííûé_ãðàäèåíò_47-32" x1="468.52245" y1="146.94954" x2="460.42576" y2="132.8427" xlink:href="#Áåçûìÿííûé_ãðàäèåíò_47"/><linearGradient id="Áåçûìÿííûé_ãðàäèåíò_47-33" x1="435.16841" y1="5.80254" x2="417.04613" y2="95.44326" xlink:href="#Áåçûìÿííûé_ãðàäèåíò_47"/><linearGradient id="Áåçûìÿííûé_ãðàäèåíò_47-34" x1="452.83085" y1="86.09602" x2="396.34834" y2="0.81847" xlink:href="#Áåçûìÿííûé_ãðàäèåíò_47"/><linearGradient id="Áåçûìÿííûé_ãðàäèåíò_52-45" x1="591.5559" y1="41.09051" x2="573.74058" y2="77.00852" gradientTransform="matrix(-1, 0, 0, 1, 642.266, 95.4043)" xlink:href="#Áåçûìÿííûé_ãðàäèåíò_52"/><linearGradient id="Áåçûìÿííûé_ãðàäèåíò_52-46" x1="579.55861" y1="31.96528" x2="572.30915" y2="46.58113" gradientTransform="matrix(-1, 0, 0, 1, 642.266, 95.4043)" xlink:href="#Áåçûìÿííûé_ãðàäèåíò_52"/><linearGradient id="Áåçûìÿííûé_ãðàäèåíò_52-47" x1="553.76897" y1="232.98145" x2="566.02426" y2="59.3644" gradientTransform="matrix(-1, 0, 0, 1, 642.266, 95.4043)" xlink:href="#Áåçûìÿííûé_ãðàäèåíò_52"/><linearGradient id="Áåçûìÿííûé_ãðàäèåíò_52-48" x1="571.14956" y1="237.49254" x2="570.96791" y2="237.85877" gradientTransform="matrix(-1, 0, 0, 1, 642.266, 95.4043)" xlink:href="#Áåçûìÿííûé_ãðàäèåíò_52"/><linearGradient id="Áåçûìÿííûé_ãðàäèåíò_52-49" x1="589.19661" y1="235.48226" x2="601.4519" y2="61.86525" gradientTransform="matrix(-1, 0, 0, 1, 642.266, 95.4043)" xlink:href="#Áåçûìÿííûé_ãðàäèåíò_52"/><linearGradient id="Áåçûìÿííûé_ãðàäèåíò_52-50" x1="550.8463" y1="232.77487" x2="563.10153" y2="59.15862" gradientTransform="matrix(-1, 0, 0, 1, 642.266, 95.4043)" xlink:href="#Áåçûìÿííûé_ãðàäèåíò_52"/><linearGradient id="Áåçûìÿííûé_ãðàäèåíò_52-51" x1="548.83815" y1="232.63272" x2="561.09337" y2="59.01659" gradientTransform="matrix(-1, 0, 0, 1, 642.266, 95.4043)" xlink:href="#Áåçûìÿííûé_ãðàäèåíò_52"/><linearGradient id="Áåçûìÿííûé_ãðàäèåíò_58-2" x1="526.58535" y1="47.83558" x2="554.6705" y2="89.19732" xlink:href="#Áåçûìÿííûé_ãðàäèåíò_58"/></defs><title>fundo</title><g class="cls-6"><g id="Ñëîé_1" data-name="Ñëîé 1"><g class="cls-7"><polygon class="cls-8" points="332.046 337.004 358.586 336.904 412.936 336.694 453.956 336.534 487.126 336.404 600.466 335.964 613.906 335.914 689.136 335.624 690.196 335.624 693.836 335.604 705.186 335.564 741.946 335.424 731.216 304.144 730.996 303.514 722.416 278.474 700.026 213.194 667.286 203.594 665.666 203.114 546.646 112.444 552.536 104.664 526.346 97.334 518.556 95.154 510.486 97.334 490.316 120.664 441.716 176.854 441.626 176.954 438.576 180.484 425.026 197.114 424.906 197.264 424.896 197.264 387.066 243.694 355.966 263.414 339.956 267.324 332.096 336.534 332.046 337.004"/><g class="cls-9"><polygon class="cls-10" points="404.218 269.35 412.934 271.426 412.934 336.693 358.586 336.903 399.216 269.35 404.218 269.35"/><polygon class="cls-11" points="404.216 247.614 435.986 268.024 453.956 336.534 456.386 336.524 442.716 257.954 495.136 261.704 480.846 336.424 487.126 336.404 501.616 284.654 594.996 278.764 600.466 335.964 613.906 335.914 619.406 311.664 643.566 312.624 669.256 335.424 672.836 334.984 623.426 289.904 621.056 276.834 634.346 276.704 689.136 335.624 690.196 335.624 693.836 335.604 669.256 308.544 730.996 303.514 722.416 278.474 694.186 214.044 618.866 213.214 610.136 213.114 610.126 213.114 603.666 213.044 522.556 212.144 519.366 212.114 488.276 211.764 488.266 211.764 430.796 211.134 429.136 213.404 518.286 217.444 512.156 234.124 422.506 222.514 404.216 247.614"/><polygon class="cls-12" points="741.947 335.421 705.19 335.563 675.652 309.05 731.215 304.144 731.221 304.144 741.947 335.421"/><polygon class="cls-13" points="544.173 113.697 510.173 104.218 552.536 104.667 544.173 113.697"/><polygon class="cls-14" points="667.289 203.589 618.869 213.212 610.131 213.116 610.137 213.115 665.671 203.115 667.289 203.589"/><polygon class="cls-15" points="424.896 197.264 424.906 197.264 483.386 205.914 517.396 205.914 521.886 196.734 550.716 117.274 490.316 120.664 478.246 134.804 495.306 136.084 474.546 196.684 442.116 177.094 441.716 176.854 441.626 176.954 474.136 197.294 469.436 202.464 426.306 195.614 425.026 197.114 424.896 197.264"/><polygon class="cls-16" points="521.777 214.045 528.098 198.702 614.953 208.628 598.839 214.936 521.777 214.045"/></g><polygon class="cls-17" points="741.947 335.421 705.19 335.563 693.837 335.606 690.195 335.62 689.14 335.625 613.902 335.916 600.467 335.968 487.123 336.406 487.123 336.407 453.961 336.535 332.096 336.535 339.96 267.321 355.964 263.415 387.062 243.699 438.579 180.484 510.49 97.339 518.553 95.158 552.536 104.667 546.649 112.445 665.671 203.115 667.289 203.589 700.024 213.198 722.413 278.478 730.998 303.516 731.215 304.144 731.221 304.144 741.947 335.421"/><polygon class="cls-18" points="286.618 334.21 300.589 334.473 304.904 334.553 306.288 334.58 306.689 334.588 335.286 335.128 340.392 335.224 383.472 336.035 396.076 336.273 411.669 336.568 432.326 336.956 442.414 337.145 442.394 336.273 439.405 208.038 433.322 200.801 421.503 164.272 401.922 47.152 369.227 4.041 366.162 0 363.2 4.041 353.246 17.619 355.484 32.029 315.609 89.081 314.994 89.959 302.553 107.761 294.043 228.708 290.78 275.098 290.697 276.261 286.618 334.21"/><g class="cls-9"><polygon class="cls-19" points="414.982 211.797 411.669 215.644 411.669 336.567 432.326 336.956 416.883 211.797 414.982 211.797"/><polygon class="cls-20" points="314.247 284.415 304.904 334.553 306.288 334.58 306.689 334.588 327.514 225.416 332.567 225.673 331.664 249.871 312.888 333.398 314.247 334.21 324.01 291.981 333.195 290.192 335.286 335.128 340.392 335.224 342.472 229.237 377.964 240.149 383.472 336.035 383.472 336.037 396.076 336.273 402.91 209.349 414.981 171.531 404.88 103.934 383.037 105.111 383.035 105.111 371.217 105.749 371.215 105.749 370.005 105.813 370.003 105.813 339.175 107.476 336.721 107.607 336.717 107.607 333.398 107.788 304.77 109.33 294.043 228.708 290.78 275.098 314.247 284.415"/><polygon class="cls-21" points="286.618 334.21 300.589 334.473 311.816 285.351 290.697 276.261 290.695 276.261 286.618 334.21"/><polygon class="cls-22" points="356.425 34.348 384.921 42.301 369.348 16.786 353.246 17.618 356.425 34.348"/><polygon class="cls-23" points="314.994 89.959 333.398 107.788 336.719 107.61 336.717 107.607 315.609 89.081 314.994 89.959"/><polygon class="cls-24" points="356.259 39.318 374.815 76.762 384.259 109.332 371.336 109.332 370.259 77.259 353.939 40.975 356.259 39.318"/><polygon class="cls-25" points="370.3 109.332 367.898 80.904 334.886 99.294 341.011 110.981 370.3 109.332"/></g><g class="cls-26"><polygon class="cls-27" points="286.618 334.21 300.589 334.473 304.904 334.553 306.288 334.58 306.689 334.588 335.286 335.128 340.392 335.224 383.472 336.035 383.472 336.037 396.076 336.273 442.394 336.273 439.405 208.038 433.322 200.801 421.503 164.272 401.922 47.152 369.227 4.041 366.162 0 353.246 17.619 355.484 32.029 315.609 89.081 314.994 89.959 302.553 107.761 294.043 228.708 290.78 275.098 290.697 276.261 290.695 276.261 286.618 334.21"/></g><polygon class="cls-28" points="108.392 225.796 115.726 237.542 132.208 242.262 148.274 246.383 154.163 247.889 158.053 248.889 160.144 249.427 158.053 248.474 154.24 246.736 108.392 225.796"/><polygon class="cls-29" points="75.367 342.598 94.139 342.26 94.877 342.245 130.455 341.599 134.56 341.538 142.709 341.384 148.228 341.292 164.725 340.984 164.741 340.984 192.062 340.492 194.506 340.461 185.697 226.503 182.868 158.054 183.39 148.337 184.051 136.283 182.222 134.1 157.96 105.134 157.96 90.682 150.473 82.979 146.706 149.06 123.951 180.917 112.774 196.568 112.574 197.906 108.392 225.796 148.274 245.891 148.274 247.551 86.636 241.032 85.176 254.178 85.114 254.7 75.367 342.598"/><g class="cls-30"><polygon class="cls-31" points="157.96 105.134 158.375 130.856 182.222 134.1 157.96 105.134"/><polygon class="cls-32" points="136.097 199.582 137.066 200.55 137.081 200.566 155.962 219.431 158.053 221.521 177.148 240.586 179.685 266.677 181.914 266.677 192.062 340.492 194.506 340.461 185.697 226.503 182.868 158.054 183.39 148.337 154.87 147.399 138.972 180.163 138.726 181.747 138.004 186.744 137.988 186.82 136.174 199.12 136.097 199.582"/><polygon class="cls-33" points="148.228 341.292 148.197 341.907 164.725 340.984 164.741 340.984 162.573 289.217 158.053 284.666 158.053 216.632 156.146 216.632 155.962 219.431 154.24 246.736 154.163 247.889 153.532 257.699 153.456 258.898 151.98 282.298 151.426 291 148.228 341.292"/><polygon class="cls-34" points="148.197 341.907 142.709 342.214 142.709 344.905 147.875 346.873 148.197 341.907"/><polygon class="cls-35" points="134.422 343.69 134.483 342.675 130.409 342.906 130.378 343.69 134.422 343.69"/><polygon class="cls-36" points="94.432 344.905 130.409 342.906 130.455 341.599 132.607 280.838 86.821 275.257 94.139 342.26 94.432 344.905"/><polygon class="cls-37" points="85.038 254.116 85.038 254.67 85.114 254.7 138.65 278.009 134.56 341.538 134.483 342.675 142.709 342.214 142.709 278.009 132.669 273.842 132.208 273.658 85.176 254.178 85.038 254.116"/><polygon class="cls-38" points="154.715 257.994 132.212 274.179 132.212 273.384 154.715 256.841 154.715 257.994"/><polygon class="cls-39" points="141.353 278.792 156.783 283.882 155.829 291.677 139.763 289.219 141.353 278.792"/><polygon class="cls-40" points="112.574 197.906 137.066 200.55 139.757 200.842 138.742 181.747 138.726 181.747 123.951 180.917 138.173 183.192 138.004 186.744 137.988 186.82 137.373 199.259 136.174 199.12 112.774 196.568 112.574 197.906"/></g><g class="cls-41"><polygon class="cls-42" points="75.367 342.598 94.139 342.26 94.432 344.905 130.409 342.906 130.378 343.69 134.422 343.69 134.483 342.675 142.709 342.214 142.709 344.905 147.875 346.873 148.197 341.907 164.725 340.984 164.741 340.984 192.062 340.492 194.506 340.461 185.697 226.503 182.868 158.054 183.39 148.337 184.051 136.283 182.222 134.1 157.96 105.134 157.96 90.682 150.473 82.979 146.706 149.06 123.951 180.917 112.774 196.568 112.574 197.906 108.392 225.796 115.726 237.542 132.208 242.262 148.274 246.383 148.274 247.551 86.636 241.032 85.176 254.178 85.038 254.116 85.038 254.67 85.114 254.7 75.367 342.598"/></g><g class="cls-43"><path class="cls-44" d="M116.71,191.03c-.96,3.5-16.8-3.74-17.83-5.65s-.65-4.39,13.93-6.37C120.45,177.98,117.66,187.53,116.71,191.03Zm12.33,3.1s-11.46-1.43-10.27-4.53c0,0,2.39-4.26,5.09-2.75C126.57,188.36,129.04,194.13,129.04,194.13Zm339.58.76c5.61-14.8,76.85-.51,76.85-.51s15.83,1.28,19.4,5.62C568.45,204.34,463,209.7,468.62,194.89Zm-16.85,17.88c8.19.7-30.39,11.23-32.17,7.66C417.81,216.85,419.09,209.96,451.77,212.77ZM331,207.15c6.89-2.81,80.68,3.83,80.68,3.83,15.58,2.04-10.98,20.42-35.23,13.28C352.19,217.11,324.11,209.96,331,207.15Zm-184.34-21.7c4.43-13.86,89.02-3.15,89.02-3.15s-16.51,2.04-44.25,3.15c-27.75,1.11-23.32,12-21.79,16.93,1.53,4.94-10.9,8.68-9.02,5.79C162.49,205.28,142.23,199.32,146.66,185.45ZM31.77,207.66l7.14,4.6s124.74,23.68,144.59,4.94c19.84-18.73,6.02-30.48,54.56-31.5,48.55-1.02,171.11,77.96,244.6,55.66,73.48-22.3,31.15-43.4,95.49-33.7s38.3-.51,38.3-.51-147.07-41.87-174.13-28.6c-27.06,13.28,53.62,26.56,4.08,31.15-49.53,4.6-264-57.19-340.59-42.89-76.6,14.3,64.84,37.89,50.04,42.38S31.77,207.66,31.77,207.66Z" transform="translate(42.266 95.4043)"/></g><polygon class="cls-45" points="42.266 331.149 642.266 327.83 642.266 95.404 34.968 95.404 42.266 331.149"/><polygon class="cls-46" points="664.048 329.386 52.766 330.996 64.33 329.617 668.415 183.83 664.048 329.386"/><polygon class="cls-47" points="14.549 362.755 681.889 365.125 672.839 329.965 39.619 329.965 35.729 335.055 14.549 362.755"/><path class="cls-48" d="M391.75329,244.6072c-58.8928,1.9319-115.3262-.5077-144.1222,0S78.4329,249.4098,56.5617,253.9088s311.00109,15.8161,311.00109,15.8161H-3.69478s95.90888-4.1958,91.39388-6.5696-39.6837-9.0202-39.2468-9.8115,105.0694-6.6465,105.2878-7.596,121.97169-2.6902,128.92049-2.8485,93.9465-2.3737,93.9465-2.3737l112.2727,2.532,153.50321-2.532,3.12688,2.532Z" transform="translate(42.266 95.4043)"/><path class="cls-49" d="M134.9155,264.8961s-19.9395-5.3805-21.6803-8.3873,83.2106-8.1857,80.8552-10.0074a7.489,7.489,0,0,0-4.2455-1.7952l-.4619-.0984s4.6958.8916,2.6725,1.8936-79.0972,6.7248-80.6797,9.5327,8.5203,7.5227,8.5203,7.5227Z" transform="translate(42.266 95.4043)"/><path class="cls-50" d="M91.7905,261.7311s-22.0055-4.1145-24.9674-7.4378,72.5115-6.5805,72.5115-6.5805l-54.3302.9889s-20.2728,2.875-19.4025,5.7762S88.39,261.7311,88.39,261.7311Z" transform="translate(42.266 95.4043)"/><path class="cls-51" d="M647.98758,248.7192s-153.26369,6.3876-210.93158,5.1896-249.4412.4744-250.9864,5.3352,202.43679,12.9316,202.43679,12.9316l262.58929-1.1869Z" transform="translate(42.266 95.4043)"/><path class="cls-52" d="M381.22339,248.7192s-73.7391-.0149-75.16739,0,39.57439,7.7007,37.58369,8.0706-69.90569-.4519-85.2248,1.4908,2.9362,8.3258,2.9362,8.3258l-24.19009.5106s6.35769-9.9052,17.125-10.1866,73.85269-.3928,75.015-1.8052-34.63081-6.1358-34.63081-7.0295,62.1702.6194,62.1702.6194l58.3412-.7653Z" transform="translate(42.266 95.4043)"/><path class="cls-53" d="M-6.53658,239.6507c50.75-.8001,223.8-3.4701,307.3-3.8001,98.5-.3899,314.33,2.9,314.33,2.9v-4.19h-617.74Z" transform="translate(42.266 95.4043)"/><polygon class="cls-54" points="147.166 329.362 147.166 335.254 333.947 335.254 333.947 330.344 315.132 330.344 315.132 330.334 314.716 323.706 293.739 324.341 294.564 324.984 268.768 306.638 258.777 304.723 262.147 280.673 222.226 290.553 223.043 304.21 212.391 306.638 186.385 325.104 166.379 324.012 165.97 330.334 166.372 329.872 147.166 329.362"/><polygon class="cls-55" points="86.343 186.882 98.287 183.928 102.628 264.486 99.564 331.526 88.012 331.422 86.343 186.882"/><polygon class="cls-56" points="216.49 111.127 148.996 133.974 111.029 128.255 97.011 156.321 80.389 159.265 97.023 159.265 98.372 182.788 59.949 183.87 100.074 121.447 216.49 111.127"/><polygon class="cls-57" points="27.589 110.325 28.199 159.005 28.509 184.315 30.349 333.265 71.199 333.265 71.199 331.255 71.349 331.255 98.269 331.525 101.329 264.485 95.709 159.265 80.389 159.265 81.649 159.005 94.179 156.425 111.029 123.195 27.589 110.325"/><polygon class="cls-58" points="12.755 106.372 126.883 105.192 208.196 100.361 205.137 106.372 12.755 106.372"/><polygon class="cls-59" points="0 107.574 149.03 132.876 216.49 111.127 220.307 103.631 200.183 104.315 200.176 104.315 110.053 107.379 0 107.574"/><polygon class="cls-60" points="134.188 118.253 134.188 113.069 200.176 104.315 110.053 107.379 2.894 108.262 149.03 132.876 134.188 118.253"/><g class="cls-61"><polygon class="cls-62" points="159.26 129.526 155.523 126.208 139.855 124.832 139.34 124.489 163.21 123.201 168.391 126.634 159.26 129.526"/><polygon class="cls-63" points="178.579 106.372 179.603 123.019 179.091 123.019 177.978 106.372 178.579 106.372"/><polygon class="cls-64" points="169.821 107.574 178.948 112.381 178.948 113.069 167.073 107.917 169.821 107.574"/></g><path class="cls-65" d="M118.91,134.72a.28054.28054,0,0,1,.05.01l13.94,4.12,1.89.56.56.16,1.72.51,10.18,3,15.87,4.69,1.75.5,29.8,8.79h.01l.52.17,6.69,1.97,39.29-12.69,7.88-2.54,9.28-3,4.45-1.43.71-.23,3.51-1.13.4-.12,10.17-3.3a.07494.07494,0,0,0,.05-.01h.03a.06464.06464,0,0,1,.05-.02l.01-.01-56.07-1.26-.22-.85-4.49-17.48-2.13-8.28h-28.7l-.56.12h-.01l-3.54.78-.8,3.03-.61,3.89-2.73,17.65-.01.03-.27,1.8Z" transform="translate(42.266 95.4043)"/><polygon class="cls-66" points="165.943 231.142 212.991 241.103 279.632 241.103 315.763 231.28 262.265 230.132 259.899 228.864 244.717 229.153 239.194 229.258 239.194 228.822 238.254 216.936 236.262 229.315 236.123 230.418 232.634 230.131 232.634 227.542 230.524 225.564 226.52 230.775 165.943 231.142"/><path class="cls-67" d="M107.28,234.94v4.91H289.35v-4.91H271.01v-.01l-.32-5.23H251.11l-.15-.12-25.41-17.56-9.93-1.98.79-4.38.91-5.04,3.39-18.73,1.86-2.16.26-.82.42-1.35V166.82l3.25-4.15h5.27l13.69-6.83,4.13-2.06,6.4-3.2,4.78-2.39.57-.29,10.94-5.45.59-.3,4.84-7.42a.06464.06464,0,0,0-.05.02h-.03a.07494.07494,0,0,1-.05.01.24852.24852,0,0,0-.08.01c-.71.11-3.05.48-6.29,1.06-.93.16-1.92.34-2.99.53a.17018.17018,0,0,1-.07.01c-.02,0-.04.01-.06.01-3.1.57-6.68,1.24-10.33,2a.67525.67525,0,0,0-.14.02c-2.18.45-4.37.92-6.51,1.41-.23.04-.49.11-.75.14a.50666.50666,0,0,1-.13.02c-.43.1-.89.18-1.37.26-1.28.21-2.74.39-4.34.55v.02c-5.59.58-12.83.92-19.92,1.11-.27.01-.53.02-.8.02-13.13.35-25.49.22-25.49.22s-.24,0-.69.01h-1.78c-1.43.01-3.39.01-5.74.01-7.25-.02-18.13-.15-27.7-.63h-.01c-5.42-.27-10.42-.67-14.1-1.23h-.02c-.31-.05-.63-.1-.92-.15-.03,0-.04-.01-.06-.01-.05-.01-.12-.01-.16-.02-.45-.08-.89-.16-1.28-.25-.11-.03-.23-.05-.34-.07-2.59-.6-5.28-1.17-7.91-1.7a.03674.03674,0,0,1-.03-.01c-1.1-.22-2.18-.43-3.25-.64h-.01c-.68-.13-1.34-.26-2-.38-2.77-.52-5.3-.98-7.42-1.35h-.01c-2.61-.46-4.55-.78-5.45-.92-.06-.01-.11-.02-.16-.03-.15-.02-.25-.05-.31-.05a.28054.28054,0,0,0-.05-.01l4.84,7.43,12.29,6.14,1.03.5,9.81,4.9,17.98,8.98h5.26l3.25,4.15v12.12l2.55,2.95,3.38,18.73.8,4.43.9,4.99-8.94,1.78-.04.01-.94.19L145.51,229.7H125.94l-.33,5.23v.01Z" transform="translate(42.266 95.4043)"/><path class="cls-68" d="M125.6134,234.9283H271.01329l-.3224-5.2323-.8058.0124s-.3844.0125-1.1159.0249l-1.3391.0248c-.3596.0123-.7439.0247-1.1655.0247l-43.0111.7936-1.7979.0248-24.314.4463-3.112.062-1.5251-.0371-3.1121-.0621-5.257-.1115-20.2719-.4092-14.0725-.2976-23.8553-.496Z" transform="translate(42.266 95.4043)"/><polygon class="cls-69" points="213.346 307.42 213.941 307.519 230.716 310.172 234.002 310.693 237.498 310.358 237.523 310.346 240.573 310.061 256.629 308.498 258.787 308.3 267.813 307.42 257.882 305.448 223.264 305.448 214.325 307.221 214.288 307.234 213.346 307.42"/><polygon class="cls-70" points="212.386 258.074 215.636 262.224 265.516 262.224 268.766 258.074 244.156 254.604 237.306 253.634 237.296 253.634 212.386 258.074"/><polygon class="cls-71" points="244.966 272.964 262.976 277.294 264.836 275.134 265.096 274.314 260.546 274.004 244.966 272.964"/><polygon class="cls-72" points="215.636 274.344 218.186 277.294 250.066 279.124 215.636 274.344"/><path class="cls-73" d="M231.77,162.67l13.69-6.83,4.13-2.06,6.4-3.2,4.78-2.39.57-.29,10.94-5.45.59-.3,4.84-7.42a.06464.06464,0,0,0-.05.02h-.03a.07494.07494,0,0,1-.05.01.24852.24852,0,0,0-.08.01l-5.82,1.07-3.74.67-.04.01-3.88.72-.72.12-4.26.78-1.28.24a.67525.67525,0,0,0-.14.02l-8.78,1.6-1.44.26-.11.02-.02.01-2.75.49v.02l-2.05,3.51-1.29,2.2Z" transform="translate(42.266 95.4043)"/><polygon class="cls-74" points="234.003 310.691 231.655 326.422 226.398 326.312 234.003 310.691"/><polygon class="cls-75" points="237.528 310.349 233.371 311.989 230.722 310.17 237.528 310.349"/><polygon class="cls-76" points="239.881 237.561 237.303 253.639 232.363 237.561 239.881 237.561"/><polygon class="cls-77" points="204.666 236.944 204.956 239.404 205.386 243.174 207.126 258.074 212.386 258.074 207.136 243.674 205.606 239.544 205.606 239.534 204.666 236.944"/><path class="cls-78" d="M118.91,134.72l4.84,7.43,12.29,6.14,1.03.5,9.81,4.9.37-10.61.07-2.33.03-.52v-.07c-.03,0-.04-.01-.06-.01-.05-.01-.12-.01-.16-.02l-1.28-.25c-.11-.03-.23-.05-.34-.07l-8.42-1.6h-.02l-2.06-.4-.06-.01-.58-.11-1.99-.39-8.18-1.56h-.02l-4.75-.93c-.06-.01-.11-.02-.16-.03-.15-.02-.25-.05-.31-.05A.28054.28054,0,0,0,118.91,134.72Z" transform="translate(42.266 95.4043)"/><path class="cls-79" d="M181.2,110.78l4.7-3.03,1.3-.83.11-.07h-1.2l-.56.12h-.01l-3.54.78Z" transform="translate(42.266 95.4043)"/><polygon class="cls-80" points="174.576 232.484 174.646 232.704 174.746 233.004 175.166 234.254 178.306 243.694 179.336 244.194 177.616 234.974 177.336 233.564 177.336 233.554 177.276 233.214 177.216 233.204 176.626 233.044 176.616 233.044 174.576 232.484"/><polygon class="cls-81" points="185.752 232.396 179.339 233.604 179.339 244.204 176.481 232.487 185.752 232.396"/><polygon class="cls-82" points="258.776 273.544 260.546 274.004 264.836 275.134 265.096 274.314 265.516 272.964 258.776 273.544"/><polygon class="cls-83" points="191.92 325.708 206.129 325.894 206.489 325.348 206.663 325.1 217.499 308.97 219.607 309.329 215.825 325.1 215.776 325.311 215.639 325.894 235.552 325.894 235.514 325.237 235.502 325.1 234.684 311.474 234.659 311.077 235.688 311.077 243.871 310.172 243.735 325.113 243.735 325.299 251.335 325.522 251.335 309.689 254.175 309.23 255.241 309.23 263.275 325.113 263.722 326.005 263.771 326.092 263.908 326.365 265.147 326.068 265.519 325.981 265.048 325.113 263.858 322.881 263.734 322.67 256.629 309.416 258.774 308.87 267.578 316.558 267.813 316.756 277.323 325.051 277.385 325.113 278.067 325.708 282.295 325.398 281.898 325.113 281.799 325.038 258.787 308.3 258.774 308.288 256.629 308.498 240.573 310.061 237.523 310.346 230.716 310.172 214.325 307.221 214.3 307.221 214.288 307.234 213.941 307.519 192.652 325.1 192.28 325.41 192.057 325.596 191.92 325.708"/><polygon class="cls-83" points="263.328 323.706 267.81 316.755 267.577 316.552 263.568 322.927 263.328 323.706"/><polygon class="cls-83" points="210.633 234.873 204.661 236.947 189.303 235.6 197.774 233.864 210.633 234.873"/><polygon class="cls-83" points="303.036 243.594 303.606 243.304 305.766 234.714 305.956 233.954 305.956 233.944 306.006 233.754 306.286 232.644 306.286 232.634 305.566 232.764 305.266 234.014 305.266 234.024 305.246 234.134 305.246 234.144 305.056 234.944 303.036 243.594"/><path class="cls-83" d="M248.84,140l.02.12v.11l.12,2.3v.01l.08,1.43.53,9.81,6.4-3.2,2.35-9.61.26-1.04v-.01l.21-.86.23-.92-1.28.24a.67525.67525,0,0,0-.14.02Z" transform="translate(42.266 95.4043)"/><polygon class="cls-83" points="308.266 232.764 308.766 233.174 308.776 233.184 309.276 233.584 314.546 237.854 315.136 237.554 309.676 233.464 309.166 233.074 308.566 232.634 308.266 232.764"/><polygon class="cls-84" points="199.369 330.339 199.069 334.94 186.846 334.94 186.427 330.339 199.369 330.339"/><polygon class="cls-83" points="240.136 229.234 240.136 229.244 241.476 229.244 241.476 229.204 242.676 204.564 242.746 203.374 247.206 203.144 247.206 229.024 258.776 227.284 257.116 218.234 255.746 210.834 254.176 202.254 241.226 202.254 241.216 202.614 241.146 204.514 240.136 229.234"/><path class="cls-85" d="M184.76,107.8l1.14-.05,4.34-.17,8.71-.37,8.61-.36,1.11-.05,5.69-.24c-.77-.11-2.92-.13-5.74-.11-5.43.03-13.3.24-18.3.37-.26.02-.52.02-.75.03-.93.02-1.73.05-2.37.07-.96.03-1.55.05-1.65.05h-.01Z" transform="translate(42.266 95.4043)"/><path class="cls-86" d="M118.91,134.72l4.84,7.43,12.29,6.14,1.03.5,9.81,4.9,17.98,8.98h5.26l3.25,4.15v12.12l2.55,2.95,3.38,18.73.8,4.43.9,4.99-8.94,1.78-.04.01-.94.19L145.51,229.7l-.48.33,4.98-.02,14.21-.07,9.29-.03,11.13-.04,4.93-.03,3.68-.01,8.22-.03,7.6-.04,11.94-.05h1.77l12.28-.06,4.47-.02,11.43-.05-25.41-17.56-9.93-1.98.79-4.38.91-5.04,3.39-18.73,1.86-2.16.26-.82.42-1.35V166.82l3.25-4.15h5.27l13.69-6.83,4.13-2.06,6.4-3.2,4.78-2.39.57-.29,10.94-5.45.59-.3,4.84-7.42a.06464.06464,0,0,0-.05.02h-.03a.07494.07494,0,0,1-.05.01.24852.24852,0,0,0-.08.01c-.71.11-3.05.48-6.29,1.06-.93.16-1.92.34-2.99.53a.17018.17018,0,0,1-.07.01c-.02,0-.04.01-.06.01-3.1.57-6.68,1.24-10.33,2a.67525.67525,0,0,0-.14.02l-8.78,1.6-1.44.26-.11.02-.02.01-2.75.49v.02c-5.59.58-12.83.92-19.92,1.11-.27.01-.53.02-.8.02-13.13.35-25.49.22-25.49.22s-.24,0-.69.01h-1.78c-1.43.01-3.39.01-5.74.01-7.25-.02-18.13-.15-27.7-.63h-.01c-5.42-.27-10.42-.67-14.1-1.23h-.02c-.31-.05-.63-.1-.92-.15-.03,0-.04-.01-.06-.01-.05-.01-.12-.01-.16-.02-.45-.08-.89-.16-1.28-.25-.11-.03-.23-.05-.34-.07-2.59-.6-5.28-1.17-7.91-1.7a.03674.03674,0,0,1-.03-.01c-1.1-.22-2.18-.43-3.25-.64h-.01c-.68-.13-1.34-.26-2-.38-2.77-.52-5.3-.98-7.42-1.35h-.01c-2.61-.46-4.55-.78-5.45-.92-.06-.01-.11-.02-.16-.03-.15-.02-.25-.05-.31-.05A.28054.28054,0,0,0,118.91,134.72Z" transform="translate(42.266 95.4043)"/><path class="cls-87" d="M125.9357,229.696s38.8205,1.4631,66.5688,1.3764c1.5871,0,3.1369,0,4.6371-.0249h.6696c7.14169-.0868,15.3868-.2107,23.694-.3595.4587-.0124.9175-.0124,1.3762-.0248,17.9534-.3224,35.9192-.7068,43.3832-.8804.4216,0,.8059-.0124,1.1655-.0247.5208-.0124.9671-.0124,1.3391-.0248.7315-.0124,1.1159-.0249,1.1159-.0249h-68.4162l-8.23279-.0124Z" transform="translate(42.266 95.4043)"/><polygon class="cls-88" points="302.195 330.295 299.839 330.295 301.55 330.333 301.55 335.255 301.872 335.255 302.195 330.333 302.195 330.295"/><polygon class="cls-89" points="289.759 335.243 299.802 335.255 299.591 330.333 299.591 330.295 289.97 330.32 289.97 330.333 289.759 335.243"/><ellipse class="cls-90" cx="197.3328" cy="78.37026" rx="84.62029" ry="87.00951" transform="translate(149.854 366.20118) rotate(-86.65677)"/><ellipse class="cls-91" cx="197.3328" cy="78.37025" rx="62.04259" ry="63.79432" transform="translate(149.85758 366.20283) rotate(-86.65783)"/><path class="cls-92" d="M233.51409,123.0602l-.3672-5.0725L230.905,115.784l-4.43261,4.1052-.48739,1.1646,2.81929-25.0275,2.2043-1.1906,2.8297-21.5078-1.0961-2.4808,8.4849-46.9558-11.641-.329-7.5067,3.0178-.0391,5.5138-46.24989-3.225-.6284.4872-.1205-6.4852-8.7436-.5106-6.9684,4.5488,7.0611,41.8392-.9592.9708,1.4935,4.0177-3.0018.4383.5027,18.6805,3.6065,1.3432.9972,36.1732-.8393.5265-.6544-.7687-4.1622.7962s2.4744,6.8256,2.5233,7.0952c.0487.2695,65.12539-8.0227,65.12539-8.0227Z" transform="translate(42.266 95.4043)"/><polygon class="cls-93" points="208.498 118.895 203.05 122.398 208.984 164.253 208.108 164.989 209.519 169.399 206.76 169.935 207.12 188.035 210.53 189.463 211.61 226.37 207.509 229.811 208.212 233.695 211.919 234.779 217.947 234.298 212.489 123.568 208.498 118.895"/><polygon class="cls-94" points="276.201 218.298 273.396 232.613 260.898 230.258 262.036 220.667 260.844 219.686 265.367 189.268 267.388 187.962 271.775 143.936 235.076 139.989 231.454 131.312 221.727 130.81 220.852 170.005 221.894 171.771 221.745 222.82 225.873 224.197 223.907 234.684 211.988 234.654 212.436 229.924 215.568 228.676 214.975 190.141 212.039 188.967 209.921 170.411 212.141 169.313 211.243 165.912 212.591 163.314 208.498 118.895 216.712 119.004 217.363 130.569 218.144 130.535 218.002 125.202 269.96 128.206 269.015 137.043 270.444 138.145 271.809 119.707 282.746 120.111 274.947 165.884 275.437 168.807 272.806 189.763 270.821 190.879 267.534 217.383 276.201 218.298"/><polygon class="cls-95" points="260.898 230.258 254.427 229.512 255.723 221.179 254.372 220.626 257.599 189.064 260.478 188.198 264.236 145.816 231.226 142.983 221.525 139.86 221.727 130.81 231.454 131.312 235.076 139.989 271.775 143.936 267.388 187.962 265.367 189.268 260.844 219.686 262.036 220.667 260.898 230.258"/><polygon class="cls-96" points="271.809 119.707 264.81 122.201 264.72 127.835 269.96 128.206 269.015 137.043 270.444 138.145 271.809 119.707"/><polygon class="cls-96" points="218.002 125.202 216.499 126.481 217.641 137.727 219.107 137.419 218.002 125.202"/><polygon class="cls-97" points="224.448 231.854 254.427 229.512 255.723 221.179 254.372 220.626 257.599 189.064 260.478 188.198 264.236 145.816 231.226 142.983 229.23 134.295 221.668 133.459 220.852 170.005 221.894 171.771 221.745 222.82 225.873 224.197 224.448 231.854"/><polygon class="cls-98" points="224.448 231.854 254.427 229.512 255.723 221.179 254.372 220.626 257.599 189.064 260.478 188.198 264.236 145.816 232.488 142.001 229.23 134.295 221.668 133.459 220.852 170.005 221.894 171.771 221.745 222.82 225.873 224.197 224.448 231.854"/><polygon class="cls-99" points="212.436 229.924 207.509 229.811 211.61 226.37 215.568 228.676 212.436 229.924"/><polygon class="cls-99" points="209.921 170.411 206.76 169.935 209.519 169.399 212.141 169.313 209.921 170.411"/><polygon class="cls-99" points="211.243 165.912 208.108 164.989 208.984 164.253 212.591 163.314 211.243 165.912"/><polygon class="cls-99" points="221.894 171.771 212.141 169.313 220.852 170.005 221.894 171.771"/><polygon class="cls-100" points="276.201 218.298 262.036 220.667 260.844 219.686 267.534 217.383 276.201 218.298"/><polygon class="cls-99" points="275.437 168.807 269.426 167.98 269.917 165.563 274.947 165.884 275.437 168.807"/><polygon class="cls-101" points="232.488 142.001 235.076 139.989 231.454 131.312 229.23 134.295 232.488 142.001"/><polygon class="cls-99" points="254.372 220.626 260.844 219.686 262.036 220.667 255.723 221.179 254.372 220.626"/><polygon class="cls-102" points="257.599 189.064 265.367 189.268 267.388 187.962 260.478 188.198 257.599 189.064"/><polygon class="cls-99" points="272.806 189.763 266.822 189.619 270.821 190.879 272.806 189.763"/><polygon class="cls-99" points="269.96 128.206 256.955 128.932 218.002 125.202 269.96 128.206"/><polygon class="cls-99" points="269.015 137.043 275.416 141.602 269.32 139.154 269.015 137.043"/><polygon class="cls-100" points="225.873 224.197 216.26 226.066 221.745 222.82 225.873 224.197"/><polygon class="cls-96" points="212.591 163.314 220.834 166.06 212.43 162.578 212.591 163.314"/><polygon class="cls-96" points="214.975 190.141 221.785 186.784 221.833 185.966 214.975 190.141"/><polygon class="cls-96" points="270.444 138.145 277.953 142.818 275.22 141.59 270.444 138.145"/><polygon class="cls-96" points="217.641 137.727 211.041 146.487 210.984 147.461 215.379 140.947 219.107 137.419 217.641 137.727"/><g class="cls-103"><polygon class="cls-104" points="279.579 127.161 271.572 125.249 270.596 135.538 278.137 139.668 279.579 127.161"/><polygon class="cls-104" points="277.953 142.818 271.775 143.936 270.409 157.645 275.59 160.506 277.953 142.818"/><polygon class="cls-104" points="215.922 121.733 217.641 137.727 210.923 145.209 208.822 122.414 215.922 121.733"/><polygon class="cls-104" points="218.071 139.683 215.629 141.393 213.802 150.212 219.566 152.599 220.246 140.948 218.071 139.683"/><polygon class="cls-104" points="265.318 130.087 262.876 131.798 261.05 140.616 266.813 143.003 267.493 131.352 265.318 130.087"/><polygon class="cls-104" points="220.588 154.627 217.324 152.468 216.673 154.302 220.679 159.264 220.588 154.627"/><polygon class="cls-104" points="258.002 135.683 254.738 133.524 254.088 135.358 258.094 140.321 258.002 135.683"/><polygon class="cls-104" points="220.986 160.214 219.698 159.207 218.453 160.61 220.127 162.519 220.986 160.214"/><polygon class="cls-104" points="267.388 187.962 272.114 182.269 273.58 173.035 269.354 170.747 267.388 187.962"/><polygon class="cls-104" points="220.108 178.487 218.229 175.49 215.419 175.787 216.583 180.629 220.108 178.487"/><polygon class="cls-104" points="215.04 194.405 221.806 192.399 221.697 219.011 217.749 218.892 218.112 200.688 216.283 202.49 216.427 209.947 215.191 209.875 215.04 194.405"/><polygon class="cls-104" points="276.201 218.298 267.685 219.722 267.086 229.97 273.176 232.136 276.201 218.298"/><polygon class="cls-104" points="266.617 221.815 265.33 227.149 262.797 228.245 263.18 221.686 266.617 221.815"/><polygon class="cls-104" points="266.165 212.852 268.484 200.277 264.333 196.218 261.681 214.058 266.165 212.852"/><polygon class="cls-104" points="268.096 212.851 263.499 216.229 264.203 218.114 267.534 217.383 268.096 212.851"/></g><polygon class="cls-101" points="264.236 145.816 271.775 143.936 267.388 187.962 260.478 188.198 264.236 145.816"/><polygon class="cls-105" points="259.947 230.203 259.812 226.524 255.465 225.605 249.444 230.853 259.525 231.441 259.947 230.203"/><polygon class="cls-106" points="274.122 228.906 282.51 234.933 273.396 232.613 268.641 231.974 274.122 228.906"/><polygon class="cls-107" points="255.271 224.083 221.754 220.042 221.745 222.82 225.873 224.197 224.448 231.854 254.427 229.512 255.271 224.083"/><polygon class="cls-108" points="275.515 218.412 274.579 213.705 273.383 211.809 268.61 215.852 268.193 217.453 275.515 218.412"/><polygon class="cls-109" points="211.61 228.023 209.114 226.226 206.815 226.918 207.509 229.811 210.83 229.188 211.61 228.023"/><polygon class="cls-100" points="259.812 226.524 257.844 228.965 249.444 230.853 255.465 225.605 259.812 226.524"/><polygon class="cls-100" points="258.773 230.134 255.464 230.786 257.724 231.013 258.773 230.134"/><polygon class="cls-100" points="274.579 213.705 271.071 215.996 268.61 215.852 273.383 211.809 274.579 213.705"/><polygon class="cls-100" points="272.884 216.102 269.896 216.965 271.891 217.298 272.884 216.102"/><polygon class="cls-100" points="274.122 228.906 269.258 231.449 274.328 232.306 279.255 232.594 274.122 228.906"/><polygon class="cls-100" points="206.815 226.918 209.627 228.527 211.61 228.023 209.114 226.226 206.815 226.918"/><polygon class="cls-110" points="261.004 181.62 256.853 178.16 256.332 178.89 245.102 205.731 246.239 207.08 243.47 215.011 241.639 211.782 241.998 209.064 240.313 206.175 226.535 197.559 227.264 208.756 226.87 213.672 225.566 214.036 224.651 182.399 221.704 175.014 221.754 220.042 255.271 224.083 255.723 221.179 254.372 220.626 257.599 189.064 260.478 188.198 261.004 181.62"/><polygon class="cls-111" points="241.699 204.758 242.883 203.603 245.198 192.832 238.623 190.487 236.465 195.91 239.555 204.211 241.699 204.758"/><polygon class="cls-112" points="236.492 201.742 236.924 200.545 236.218 200.142 235.459 201.34 236.492 201.742"/><polygon class="cls-113" points="231.628 199.029 230.316 194.2 225.925 190.882 225.733 194.687 230.387 199.187 231.628 199.029"/><polygon class="cls-114" points="247.308 193.236 249.389 193.04 249.652 188.534 247.329 186.89 246.372 191.501 247.308 193.236"/><polygon class="cls-115" points="256.853 178.16 259.058 179.998 254.946 192.743 245.102 205.731 256.853 178.16"/><polygon class="cls-116" points="254.411 195.918 250.242 200.708 250.134 202.559 254.411 195.918"/><polygon class="cls-117" points="241.998 209.064 232.531 207.618 226.535 197.559 240.313 206.175 241.998 209.064"/><polygon class="cls-118" points="238.877 211.144 231.108 207.936 233.983 210.594 238.877 211.144"/><polygon class="cls-119" points="245.198 192.832 240.24 197.382 238.16 198.414 236.465 195.91 238.623 190.487 245.198 192.832"/><polygon class="cls-120" points="243.781 194.625 242.304 196.251 242.239 197.354 243.781 194.625"/><polygon class="cls-121" points="243.179 198.531 240.85 201.205 242.438 201.542 243.179 198.531"/><polygon class="cls-122" points="230.316 194.2 227.699 193.826 226.063 191.995 225.925 190.882 230.316 194.2"/><polygon class="cls-123" points="229.049 195.374 228.501 194.405 226.756 193.771 229.049 195.374"/><polygon class="cls-124" points="237.007 212.323 236.272 211.716 234.475 211.611 237.007 212.323"/><polygon class="cls-125" points="226.87 213.672 244.291 219.615 249.631 221.67 234.963 221.634 226.421 214.81 226.87 213.672"/><polygon class="cls-126" points="233.25 220.713 230.442 219.329 227.386 219.15 233.25 220.713"/><polygon class="cls-127" points="249.065 220.861 248.364 220.376 252.178 221.405 249.065 220.861"/><polygon class="cls-128" points="254.484 223.988 252.106 222.635 245.451 222.899 254.484 223.988"/><polygon class="cls-129" points="251.145 209.902 246.676 212.887 249.445 214.371 253.018 213.013 253.193 210.021 251.145 209.902"/><polygon class="cls-130" points="252.37 213.514 250.486 214.567 251.577 215.115 252.37 213.514"/><polygon class="cls-131" points="259.859 145.532 256.392 182.204 255.635 182.42 258.792 146.08 249.526 144.815 243.664 230.353 242.476 230.446 248.684 144.404 247.505 144.336 240.55 230.596 234.424 231.084 237.955 144.674 236.237 144.153 232.865 189.789 231.553 190.436 234.061 142.47 259.859 145.532"/><polygon class="cls-132" points="229.23 134.295 227.253 231.645 226.048 230.98 227.62 134.3 229.23 134.295"/><polygon class="cls-133" points="228.825 232.136 228.787 229.646 226.932 228.274 224.448 231.854 227.643 232.596 228.825 232.136"/><polygon class="cls-100" points="228.825 232.136 226.048 230.98 226.932 228.274 228.787 229.646 228.825 232.136"/><polygon class="cls-134" points="263.517 153.924 263.014 146.738 257.818 145.045 264.236 145.816 263.517 153.924"/><polygon class="cls-134" points="230.774 137.946 228.845 135.196 222.137 134.306 221.595 136.731 221.668 133.459 229.23 134.295 230.774 137.946"/><polygon class="cls-134" points="260.478 188.198 257.599 189.064 254.372 220.626 256.965 188.681 259.335 187.492 261.004 181.62 260.478 188.198"/><polygon class="cls-134" points="255.465 225.605 249.444 230.853 255.015 225.054 255.723 221.179 255.465 225.605"/><path class="cls-135" d="M179.4795,127.4158l4.119,1.4017-.0176-.0261-.0948,1.4711.001-.0062-1.4631,5.6821a.06984.06984,0,0,0,.0501.0849.07118.07118,0,0,0,.0505-.0063l1.1357-.5983a.08135.08135,0,0,0,.0305-.0294l1.4567-2.4717-.1379.0285,1.8471,1.3829-.0439-.083.0598,1.9142a.12038.12038,0,0,0,.1222.1154l5.5322-.0838.0276-.0031,2.8798-.5854h-.0636l1.1294.234a.16277.16277,0,0,0,.0837-.0052l1.6518-.5529-.0444.0084,3.615-.1676a.17331.17331,0,0,0,.129-.0685l.4715-.6265-.2425.0346.7113.5365a.17607.17607,0,0,0,.13341.0328l2.22429-.359-.03929.0021,3.11669.1884a.19068.19068,0,0,0,.0749-.011l1.16-.4213a.18965.18965,0,0,0,.1227-.1561l.171-1.4937-.1035.1493,2.9545-1.4946a.19927.19927,0,0,0,.1043-.2179l-.346-1.6595-.1834.2431,1.6919-.1157a.20518.20518,0,0,0,.1907-.2187.21153.21153,0,0,0-.0196-.0747l-.6946-1.4661.0128.1448.617-2.2375a.21394.21394,0,0,0-.1252-.2541l-1.3497-.5552a.22222.22222,0,0,0-.0694-.0157l-.69309-.042.17169.334,1.26231-1.9914a.22384.22384,0,0,0-.01241-.2556l-.8573-1.1102.0435.1795,1.3803-7.3272a.24657.24657,0,0,0,.0004-.0865l-.3417-1.9416-.0695.2178,1.1311-1.1053a.24808.24808,0,0,0,.004-.3507l-.02039-.0187-1.01371-.8356.0842.255,2.2153-8.7709a.27263.27263,0,0,0-.0353-.2123l-1.5407-2.3863.0353.2197.8473-3.2055.0048-.0219.6163-3.3969-.2307.2332,2.0443-.388,2.0185-.5038a.29767.29767,0,0,0,.2167-.3609.30567.30567,0,0,0-.0746-.1346l-1.583-1.6542.0479.3536,1.8628-3.4493a.30636.30636,0,0,0,.0357-.1268l.8111-15.8046a.27792.27792,0,0,0-.0007-.0377l-.3811-4.0916-.019.1214,1.3158-3.1075a.249.249,0,0,0,.0164-.1355l-.6001-3.6319-.0226.1454,1.2323-2.4403a.23269.23269,0,0,0-.0425-.2684l-1.5516-1.5501.05791.2215,1.69079-6.0736a.21378.21378,0,0,0-.1475-.2638l-.0365-.0069-10.7243-1.0943a.19776.19776,0,0,0-.0811.0089l-4.0703,1.3774.2227.0935-1.3542-2.7764a.17752.17752,0,0,0-.1728-.0989l-2.9317.2404.1306.046-1.2896-1.2147a.16649.16649,0,0,0-.2353.006l-.0115.0136-1.9449,2.5446.2222-.0312-3.32869-2.4576a.15151.15151,0,0,0-.1659-.0093l-1.6079.9469.1091-.0134-2.9289-.8315a.12817.12817,0,0,0-.0556-.0029l-2.8323.5298.1225.1051.0746-3.7256a.08341.08341,0,0,0-.0215-.0574l-2.5683-2.7723.0142.0519.446-2.1772a.04535.04535,0,0,0-.0348-.0541l-.0049-.0008-7.5671-.7905,7.557.8813-.0396-.0547-.4721,2.1716a.06032.06032,0,0,0,.0142.0522l2.5348,2.803-.0214-.0572-.1192,3.7244a.10368.10368,0,0,0,.1002.107l.0225-.0018,2.8384-.4956-.0554-.0029,2.9187.8666a.142.142,0,0,0,.1093-.0134l1.6192-.9274-.1657-.0094,3.318,2.4723a.16038.16038,0,0,0,.22229-.0311l1.9554-2.5364-.24669.0196,1.28449,1.22a.17232.17232,0,0,0,.1307.0461l2.9327-.2282-.1727-.0988,1.3426,2.7819a.18338.18338,0,0,0,.2228.0935l4.076-1.3605-.0808.0089,10.7197,1.1388-.1839-.2707-1.7159,6.0665a.22836.22836,0,0,0,.0578.2218l1.5451,1.5565-.0425-.2683-1.2424,2.4352a.23866.23866,0,0,0-.0226.1457l.5851,3.6345.0164-.1354-1.3287,3.1022a.2558.2558,0,0,0-.0191.1216l.3641,4.093-.0007-.0374-.8903,15.8003.0357-.1265-1.8674,3.4469a.30286.30286,0,0,0,.048.3539L218.876,92.412l.142-.4953-2,.5082-2.02541.3928a.29179.29179,0,0,0-.2309.2334l-.6023,3.3994.0047-.0217-.834,3.209a.27762.27762,0,0,0,.0354.2198l1.5504,2.38-.0353-.2122-2.1793,8.7799a.25234.25234,0,0,0,.0844.2552l1.0171.8314-.0164-.3692-1.1265,1.11a.2481.2481,0,0,0-.0697.2181l.3496,1.9401.0004-.0863-1.3503,7.3329a.22786.22786,0,0,0,.0436.1797l.8619,1.1067-.0123-.2554-1.2542,1.9966a.21787.21787,0,0,0,.0674.3006.22328.22328,0,0,0,.1043.0334l.6932.0391-.0692-.0157,1.3519.5496-.1251-.254-.6078,2.24a.20984.20984,0,0,0,.0129.145l.7007,1.4633.171-.2933-1.6914.1226a.2017.2017,0,0,0-.1874.215l.0039.0282.3528,1.6579.1042-.2177-2.9482,1.5068a.19437.19437,0,0,0-.1037.1495l-.165,1.4944.1227-.156-1.1583.4261.0746-.011-3.1175-.1756a.19227.19227,0,0,0-.0396.0021l-2.2227.3681.1332.0327-.7135-.5335a.173.173,0,0,0-.2422.0339l-.0005.0008-.4689.6283.1289-.0684-3.61419.1824a.172.172,0,0,0-.0445.0085l-1.6496.5597.0835-.0051-1.1304-.2294a.16448.16448,0,0,0-.0637,0l-2.8774.5973.0273-.0031-5.5308.1485.1222.1153-.0826-1.9134a.11025.11025,0,0,0-.0439-.0832l-1.8635-1.3608a.094.094,0,0,0-.1317.0189l-.0063.0096-1.4272,2.4889.0304-.0293-1.1284.6119.1006.0784,1.3951-5.6993.0011-.0065.0771-1.4722a.02621.02621,0,0,0-.0178-.0262Z" transform="translate(42.266 95.4043)"/><path class="cls-135" d="M185.4911,135.8968l1.7101-.2013-.003-.0005.8595.3606.0071.0002,2.5587-.9448-.0235-.0086.5716,1.0183a.02357.02357,0,0,0,.029.0103l3.0876-1.1867-.0408-.0114.4504.5948a.0388.0388,0,0,0,.0254.0148l2.2063.2898a.04652.04652,0,0,0,.0368-.0115l1.40829-1.2678-.08159-.0137.85939,1.5804a.05925.05925,0,0,0,.0803.0237.06266.06266,0,0,0,.0191-.0166l1.3951-1.8395-.0762.0231,2.778.9881a.07706.07706,0,0,0,.0765-.0151l1.1997-1.0639-.0832.0134,1.54431.6672a.08154.08154,0,0,0,.06429-.0002l2.1546-.9378a.08548.08548,0,0,0,.0284-.0203l2.4794-2.7112-.1003.0213,1.286.5643a.08983.08983,0,0,0,.1184-.0462.092.092,0,0,0,.0075-.0393l-.11029-3.3202-.05761.0898,2.2319-.928a.09687.09687,0,0,0,.0523-.1266l-.0071-.0138-2.6848-4.3693.0037.1018,1.2158-2.3269a.10762.10762,0,0,0,.01081-.0663l-.94621-5.9419-.0269.0932,1.6397-1.8631a.11733.11733,0,0,0,.0292-.0763l.119-10.989-.0185.0657,1.9584-3.2654a.13726.13726,0,0,0,.0107-.1167l-1.5186-4.1079-.0122.1229,1.5645-2.5239-.0679.0576,1.5472-.6336a.1466.1466,0,0,0,.0899-.151l-.3894-3.7041-.0618.1384,2.1288-1.5391a.15075.15075,0,0,0,.062-.119l.0399-3.1683-.0042.0326,2.6511-10.8086a.13182.13182,0,0,0-.0364-.126l-3.0502-2.9391-.0123.1919,2.0277-1.5128a.12315.12315,0,0,0,.0269-.1698l-1.0915-1.5373.0149.111,1.2298-3.3769-.0053.0122.7541-1.5032a.11525.11525,0,0,0,.0034-.0955l-1.0281-2.4447.0081.0524.53521-6.1732a.10351.10351,0,0,0-.02261-.074l-2.0511-2.5245a.09936.09936,0,0,0-.0917-.0356l-1.8827.2849.06611.014-1.36541-.8669a.09565.09565,0,0,0-.0502-.0148l-7.2708-.0473.05841.0237-.97721-.9335a.0844.0844,0,0,0-.0482-.0228l-4.9908-.5934.0197.0051-3.1399-1.26a.06969.06969,0,0,0-.0675.0089l-1.53669,1.1683.0501-.0111-4.9649-1.0352.0061.0018-3.667-1.3544.0189.0244-.4592-4.0204-.0055-.01-3.2242-2.5943,3.2054,2.6174-.0054-.0098.4302,4.0236a.0297.0297,0,0,0,.0191.0245l3.6571,1.3807.0063.0019,4.9574,1.071a.06274.06274,0,0,0,.0502-.0112l1.54509-1.1572-.0672.0089,3.1334,1.2761.0199.0052,4.9894.6059-.0479-.0226.9749.9358a.08624.08624,0,0,0,.0586.0239l7.2706.0653-.0499-.0148,1.3633.8704a.09715.09715,0,0,0,.0664.0141l1.88341-.2802-.09151-.0356,2.0448,2.5296-.0227-.0738-.5504,6.1718a.1116.1116,0,0,0,.0082.0526l1.0219,2.4473.0034-.0953-.758,1.5014-.0054.0124-1.2381,3.3739a.122.122,0,0,0,.0149.1112l1.0877,1.54.0269-.1696-2.0315,1.5077a.126.126,0,0,0-.0261.1763l.0138.0157,3.0429,2.9465-.0363-.1258-2.6779,10.802a.155.155,0,0,0-.0042.0328l-.0479,3.1683.0618-.1187-2.131,1.5359a.15141.15141,0,0,0-.0619.1386l.3987,3.7031.08991-.1509-1.54561.6373a.14512.14512,0,0,0-.0681.0578l-1.5582,2.5277a.14229.14229,0,0,0-.0122.1231l1.5288,4.1042.0107-.1165-1.9503,3.2702a.13366.13366,0,0,0-.0186.0659l-.0918,10.9893.0291-.076-1.6352,1.8672a.11541.11541,0,0,0-.0269.0934l.9609,5.9395.0106-.066-1.21,2.3299a.10369.10369,0,0,0,.0037.102l2.6956,4.3627.0451-.1403-2.22959.9336a.0945.0945,0,0,0-.05781.09l.1185,3.32.1257-.0854-1.28739-.5611a.08857.08857,0,0,0-.10051.0214l-2.4727,2.7173.02821-.0202-2.15231.9431.0641-.0002-1.546-.6633a.079.079,0,0,0-.0834.0135l-1.197,1.0669.0763-.015-2.7842-.9709a.06784.06784,0,0,0-.0764.0231l-1.382,1.8495.0992.0071-.8707-1.5741a.05274.05274,0,0,0-.0715-.0211l-.0104.0073-1.39919,1.2778.0366-.0115-2.2082-.2741.0253.0147-.4546-.5917a.03548.03548,0,0,0-.041-.0116l-3.079,1.2089.0288.0102-.5788-1.0141a.01928.01928,0,0,0-.0236-.0085l-2.5519.9631.0069.0001-.8621-.3545-.0032-.0004Z" transform="translate(42.266 95.4043)"/><path class="cls-136" d="M199.36109,36.3998a4.633,4.633,0,0,0,.2355-.7315.73516.73516,0,0,1-.04959-.0992c-.11151-.186-.24791.1488-.32231.4091,0,.1488,0,.2853-.0124.4092C199.26189,36.4742,199.29909,36.499,199.36109,36.3998Z" transform="translate(42.266 95.4043)"/><path class="cls-137" d="M199.38589,43.9878a3.74435,3.74435,0,0,0,.781-3.1121,5.20084,5.20084,0,0,0-.1735-.5703,9.11311,9.11311,0,0,0-1.4259,2.2194,2.01768,2.01768,0,0,0,.0249,1.4258A4.45286,4.45286,0,0,1,199.38589,43.9878Z" transform="translate(42.266 95.4043)"/><path class="cls-138" d="M199.49739,40.0202a3.81252,3.81252,0,0,0-.9547-.4587c-.0371.0371-.08669.0744-.1239.1116-.2356.2479.1983.4959.5331.6323h.5455C199.59659,40.2062,199.63379,40.1194,199.49739,40.0202Z" transform="translate(42.266 95.4043)"/><path class="cls-139" d="M190.01,61.94a3.96,3.96,0,0,1,1.48-1.67c.16-1.04.46-1.99-.56-3.08-.17-.2-1.61-1.04-1.76-1.19-.09.36-.16,1.61-.22,1.97a2.44254,2.44254,0,0,1,1.83,1.48C191.15,60.37,189.6,59.67,190.01,61.94Z" transform="translate(42.266 95.4043)"/><path class="cls-140" d="M188.413,38.3092c.0495-.1859.0868-.4092-.0496-.3471a.27483.27483,0,0,1-.062.0371,2.11907,2.11907,0,0,0-.1116.5084c0,.0744.0248.0744.0868.0372A2.3034,2.3034,0,0,1,188.413,38.3092Z" transform="translate(42.266 95.4043)"/><path class="cls-141" d="M187.545,55.3451a1.05611,1.05611,0,0,0,.1985-.8803c-.0125-.0621-.0373-.1116-.0497-.1612a2.53838,2.53838,0,0,0-.3843.6323.582.582,0,0,0,.0124.4092A.66834.66834,0,0,1,187.545,55.3451Z" transform="translate(42.266 95.4043)"/><path class="cls-142" d="M187.6938,40.4046a.37743.37743,0,0,0,.0621-.0868,2.80819,2.80819,0,0,0-.4216-.5703c-.0868-.0744-.1364-.0372-.186.0372.0124.1116.0372.2355.062.3595C187.3467,40.3426,187.5699,40.603,187.6938,40.4046Z" transform="translate(42.266 95.4043)"/><path class="cls-143" d="M227.41529,139.0445c2.0016-.1855-3.19,3.5674-3.5828,3.005S226.788,139.1027,227.41529,139.0445Z" transform="translate(42.266 95.4043)"/><path class="cls-144" d="M160.7301,5.32763l.0167,3.54621.0438,9.10416,1.3799,58.6908v.0145l.0896,19.0153.196,41.1347,2.0973,1.7701s1.4032-88.2842,2.6917-121.6969a68.21975,68.21975,0,0,1,.4232-6.8839c1.132-3.32526,2.2766-.27734,3.1501,0,.1167.0375.1,3.2939-.0167,8.9166-.763,36.7108-4.9412,119.6642-4.9412,119.6642h2.3183l3.3421-118.7407.2731-11.29323A3.88222,3.88222,0,0,0,167.8038,4.598Z" transform="translate(42.266 95.4043)"/><path class="cls-145" d="M141.7744,136.6505s3.4109.8748,13.7333,1.8093c8.2615.7498,20.9459,1.5383,39.852,1.9484,17.74259.3854,30.867-.0352,40.13879-.66,12.9519-.8695,18.3851-2.1314,18.3851-2.1314l-10.3084.2147s-11.1655-.4294-45.95919-.6442S141.7744,136.6505,141.7744,136.6505Z" transform="translate(42.266 95.4043)"/><path class="cls-146" d="M181.4644,230.299c.0281.5033.0422.7691.0422.7691H191.859s-.0035-.4629-.0105-1.3218c-.0176-2.1067-.0511-6.5947-.0933-12.4767-.1109-16.178-.2676-42.8967-.2183-59.5799.0247-8.6557.1056-14.6098.2781-14.99a1.20927,1.20927,0,0,1,.8043-.5051c2.4746-.7234,9.69949-.0247,12.08249-.037.6459-.0035-2.1032,81.5801-2.0046,88.9105l1.3657-.139s2.78611-87.7278,5.1463-88.768c2.3584-1.0401-1.4045,88.856-1.4045,88.856l.8519-.0581,2.27741-.1584s.38549-9.5463.96979-22.4314c1.2179-26.7257,3.3-67.8132,4.6077-67.8132-.1813-.0088-12.8956-.6318-23.76539-.931-1.9501-.0528-3.8386-.0968-5.5863-.1232-1.7583-.0282-3.3722-.0388-4.7573-.03-2.8266.0194-4.7045.1303-4.921.3749C176.517,140.9379,180.9769,221.5429,181.4644,230.299Z" transform="translate(42.266 95.4043)"/><path class="cls-147" d="M155.5077,138.4598c8.2615.7498,20.9459,1.5383,39.852,1.9484,17.74259.3854,30.867-.0352,40.13879-.66-6.2234-.8677-18.4731-2.1279-37.18549-2.1279C176.5593,137.6203,161.4689,138.1906,155.5077,138.4598Z" transform="translate(42.266 95.4043)"/><path class="cls-148" d="M214.36679,139.5578c-4.5836,1.8275-4.693,35.9854-4.693,35.9854l-.60979-35.9854Z" transform="translate(42.266 95.4043)"/><path class="cls-149" d="M208.65659,230.959l2.27741-.1584s.38549-9.5463.96979-22.4314c-.6019-13.9745-1.5277-29.3728-1.5787-30.2246.0422,1.4854,1.3481,47.9603-1.262,51.9696A2.918,2.918,0,0,0,208.65659,230.959Z" transform="translate(42.266 95.4043)"/><path class="cls-150" d="M179.9596,202.4186c.7145,13.6313,1.3393,24.9042,1.5048,27.8804l.2006-.0106c-.3555-6.065-1.3305-23.7654-.6565-25.4445.8149-2.0293,3.1751-3.4742,3.6556-3.175.4787.2992-1.9184,9.9458-1.797,10.7255.1056.6829.8307,14.4268,1.0067,17.7761l.2412-.0123c-.0423-2.2387-.1778-6.5895-.6196-12.9555-.6741-9.7064,3.5042-24.67,5.7975-18.605,1.9026,5.0371,1.5383,24.6912,1.3605,31.212l1.1951-.0634c-.0176-2.1067-.0511-6.5947-.0933-12.4767-1.2303-14.9812-3.1364-39.1409-3.3001-47.1155-.1971-9.6853,2.1965-11.9575,3.0818-12.4644.0247-8.6557.1056-14.6098.2781-14.99a1.20927,1.20927,0,0,1,.8043-.5051l.1268-2.5696.051-1.0226-5.6584.3291q.0105.26145.0211.5703c.2481,6.9978.9891,32.1026-.8501,40.8076-2.1437,10.1553-1.5558,3.5042-4.3419,9.4372l.4347-50.2748c-.6759.0053-1.2954.0141-1.8533.03l.2288.0563s1.9993,55.8029,0,61.0618A14.52441,14.52441,0,0,1,179.9596,202.4186Zm8.3583-19.5977s.9539,8.0327-.1197,11.0582c-1.0719,3.0272-3.4003,7.1315-4.0656,6.7109C183.4655,200.1711,184.166,182.4619,188.3179,182.8209Z" transform="translate(42.266 95.4043)"/><path class="cls-151" d="M237.77619,239.8469s-.8591-4.9124-1.575-4.9124H162.607c-.5727,0-2.2909,4.9124-2.2909,4.9124Z" transform="translate(42.266 95.4043)"/><path class="cls-152" d="M167.9052,234.9348h58.55919s-.264-4.759-3.2103-4.3613c0,0-.8343-.0299-2.2898-.0792-1.82329-.0616-4.6218-.1531-7.9834-.2587l-.0088-.0017c-.0352,0-.0704-.0018-.1074-.0036-2.1296-.0651-4.4809-.1373-6.952-.2094-.2816-.0088-.5632-.0159-.8466-.0246q-1.7688-.05295-3.5957-.1021c-2.8741-.0792-5.81859-.1549-8.69089-.2235-2.5344-.0581-5.0125-.1109-7.334-.1497h-.0281c-7.899-.1372-13.9816-.1372-14.3336.1743a2.22426,2.22426,0,0,1-2.3196.308Z" transform="translate(42.266 95.4043)"/><path class="cls-153" d="M220.96429,230.4943c-1.82329-.0616-4.6218-.1531-7.9834-.2587.9839.0581,1.9695,4.6992,1.9695,4.6992h9.3474S222.76659,231.392,220.96429,230.4943Z" transform="translate(42.266 95.4043)"/><path class="cls-154" d="M205.91269,230.0209c-.2816-.0088-.5632-.0159-.8466-.0246l.80791,4.9385h.62829Z" transform="translate(42.266 95.4043)"/><path class="cls-155" d="M192.7795,229.6707l-.3872,5.2641,9.07809.2869v-5.3275C198.59629,229.815,195.6518,229.7393,192.7795,229.6707Z" transform="translate(42.266 95.4043)"/><path class="cls-156" d="M167.9052,234.9348h2.0786s.1197-3.0395,1.6192-4.3261c1.4978-1.2883,4.9422-1.0489,5.4807-.7497.5403.2992-.6283,5.0758-.6283,5.0758h.2992s.5403-5.1058,1.5277-5.2395c.4717-.0634,3.791-.1267,7.1351-.1743-7.899-.1372-13.9816-.1372-14.3336.1743a2.22426,2.22426,0,0,1-2.3196.308Z" transform="translate(42.266 95.4043)"/><path class="cls-157" d="M181.7879,138.6024s-13.0101.5461-13.5151-9.1608-.7257-37.9643-.7257-37.9643-.5129,46.143-1.6517,46.143-1.1405-11.5434-1.1405-11.5434l-.7552,12.0591Z" transform="translate(42.266 95.4043)"/><path class="cls-158" d="M246.58009,239.847v-4.9122h-10.5152l-.537-4.9883-1.9133.2891.41941,4.6992H223.303s21.25489.3316,22.15369.781.44931,4.1312.44931,4.1312Z" transform="translate(42.266 95.4043)"/><path class="cls-159" d="M167.6628,230.299s-.3595,4.6362-.8987,4.6358-7.5343-.3628-7.9837-.038-.8089,4.9501-.8089,4.9501h-2.1569s.1198-5.0748.3295-5.0748,9.901.2397,10.0808-.03a39.95865,39.95865,0,0,0,.2396-4.4431Z" transform="translate(42.266 95.4043)"/><path class="cls-160" d="M131.8198,229.5668l.484-.1338s.2182-13.7562.5597-30.6083c.1636-8.0626.3555-16.8345.5667-25.1488.278-11.0705.5878-21.3296.9046-28.0141.227-4.782.4559-7.737.6811-7.8549a7.84522,7.84522,0,0,1,2.0575-.206h.0053c5.7411-.1707,21.1623.5122,21.1623.5122l-7.7282-1.0296s-12.9484-.6424-16.8943-.7075a8.29949,8.29949,0,0,0-1.1106.0158,55.84411,55.84411,0,0,0-.2499,6.1495c-.183,9.9212-.2904,30.2211-.3538,48.7224-.0299,8.8933-.051,17.3695-.0633,24.0769C131.825,223.8908,131.8198,229.5668,131.8198,229.5668Z" transform="translate(42.266 95.4043)"/><path class="cls-161" d="M132.8634,198.8247l-1.0225,16.5159c.0123-6.7074.0334-15.1836.0633-24.0769l1.526-17.5878Z" transform="translate(42.266 95.4043)"/><path class="cls-162" d="M133.5569,168.7408v.0352s.5421-10.773,1.4643-19.2316c.5579-5.1287,1.2531-9.409,2.0522-9.9177v-2.5432l-1.9431.1285-1.1545.0774-.1144,8.5642Z" transform="translate(42.266 95.4043)"/><path class="cls-163" d="M132.258,142.5413c.3925.1126.9979,1.5506,1.6034,3.3123.1372.3978.2728.8114.4083,1.2303.2658.8307.5227,1.6808.7515,2.4605.5579-5.1287,1.2531-9.409,2.0522-9.9177v-1.5945c-.169-.2641-.1936-.426,0-.4313a7.21956,7.21956,0,0,1-1.9431-.3889,4.37453,4.37453,0,0,1-1.5118-.836,8.29949,8.29949,0,0,0-1.1106.0158A55.84411,55.84411,0,0,0,132.258,142.5413Z" transform="translate(42.266 95.4043)"/><path class="cls-164" d="M160.7468,8.87384l.0438,9.10416a5.67774,5.67774,0,0,1,3.8172-1.4197,10.41717,10.41717,0,0,1,2.6373.3482,68.21975,68.21975,0,0,1,.4232-6.8839c1.132-3.32526,2.2766-.27734,3.1501,0,.1167.0375.1,3.2939-.0167,8.9166a4.81553,4.81553,0,0,1,.7192.9235l.2731-11.29323A3.8584,3.8584,0,0,0,170.7725,5.853a6.22982,6.22982,0,0,1-3.4524,2.5622A10.24781,10.24781,0,0,1,160.7468,8.87384Z" transform="translate(42.266 95.4043)"/><path class="cls-165" d="M161.3305,91.9833c-.213-5.4279,5.2594-52.6251,5.2594-52.6251l.2211-8.5855s-3.267,34.5964-4.2252,34.8093-1.6992-27.4648-1.6992-27.4648Z" transform="translate(42.266 95.4043)"/><polygon class="cls-166" points="94.909 154.989 24.989 141.602 27.588 160.495 80.393 159.264 94.909 154.989"/><polygon class="cls-167" points="77.319 120.718 55.713 147.285 54.675 147.285 72.058 119.618 77.319 120.718"/><polygon class="cls-168" points="77.323 268.876 71.353 331.256 98.273 331.526 101.333 264.486 77.323 268.876"/><polygon class="cls-169" points="71.203 332.776 71.153 333.266 71.203 333.266 71.203 332.776"/><polygon class="cls-170" points="28.509 184.315 30.349 333.265 66.139 333.265 67.619 286.755 62.859 286.755 65.989 189.675 28.509 184.315"/><polygon class="cls-171" points="65.997 191.77 97.023 183.815 95.883 182.623 65.997 189.673 65.997 191.77"/><polygon class="cls-172" points="77.319 255.966 100.736 253.372 100.664 252.021 75.287 249.573 77.319 255.966"/><polygon class="cls-173" points="109.423 126.363 94.179 156.425 80.393 159.264 95.709 159.265 101.333 264.486 98.273 331.526 71.353 331.256 71.203 333.266 30.349 333.265 27.589 110.325 109.423 126.363"/></g></g></g></svg>