<svg xmlns="http://www.w3.org/2000/svg" xmlns:xlink="http://www.w3.org/1999/xlink" viewBox="0 0 60.2053 70.16421"><defs><style>.cls-1{fill:none;}.cls-2{isolation:isolate;}.cls-3{clip-path:url(#clip-path);}.cls-10,.cls-11,.cls-12,.cls-13,.cls-14,.cls-15,.cls-16,.cls-17,.cls-18,.cls-19,.cls-20,.cls-21,.cls-22,.cls-23,.cls-24,.cls-25,.cls-26,.cls-27,.cls-28,.cls-29,.cls-30,.cls-31,.cls-32,.cls-33,.cls-34,.cls-35,.cls-36,.cls-37,.cls-38,.cls-39,.cls-4,.cls-40,.cls-41,.cls-42,.cls-43,.cls-44,.cls-45,.cls-46,.cls-5,.cls-6,.cls-7,.cls-8,.cls-9{fill-rule:evenodd;}.cls-4{fill:url(#linear-gradient);}.cls-5{fill:#2c002a;}.cls-6{fill:url(#Áåçûìÿííûé_ãðàäèåíò_497);}.cls-7{fill:url(#Áåçûìÿííûé_ãðàäèåíò_497-2);}.cls-8{fill:url(#Áåçûìÿííûé_ãðàäèåíò_470);}.cls-36,.cls-9{fill:#a359aa;}.cls-9{opacity:0.74;}.cls-10,.cls-14,.cls-20,.cls-24,.cls-25,.cls-31,.cls-33,.cls-34,.cls-35,.cls-36,.cls-37,.cls-38,.cls-39,.cls-40,.cls-41,.cls-42,.cls-46,.cls-9{mix-blend-mode:multiply;}.cls-10{fill:url(#Áåçûìÿííûé_ãðàäèåíò_546);}.cls-11{fill:url(#Áåçûìÿííûé_ãðàäèåíò_477);}.cls-12{fill:#ff9f90;}.cls-13{fill:url(#linear-gradient-2);}.cls-14{fill:url(#Áåçûìÿííûé_ãðàäèåíò_540);}.cls-15{fill:url(#linear-gradient-3);}.cls-16{fill:url(#Áåçûìÿííûé_ãðàäèåíò_496);}.cls-17{fill:url(#Áåçûìÿííûé_ãðàäèåíò_504);}.cls-18{fill:url(#Áåçûìÿííûé_ãðàäèåíò_504-2);}.cls-19{fill:url(#Áåçûìÿííûé_ãðàäèåíò_477-2);}.cls-20{fill:url(#linear-gradient-4);}.cls-21{fill:#392f7c;}.cls-22{fill:#250c42;}.cls-23{fill:#390c42;}.cls-24,.cls-25,.cls-35,.cls-36,.cls-37,.cls-38,.cls-39,.cls-41,.cls-42{opacity:0.5;}.cls-24{fill:url(#Áåçûìÿííûé_ãðàäèåíò_541);}.cls-25{fill:url(#Áåçûìÿííûé_ãðàäèåíò_541-2);}.cls-26{fill:#492052;}.cls-27{fill:#490a37;}.cls-28{fill:#6f273b;}.cls-29{fill:#47203b;}.cls-30{fill:#f0e;}.cls-31{fill:url(#linear-gradient-5);}.cls-32{fill:#2c1857;}.cls-33{fill:url(#linear-gradient-6);}.cls-34{fill:url(#Áåçûìÿííûé_ãðàäèåíò_540-2);}.cls-35{fill:url(#Áåçûìÿííûé_ãðàäèåíò_541-3);}.cls-37{fill:url(#Áåçûìÿííûé_ãðàäèåíò_550);}.cls-38{fill:url(#Áåçûìÿííûé_ãðàäèåíò_550-2);}.cls-39{fill:url(#Áåçûìÿííûé_ãðàäèåíò_550-3);}.cls-40{fill:url(#Áåçûìÿííûé_ãðàäèåíò_550-4);}.cls-41{fill:url(#Áåçûìÿííûé_ãðàäèåíò_264);}.cls-42{fill:url(#Áåçûìÿííûé_ãðàäèåíò_264-2);}.cls-43{fill:#253dd1;opacity:0.2;mix-blend-mode:screen;}.cls-44{fill:#ff8e1c;}.cls-45{fill:#ba3e00;}.cls-46{fill:url(#linear-gradient-7);}</style><clipPath id="clip-path" transform="translate(-399.99279 -176.5104)"><rect class="cls-1" width="600" height="270" transform="translate(600 270) rotate(180)"/></clipPath><linearGradient id="linear-gradient" x1="157.04038" y1="240.5191" x2="157.04038" y2="201.2771" gradientTransform="matrix(-1, 0, 0, 1, 600, 0)" gradientUnits="userSpaceOnUse"><stop offset="0" stop-color="#47156b"/><stop offset="1" stop-color="#29000d"/></linearGradient><linearGradient id="Áåçûìÿííûé_ãðàäèåíò_497" x1="161.26581" y1="241.048" x2="161.26581" y2="220.19322" gradientTransform="matrix(-1, 0, 0, 1, 600, 0)" gradientUnits="userSpaceOnUse"><stop offset="0" stop-color="#45003b"/><stop offset="1" stop-color="#270028"/></linearGradient><linearGradient id="Áåçûìÿííûé_ãðàäèåíò_497-2" x1="177.31931" y1="237.2729" x2="177.31931" y2="217.79285" xlink:href="#Áåçûìÿííûé_ãðàäèåíò_497"/><linearGradient id="Áåçûìÿííûé_ãðàäèåíò_470" x1="171.15388" y1="221.6166" x2="171.15388" y2="195.68106" gradientTransform="matrix(-1, 0, 0, 1, 600, 0)" gradientUnits="userSpaceOnUse"><stop offset="0" stop-color="#450f3e"/><stop offset="1" stop-color="#56003b"/></linearGradient><linearGradient id="Áåçûìÿííûé_ãðàäèåíò_546" x1="169.99501" y1="210.8033" x2="169.99501" y2="204.767" gradientTransform="matrix(-1, 0, 0, 1, 600, 0)" gradientUnits="userSpaceOnUse"><stop offset="0" stop-color="#cec7ff"/><stop offset="0.23507" stop-color="#bcafef"/><stop offset="0.72912" stop-color="#8d71c6"/><stop offset="1" stop-color="#724dae"/></linearGradient><linearGradient id="Áåçûìÿííûé_ãðàäèåíò_477" x1="176.51121" y1="216.2333" x2="176.51121" y2="193.67945" gradientTransform="matrix(-1, 0, 0, 1, 600, 0)" gradientUnits="userSpaceOnUse"><stop offset="0" stop-color="#270028"/><stop offset="1" stop-color="#45003b"/></linearGradient><linearGradient id="linear-gradient-2" x1="160.98586" y1="240.5191" x2="160.98586" y2="176.5104" gradientTransform="matrix(-1, 0, 0, 1, 600, 0)" gradientUnits="userSpaceOnUse"><stop offset="0" stop-color="#35001b"/><stop offset="1" stop-color="#430054"/></linearGradient><linearGradient id="Áåçûìÿííûé_ãðàäèåíò_540" x1="153.48371" y1="204.9943" x2="178.68321" y2="204.9943" gradientTransform="matrix(-1, 0, 0, 1, 600, 0)" gradientUnits="userSpaceOnUse"><stop offset="0" stop-color="#fff"/><stop offset="0.16801" stop-color="#ece7f4"/><stop offset="0.52373" stop-color="#bba9d8"/><stop offset="1" stop-color="#724dae"/></linearGradient><linearGradient id="linear-gradient-3" x1="169.65066" y1="204.4361" x2="169.65066" y2="191.5627" gradientTransform="matrix(-1, 0, 0, 1, 600, 0)" gradientUnits="userSpaceOnUse"><stop offset="0" stop-color="#5e0f72"/><stop offset="1" stop-color="#390054"/></linearGradient><linearGradient id="Áåçûìÿííûé_ãðàäèåíò_496" x1="174.55541" y1="211.9692" x2="174.55541" y2="204.772" gradientTransform="matrix(-1, 0, 0, 1, 600, 0)" gradientUnits="userSpaceOnUse"><stop offset="0" stop-color="#2f002c"/><stop offset="1" stop-color="#3b0948"/></linearGradient><linearGradient id="Áåçûìÿííûé_ãðàäèåíò_504" x1="159.00242" y1="246.67461" x2="159.00242" y2="235.0204" gradientTransform="matrix(-1, 0, 0, 1, 600, 0)" gradientUnits="userSpaceOnUse"><stop offset="0" stop-color="#5c223e"/><stop offset="1" stop-color="#560e3b"/></linearGradient><linearGradient id="Áåçûìÿííûé_ãðàäèåíò_504-2" x1="178.99789" y1="244.31802" x2="178.99789" y2="230.6219" xlink:href="#Áåçûìÿííûé_ãðàäèåíò_504"/><linearGradient id="Áåçûìÿííûé_ãðàäèåíò_477-2" x1="179.52573" y1="209.12817" x2="179.52573" y2="203.5008" xlink:href="#Áåçûìÿííûé_ãðàäèåíò_477"/><linearGradient id="linear-gradient-4" x1="153.0659" y1="240.5191" x2="153.0659" y2="209.9889" gradientTransform="matrix(-1, 0, 0, 1, 600, 0)" gradientUnits="userSpaceOnUse"><stop offset="0" stop-color="#c131ff"/><stop offset="1" stop-color="#b710f4"/></linearGradient><linearGradient id="Áåçûìÿííûé_ãðàäèåíò_541" x1="169.70651" y1="220.41278" x2="169.70651" y2="215.9896" gradientTransform="matrix(-1, 0, 0, 1, 600, 0)" gradientUnits="userSpaceOnUse"><stop offset="0" stop-color="#724dae"/><stop offset="0.47627" stop-color="#bba9d8"/><stop offset="0.83199" stop-color="#ece7f4"/><stop offset="1" stop-color="#fff"/></linearGradient><linearGradient id="Áåçûìÿííûé_ãðàäèåíò_541-2" x1="165.08161" y1="216.30458" x2="173.61861" y2="216.30458" xlink:href="#Áåçûìÿííûé_ãðàäèåíò_541"/><linearGradient id="linear-gradient-5" x1="152.18641" y1="214.3368" x2="152.92371" y2="214.3368" gradientTransform="matrix(-1, 0, 0, 1, 200.00721, -176.5104)" xlink:href="#linear-gradient-4"/><linearGradient id="linear-gradient-6" x1="154.40541" y1="211.45267" x2="158.32331" y2="211.45267" xlink:href="#linear-gradient-4"/><linearGradient id="Áåçûìÿííûé_ãðàäèåíò_540-2" x1="173.79676" y1="199.8824" x2="173.79676" y2="190.7452" xlink:href="#Áåçûìÿííûé_ãðàäèåíò_540"/><linearGradient id="Áåçûìÿííûé_ãðàäèåíò_541-3" x1="173.22491" y1="192.40423" x2="173.22491" y2="187.5392" xlink:href="#Áåçûìÿííûé_ãðàäèåíò_541"/><linearGradient id="Áåçûìÿííûé_ãðàäèåíò_550" x1="159.00242" y1="246.67461" x2="159.00242" y2="235.0204" gradientTransform="matrix(-1, 0, 0, 1, 600, 0)" gradientUnits="userSpaceOnUse"><stop offset="0" stop-color="#72276d"/><stop offset="0.12883" stop-color="#864682"/><stop offset="0.55893" stop-color="#c7a9c5"/><stop offset="0.85854" stop-color="#efe7ef"/><stop offset="1" stop-color="#fff"/></linearGradient><linearGradient id="Áåçûìÿííûé_ãðàäèåíò_550-2" x1="178.99789" y1="244.31802" x2="178.99789" y2="230.6219" xlink:href="#Áåçûìÿííûé_ãðàäèåíò_550"/><linearGradient id="Áåçûìÿííûé_ãðàäèåíò_550-3" x1="166.43731" y1="222.1855" x2="166.43731" y2="215.9893" xlink:href="#Áåçûìÿííûé_ãðàäèåíò_550"/><linearGradient id="Áåçûìÿííûé_ãðàäèåíò_550-4" x1="191.20786" y1="213.041" x2="191.20786" y2="206.3143" gradientTransform="matrix(-1, 0, 0, 1, 200.00721, -176.5104)" xlink:href="#Áåçûìÿííûé_ãðàäèåíò_550"/><linearGradient id="Áåçûìÿííûé_ãðàäèåíò_264" x1="156.33776" y1="236.5395" x2="156.33776" y2="230.8964" gradientTransform="matrix(-1, 0, 0, 1, 600, 0)" gradientUnits="userSpaceOnUse"><stop offset="0" stop-color="#724ddb"/><stop offset="0.47627" stop-color="#bba9ee"/><stop offset="0.83199" stop-color="#ece7fa"/><stop offset="1" stop-color="#fff"/></linearGradient><linearGradient id="Áåçûìÿííûé_ãðàäèåíò_264-2" x1="176.32311" y1="232.5852" x2="176.32311" y2="228.4242" xlink:href="#Áåçûìÿííûé_ãðàäèåíò_264"/><linearGradient id="linear-gradient-7" x1="155.96621" y1="212.60993" x2="157.14711" y2="212.60993" xlink:href="#linear-gradient-4"/></defs><title>maga</title><g class="cls-2"><g id="Ñëîé_1" data-name="Ñëîé 1"><g class="cls-3"><path class="cls-4" d="M437.70769,220.1932s14.2989,9.0246,16.8638,20.3259a19.36078,19.36078,0,0,0,2.178-16.0312c-2.8032-9.0722-15.3068-15.324-19.5387-17.0071s-8.89679-6.2037-8.89679-6.2037S432.19329,217.3723,437.70769,220.1932Z" transform="translate(-399.99279 -176.5104)"/><path class="cls-5" d="M439.01409,221.6194a14.5777,14.5777,0,0,1-5.0575.6252c-2.2274-.2661-8.512-2.116-10.4677-2.5488a6.39955,6.39955,0,0,1-3.2221-1.9878l5.1778-.4167S437.40309,219.2149,439.01409,221.6194Z" transform="translate(-399.99279 -176.5104)"/><path class="cls-5" d="M420.29889,230.6206s3.9274-.0082,5.5144,2.3001A6.9528,6.9528,0,0,1,420.29889,230.6206Z" transform="translate(-399.99279 -176.5104)"/><path class="cls-5" d="M438.73419,235.0207a12.01554,12.01554,0,0,1,6.3794,1.5389S441.26759,237.1687,438.73419,235.0207Z" transform="translate(-399.99279 -176.5104)"/><path class="cls-6" d="M438.07289,221.0464s1.8149,6.408,2.937,7.8828a9.57249,9.57249,0,0,1,2.72511,1.7954c.67329.8656,1.37859,10.3234,1.37859,10.3234l-2.0518-.5289s-2.7091-7.5141-4.0477-9.4719l-1.4346-.8676-.3527-.8016a21.62193,21.62193,0,0,1-2.629-3.1098,28.939,28.939,0,0,1-2.243-5.9428S436.67489,219.736,438.07289,221.0464Z" transform="translate(-399.99279 -176.5104)"/><path class="cls-7" d="M426.68059,219.9433a20.37445,20.37445,0,0,0-4.2337,6.2608s1.8292,1.1622,2.1169,2.2201-.1452,8.8487-.1452,8.8487h-1.7553s-2.3324-8.9208-3.2942-10.8124l-.6883-.7053s.3683-5.2481,2.468-7.9621A8.79669,8.79669,0,0,1,426.68059,219.9433Z" transform="translate(-399.99279 -176.5104)"/><path class="cls-8" d="M425.45959,209.4362l.1625.4822c-1.2513,1.061-3.561,4.7768-4.693,6.6677h-.0025c-.40359.6776-.6599,1.1218-.6599,1.1218a9.62982,9.62982,0,0,1,1.8909.2894c.4645.1472,1.868.8604,3.2868,1.4619a15.05332,15.05332,0,0,0,2.0991.7487c1.7969.4493,3.7208,0,7.0229.1295.0787.0025.1574.0076.2335.0127,3.0229.1624,4.1422,1.2005,4.2108,1.2665a14.26171,14.26171,0,0,1-.9645-2.1599v-.0026c-.83-2.2005-1.6828-5.0584-1.9899-5.5534a19.8227,19.8227,0,0,0-2.4848-2.429l-.12949-.335.78679-.8198-.78679-.5279v-1.2742l-8.94431-10.5154s-6.2514-4.2716-5.792-1.2183a23.79753,23.79753,0,0,0,2.2666,6.4367A17.87993,17.87993,0,0,1,425.45959,209.4362Z" transform="translate(-399.99279 -176.5104)"/><path class="cls-9" d="M434.91839,219.6048s-5.4262-.1399-6.3399-.5174-2.5248-2.0043-3.6309-2.5013-3.92359-.1582-3.92359-.1582l3.50679-6.1098,2.7733.0962-1.8026,3.6549Z" transform="translate(-399.99279 -176.5104)"/><path class="cls-10" d="M434.22879,210.3169a27.22344,27.22344,0,0,1-6.7163-.7522l5.92951.2243a25.22171,25.22171,0,0,1-4.59591-.6603l2.5241-1.7001-3.6333-2.6616-1.9557,5.5505s5.9312.5317,8.1754.4826Z" transform="translate(-399.99279 -176.5104)"/><path class="cls-11" d="M422.15759,210.8956a20.55739,20.55739,0,0,0-3.6701,2.4518,8.60957,8.60957,0,0,0,.6573,2.0051l.528.0305.2081.2259.835.1904.3198.1624.7386.1116.4975.16,1.4264-.4163.0635-.4162h-.5128v-1.0102l1.297-.8021-.1268-1.6193a17.09616,17.09616,0,0,0,4.3122-5.6752l-.297-.7361s-2.5254-10.5484-4.9442-11.4139a10.96907,10.96907,0,0,0-5.2438-.2563s1.3985,5.3529,2.3402,6.8605a31.33454,31.33454,0,0,0,3.8173,4.1676C424.12969,206.1341,422.15759,210.8956,422.15759,210.8956Z" transform="translate(-399.99279 -176.5104)"/><path class="cls-12" d="M420.379,183.0507a7.17971,7.17971,0,0,0-1.10611,3.2702H420.379Z" transform="translate(-399.99279 -176.5104)"/><path class="cls-13" d="M420.379,176.5104s-.62521,7.0453-.553,10.1711a15.23769,15.23769,0,0,1,1.99569,1.9718l-1.9156-1.5389-.08009,3.5106-.31261.9377s-1.5229,1.1703-1.6832,2.0679a36.00713,36.00713,0,0,0,14.5234,14.3311c10.0029,5.1938,21.3042,7.983,23.8049,16.1103s-1.587,16.4471-1.587,16.4471a8.55537,8.55537,0,0,0,5.6266-7.1656,22.84817,22.84817,0,0,1-2.5007-3.0778,19.73587,19.73587,0,0,0-2.2363-8.9448c-2.4365-4.8411-8.1994-9.9067-13.84209-15.1646a24.81851,24.81851,0,0,1-6.925-12.4395,14.28024,14.28024,0,0,0-2.43661-1.2824,5.26486,5.26486,0,0,0-.553-2.7331,21.30579,21.30579,0,0,1-1.563-5.0255,8.99947,8.99947,0,0,0-.553-2.8855c-.4088-.7213-3.0538-3.4865-7.7887-4.4779A4.56227,4.56227,0,0,0,420.379,176.5104Z" transform="translate(-399.99279 -176.5104)"/><path class="cls-14" d="M426.64749,203.1518a66.42937,66.42937,0,0,0,9.2167,4.0885c4.5686,1.5389,10.6521,4.2124,10.6521,4.2124a73.9774,73.9774,0,0,1-7.7666-4.1505,7.2742,7.2742,0,0,1-2.4046-2.5302,44.21312,44.21312,0,0,1,6.2891,2.3376,23.96988,23.96988,0,0,1-5.021-5.9867l-1.0313-2.3225-7.7358-.2645h-7.5293l2.9335,3.2377Z" transform="translate(-399.99279 -176.5104)"/><path class="cls-15" d="M417.83009,193.6313c.3832,2.4899,2.4188,7.1042,3.22591,8.8707.20559.4493.33249.7158.33249.7158,1.4442-.995,5.259-.066,5.259-.066l-1.9873-3.5889.703.0305a29.63752,29.63752,0,0,0,4.61681,4.8427h2.37319a32.45951,32.45951,0,0,1-4.4569-4.8732l1.3553.1269a60.42765,60.42765,0,0,0,5.0407,4.457l4.7209-.1295a24.86442,24.86442,0,0,1-3.4214-4.5686l.594.1447c1.4416,2.1015,4.8884,3.8147,4.8884,3.8147l1.7944-.3198c-.2487-.1522-.4924-.3096-.7284-.4721a21.47756,21.47756,0,0,1-7.3733-8.9138,7.97535,7.97535,0,0,0-2.5101-1.2589,16.93128,16.93128,0,0,1,.3375,3.1346c-.9619-.1447-4.2564-2.3072-6.2032-3.0306-1.9492-.7208-6.8783-.9848-6.8783-.9848A4.1327,4.1327,0,0,0,417.83009,193.6313Z" transform="translate(-399.99279 -176.5104)"/><path class="cls-16" d="M424.41859,211.9692a2.97745,2.97745,0,0,0-2.2602-1.074l2.2442-5.9793a4.18278,4.18278,0,0,1,4.3282,1.3786A19.10915,19.10915,0,0,1,424.41859,211.9692Z" transform="translate(-399.99279 -176.5104)"/><path class="cls-17" d="M435.673,243.7262l.00509.0203a5.34507,5.34507,0,0,0,2.5432,1.8223,8.49887,8.49887,0,0,0,3.4468.0965l1.0406.335.3528.566a11.66255,11.66255,0,0,0,3.2386,0c.0128-.1599.0203-.3223.0203-.4848a13.30157,13.30157,0,0,0-.104-1.8122,11.57068,11.57068,0,0,1-.7817-2.3808,23.94247,23.94247,0,0,1-.3198-5.33,19.34929,19.34929,0,0,1-6.38089-1.5381l4.08639,6.4291-.4467.4797.5609.6573a4.60939,4.60939,0,0,1-1.6193.4645C440.19339,243.2109,435.673,243.5967,435.673,243.7262Z" transform="translate(-399.99279 -176.5104)"/><path class="cls-18" d="M416.325,238.8682a5.99639,5.99639,0,0,0,.71059,1.4112,4.85541,4.85541,0,0,0,3.4646,2.0432,10.31137,10.31137,0,0,1,1.4899,1.2995,3.64455,3.64455,0,0,0,2.8122.6472l.3096-.4924h.0026l.2183-.3477s-.3605-1.5407-.6726-3.3909c-.3148-1.8529,1.1523-7.1169,1.1523-7.1169s-3.9113-.962-5.5128-2.2995l2.1802,8.4697-.5127-.2564.4163,1.0254a17.4812,17.4812,0,0,1-6.09149-2.1777S416.04579,238.0129,416.325,238.8682Z" transform="translate(-399.99279 -176.5104)"/><path class="cls-19" d="M417.33769,206.5427a1.88728,1.88728,0,0,0,.1802,1.2513l.1447.1193.05841.7361a2.457,2.457,0,0,0,.52529.2106l.0254.0076a8.40631,8.40631,0,0,0,2.8757.2361c.1472-.0076.2995-.0203.4568-.0356l.1803-.2538,1.2386-.0584.7995-2.2944-.0787-.1168-1.6016-.302-.1751-1.2716s-2.60919-1.3173-2.731-1.269c-.1193.0482-2.0203.4924-2.0203.4924a1.61844,1.61844,0,0,0,.0862,1.2513A2.58347,2.58347,0,0,0,417.33769,206.5427Z" transform="translate(-399.99279 -176.5104)"/><path class="cls-20" d="M454.57149,240.5191s-3.5699-22.3301-18.0412-30.5302c0,0,15.3962,4.6574,19.1954,12.3358C459.935,230.8322,454.57149,240.5191,454.57149,240.5191Z" transform="translate(-399.99279 -176.5104)"/><path class="cls-21" d="M421.056,202.502c.20559.4493.33249.7158.33249.7158,1.4442-.995,5.259-.066,5.259-.066l-1.9873-3.5889.703.0305a29.63752,29.63752,0,0,0,4.61681,4.8427h2.37319a32.45951,32.45951,0,0,1-4.4569-4.8732l1.3553.1269a60.42765,60.42765,0,0,0,5.0407,4.457l4.7209-.1295a24.86442,24.86442,0,0,1-3.4214-4.5686l.594.1447c1.4416,2.1015,4.8884,3.8147,4.8884,3.8147l1.7944-.3198c-.2487-.1522-.4924-.3096-.7284-.4721l-1.1143.1676a33.91194,33.91194,0,0,1-4.75389-3.4773h-1.37051a36.68193,36.68193,0,0,0,3.2944,4.193h-3.7742l-5.0026-4.193-2.23609-.1954,3.99249,4.7387-1.0102.1193c-2.0685-1.1523-4.7209-4.858-4.7209-4.858l-1.2411.1701,1.2411,2.9822C421.99769,201.5426,421.056,202.502,421.056,202.502Z" transform="translate(-399.99279 -176.5104)"/><path class="cls-22" d="M433.57189,211.4723a34.65988,34.65988,0,0,1-7.3784-1.3445,51.60229,51.60229,0,0,0,7.7631.6723Z" transform="translate(-399.99279 -176.5104)"/><path class="cls-23" d="M420.26669,217.7079a9.62982,9.62982,0,0,1,1.8909.2894,54.19944,54.19944,0,0,0,5.3859,2.2106c1.7969.4493,3.7208,0,7.0229.1295,3.198.1218,4.3732,1.2107,4.4443,1.2792l-.9645-2.1599v-.0026a17.6388,17.6388,0,0,0-6.4291-.2081c-4.3605.4493-7.5559-1.9543-10.688-2.6599h-.0025C420.523,217.2637,420.26669,217.7079,420.26669,217.7079Z" transform="translate(-399.99279 -176.5104)"/><path class="cls-24" d="M425.44439,219.4592a15.05332,15.05332,0,0,0,2.0991.7487c1.7969.4493,3.7208,0,7.0229.1295.0787.0025.1574.0076.2335.0127a13.329,13.329,0,0,1,.3427-4.3605S428.57139,216.8805,425.44439,219.4592Z" transform="translate(-399.99279 -176.5104)"/><path class="cls-25" d="M434.91839,215.3035s-4.6666.932-8.537,2.1492C426.38139,217.4527,428.92309,214.4699,434.91839,215.3035Z" transform="translate(-399.99279 -176.5104)"/><path class="cls-26" d="M424.41859,211.9692a6.909,6.909,0,0,0-2.2602-1.074l.1193-.3179a3.335,3.335,0,0,1,2.2531,1.2316Z" transform="translate(-399.99279 -176.5104)"/><path class="cls-26" d="M428.13069,207.4155a5.65109,5.65109,0,0,0-4.0986-1.5124l.3705-.9872a4.14337,4.14337,0,0,1,4.3282,1.3786A11.37017,11.37017,0,0,1,428.13069,207.4155Z" transform="translate(-399.99279 -176.5104)"/><path class="cls-26" d="M422.14219,206.042l-.3565,2.7733A3.88888,3.88888,0,0,0,422.14219,206.042Z" transform="translate(-399.99279 -176.5104)"/><path class="cls-26" d="M422.44689,226.2041a6.06633,6.06633,0,0,1-3.0778.2564l-.6883-.7053S419.11259,226.3323,422.44689,226.2041Z" transform="translate(-399.99279 -176.5104)"/><path class="cls-26" d="M441.00989,228.9292a4.33391,4.33391,0,0,0-2.7011,1.6914l-.7293-.441s.6168-1.3739,3.2018-1.6007Z" transform="translate(-399.99279 -176.5104)"/><path class="cls-27" d="M425.40629,234.5139a8.72648,8.72648,0,0,1-4.276-.6624l-.8314-3.2309s1.2583,1.1219,5.5144,2.3001Z" transform="translate(-399.99279 -176.5104)"/><path class="cls-27" d="M445.11359,236.5596l-.0215,1.8589a13.92011,13.92011,0,0,1-4.6838-.7649l-1.6741-2.6329A27.75607,27.75607,0,0,0,445.11359,236.5596Z" transform="translate(-399.99279 -176.5104)"/><path class="cls-27" d="M435.673,243.7262a5.188,5.188,0,0,0,2.54829,1.8426,8.49887,8.49887,0,0,0,3.4468.0965l1.0406.335.3528.566a11.66255,11.66255,0,0,0,3.2386,0c.0128-.1599.0203-.3223.0203-.4848a15.91476,15.91476,0,0,1-2.6827,0c-.6549-.1446-2.1473-.5761-2.1473-.5761S437.30759,246.0663,435.673,243.7262Z" transform="translate(-399.99279 -176.5104)"/><path class="cls-27" d="M416.325,238.8682a5.99639,5.99639,0,0,0,.71059,1.4112,4.85541,4.85541,0,0,0,3.4646,2.0432,10.31137,10.31137,0,0,1,1.4899,1.2995,3.64455,3.64455,0,0,0,2.8122.6472l.3096-.4924a6.549,6.549,0,0,1-3.0508-.3959,4.88225,4.88225,0,0,1-1.3706-1.2259S417.99249,242.2008,416.325,238.8682Z" transform="translate(-399.99279 -176.5104)"/><path class="cls-28" d="M424.03209,213.906l18.3564,6.2872a3.612,3.612,0,0,1-.7077,1.9923l-18.4324-7.0343v-.7614Z" transform="translate(-399.99279 -176.5104)"/><polygon class="cls-28" points="19.572 35.997 9.662 32.618 7.45 32.138 8.764 33.617 18.533 37.096 18.495 36.837 19.572 35.997"/><polygon class="cls-29" points="9.879 32.692 8.7 31.163 0.653 29.804 6.264 33.617 9.388 33.84 8.764 33.617 7.45 32.138 9.879 32.692"/><polygon class="cls-30" points="7.193 32.004 6.6 31.211 2.368 30.345 5.141 31.822 7.193 32.004"/><path class="cls-30" d="M426.19349,214.6463s-.7489.0411-.7489,1.343l-2.1962-.8381v-.7614l.7837-.4838Z" transform="translate(-399.99279 -176.5104)"/><path class="cls-30" d="M419.56479,212.5075l-2.112-.7201s-.73279.1292-.5143,1.2536l1.5871.5651-.0381-.2583Z" transform="translate(-399.99279 -176.5104)"/><path class="cls-30" d="M442.38849,220.1932s-.7743.186-.7077,1.9923A1.66457,1.66457,0,0,0,442.38849,220.1932Z" transform="translate(-399.99279 -176.5104)"/><path class="cls-21" d="M421.79969,177.3224a5.21757,5.21757,0,0,0-1.42069,2.7467c-.40071,1.8682,0,7.0918,0,7.0918l-.553-.4794s.18429-9.0856.553-10.1711A2.24422,2.24422,0,0,1,421.79969,177.3224Z" transform="translate(-399.99279 -176.5104)"/><polygon class="cls-21" points="20.386 10.984 20.386 14.235 19.52 15.052 19.833 14.115 19.913 10.604 20.386 10.984"/><polygon class="cls-31" points="47.821 38.437 47.083 37.216 47.245 38.105 47.821 38.437"/><path class="cls-32" d="M456.72519,226.5251s-2.2278-4.7403-5.2315-5.627C451.49369,220.8981,452.90219,227.086,456.72519,226.5251Z" transform="translate(-399.99279 -176.5104)"/><path class="cls-32" d="M452.80509,224.9247a1.00334,1.00334,0,0,0-.8489-.7668S452.34679,225.0218,452.80509,224.9247Z" transform="translate(-399.99279 -176.5104)"/><path class="cls-33" d="M445.59459,212.7776s-1.4878-2.6637-3.9179-2.6498C441.67669,210.1278,442.47059,211.8757,445.59459,212.7776Z" transform="translate(-399.99279 -176.5104)"/><path class="cls-34" d="M419.51279,191.5627l.86621-.8175,6.05939,1.603,3.687,1.3307-.8727-.0963a21.05842,21.05842,0,0,0,2.7096,1.1541c.602.1104.5956,0,.5956,0l.4209,1.7473s-4.1519-1.8274-6.21979-2.4686a47.49549,47.49549,0,0,0,6.97319,5.867,63.63,63.63,0,0,1-8.2876-4.8411s-3.2842-1.4423-4.6317-1.3624a36.06434,36.06434,0,0,0,9.5365,5.915,30.35331,30.35331,0,0,1-8.0776-3.6228c-3.9286-2.5649-3.5902-3.7336-3.5902-3.7336Z" transform="translate(-399.99279 -176.5104)"/><path class="cls-35" d="M422.41489,187.5392a21.28173,21.28173,0,0,0,4.8892,4.0235,6.0932,6.0932,0,0,0,3.8312.7855Z" transform="translate(-399.99279 -176.5104)"/><path class="cls-9" d="M428.50859,206.042s-1.25259-1.4627-4.106-1.1261l-1.9514-1.9299a4.70658,4.70658,0,0,1,2.6796-.1086,21.35266,21.35266,0,0,0,3.30321,2.6797Z" transform="translate(-399.99279 -176.5104)"/><path class="cls-36" d="M438.87419,223.6804s-4.2051-.3993-6.1964-2.232l-.323-1.123a14.048,14.048,0,0,1,5.8875.7994Z" transform="translate(-399.99279 -176.5104)"/><path class="cls-36" d="M423.74109,223.6804l-3.0947-5.1371.5024-.7502a17.23617,17.23617,0,0,1,5.2027,2.4857Z" transform="translate(-399.99279 -176.5104)"/><path class="cls-36" d="M441.075,235.3673a21.36262,21.36262,0,0,0,3.636,1.1722,19.98139,19.98139,0,0,1-3.48051-.7225Z" transform="translate(-399.99279 -176.5104)"/><path class="cls-36" d="M424.63459,232.0865a16.04076,16.04076,0,0,1-3.7022-1.0424,14.7403,14.7403,0,0,0,3.7407,1.5411Z" transform="translate(-399.99279 -176.5104)"/><path class="cls-37" d="M435.673,243.7262l.00509.0203a5.34507,5.34507,0,0,0,2.5432,1.8223,8.49887,8.49887,0,0,0,3.4468.0965l1.0406.335.3528.566a11.66255,11.66255,0,0,0,3.2386,0c.0128-.1599.0203-.3223.0203-.4848a13.30157,13.30157,0,0,0-.104-1.8122,11.57068,11.57068,0,0,1-.7817-2.3808,23.94247,23.94247,0,0,1-.3198-5.33,19.34929,19.34929,0,0,1-6.38089-1.5381l4.08639,6.4291,1.13961.9772-1.58631-.4975.5609.6573s.4163,1.9392-3.127,2.0204S435.673,243.7262,435.673,243.7262Z" transform="translate(-399.99279 -176.5104)"/><path class="cls-38" d="M416.325,238.8682a5.99639,5.99639,0,0,0,.71059,1.4112,4.85541,4.85541,0,0,0,3.4646,2.0432,10.31137,10.31137,0,0,1,1.4899,1.2995,3.64455,3.64455,0,0,0,2.8122.6472l.3096-.4924h.0026l.2183-.3477s-.3605-1.5407-.6726-3.3909c-.3148-1.8529,1.1523-7.1169,1.1523-7.1169s-3.9113-.962-5.5128-2.2995l2.1802,8.4697.5203,1.104-1.033-1.3604.4163,1.0254a5.9919,5.9919,0,0,1-.3224,1.4518,7.42158,7.42158,0,0,1-4.231-.7944,4.26088,4.26088,0,0,1-1.53809-2.8351S416.04579,238.0129,416.325,238.8682Z" transform="translate(-399.99279 -176.5104)"/><path class="cls-39" d="M441.68079,222.1855s-11.9882-5.4462-16.2362-6.1962Z" transform="translate(-399.99279 -176.5104)"/><polygon class="cls-40" points="16.946 36.531 8.965 33.479 7.598 32.305 8.356 33.158 6.704 33.231 0.653 29.804 6.264 33.617 9.388 33.84 16.946 36.531"/><path class="cls-36" d="M422.27179,216.2333l1.4264-.4163.0635-.4162h-.5128v-1.0102l1.297-.8021-.1268-1.6193a17.09616,17.09616,0,0,0,4.3122-5.6752,35.28844,35.28844,0,0,1-4.4646,5.4925l-.1116,1.5482-1.5762,1.0102Z" transform="translate(-399.99279 -176.5104)"/><path class="cls-36" d="M419.56359,205.6899a1.31661,1.31661,0,0,1,.2132.8884l-1.5305.0253,1.5432.2031s.1396.3096-.2259.9797h-1.0609l1.0609.1751a4.1224,4.1224,0,0,1-.1701.8528l-1.1472.0457.0254.0076a8.40631,8.40631,0,0,0,2.8757.2361l-.4569-2.297-.6243-.764-.32719-1.0863-.33781-.0485s-.7196,1.603-2.0635,1.6348a1.95218,1.95218,0,0,0,1.6777-.8299Z" transform="translate(-399.99279 -176.5104)"/><path class="cls-41" d="M442.61349,235.9534s-.0076-4.3162,1.2143-5.057c0,0,.4806,1.1347.88321,5.6431Z" transform="translate(-399.99279 -176.5104)"/><path class="cls-42" d="M424.67309,232.5852s-.0604-3.3194-.1093-4.161a6.6486,6.6486,0,0,0-1.8831,3.3904Z" transform="translate(-399.99279 -176.5104)"/><path class="cls-43" d="M424.03209,211.9692a8.29125,8.29125,0,0,1-.2095.8657,12.02658,12.02658,0,0,1-1.3714,1.4427l-.8859-.2565-.4179-.016-.2875-.2245-.8175-.048-.2725-.1265-1.2824-.2583a23.91192,23.91192,0,0,1,3.2982-2.2203A4.48225,4.48225,0,0,1,424.03209,211.9692Z" transform="translate(-399.99279 -176.5104)"/><path class="cls-43" d="M419.23619,203.5021l-2.0027,2.3426a3.93637,3.93637,0,0,0,1.8438-.8883,1.602,1.602,0,0,0,.4875-1.1305Z" transform="translate(-399.99279 -176.5104)"/><path class="cls-36" d="M417.30209,205.2458l.812-1.4634-.8982.2121S416.84559,204.7882,417.30209,205.2458Z" transform="translate(-399.99279 -176.5104)"/><path class="cls-9" d="M432.59429,195.5781l4.3012,1.8507s-1.7206-2.7081-2.20149-3.702a8.62385,8.62385,0,0,0-2.43721-1.2833Z" transform="translate(-399.99279 -176.5104)"/><path class="cls-43" d="M429.58839,181.8003a24.30588,24.30588,0,0,1-5.282-1.0579,3.99319,3.99319,0,0,1-2.5067-3.42S425.60489,177.5684,429.58839,181.8003Z" transform="translate(-399.99279 -176.5104)"/><path class="cls-43" d="M423.48879,202.7863a28.50968,28.50968,0,0,1-5.6587-9.155s.9611,5.7082,3.5584,9.5865A9.081,9.081,0,0,1,423.48879,202.7863Z" transform="translate(-399.99279 -176.5104)"/><polygon class="cls-36" points="41.72 44.886 41.145 44.5 34.765 42.304 41.72 44.886"/><polygon class="cls-36" points="8.525 32.384 14.295 34.449 9.205 32.942 8.525 32.384"/><polygon class="cls-36" points="15.986 35.459 14.471 34.763 12.86 34.449 15.986 35.459"/><polygon class="cls-9" points="23.256 29.741 23.03 32.246 23.83 29.951 23.751 29.834 23.256 29.741"/><path class="cls-44" d="M420.379,176.5104l-.05011,4.7585.05011,9.4763-.53561-2.8462-.0226-1.5781h-.5479a8.53752,8.53752,0,0,1,.595-2.5751S419.27189,183.0288,420.379,176.5104Z" transform="translate(-399.99279 -176.5104)"/><path class="cls-44" d="M419.90609,187.1144l.47291,3.6308-.86621,1.1155-1.3989,2.0993,1.1286,3.6593,1.417,4.002-1.2728-3.1967,1.5856,4.7932a20.4237,20.4237,0,0,1-2.432-6.5752l-.934-3.3535s.6284-.6965,1.9912-1.9799l.22851-.6842Z" transform="translate(-399.99279 -176.5104)"/><path class="cls-44" d="M419.23619,203.5021l-1.6683.6969a1.62892,1.62892,0,0,0,0,1.0468,1.91078,1.91078,0,0,0-.1058,1.2391,2.38043,2.38043,0,0,0,.1651,1.3002l.1651.0716-.07129.7927-.05841-.7361-.2005-.1291s-.3295-.1351-.1244-1.2415a1.50894,1.50894,0,0,1-.0356-1.2969s-.35209-.0131-.2279-1.33Z" transform="translate(-399.99279 -176.5104)"/><path class="cls-44" d="M423.55469,207.2302l-.971,3.7291-4.0962,2.3885a23.82607,23.82607,0,0,1,3.6196-2.4815Z" transform="translate(-399.99279 -176.5104)"/><polygon class="cls-44" points="9.879 32.692 8.7 31.163 0.653 29.804 1.329 30.263 0 29.532 8.907 30.954 9.879 32.692"/><polygon class="cls-44" points="21.716 39.854 20.274 41.198 21.031 39.918 21.716 39.854"/><path class="cls-44" d="M420.64639,218.5433a17.09305,17.09305,0,0,0-1.9656,7.2119l.6883.7053,1.5633,4.5836.259.1113-1.5772-4.6563-.6119-.6815S419.81829,222.4762,420.64639,218.5433Z" transform="translate(-399.99279 -176.5104)"/><polygon class="cls-44" points="20.307 54.112 21.199 54.69 22.688 62.884 23.007 63.685 21.974 62.325 22.487 62.581 20.307 54.112"/><path class="cls-44" d="M422.38349,239.8606a21.45636,21.45636,0,0,1-2.79649-.4665,9.16046,9.16046,0,0,1-3.295-1.7112A29.41752,29.41752,0,0,0,422.38349,239.8606Z" transform="translate(-399.99279 -176.5104)"/><path class="cls-44" d="M432.67779,221.4484s1.0173,5.075,4.549,7.9296l.3527.8016,1.4346.8676,2.06091,4.3201-1.646-4.3232-1.517-.8191-.33251-1.0744S434.92869,227.6333,432.67779,221.4484Z" transform="translate(-399.99279 -176.5104)"/><path class="cls-44" d="M438.734,235.0204l.86779.3469,3.60421,6.2494.754.81-1.58631-.4975.4467-.4797S438.65519,234.9041,438.734,235.0204Z" transform="translate(-399.99279 -176.5104)"/><path class="cls-44" d="M442.93459,242.5865a5.27587,5.27587,0,0,1-2.1625.9232,22.841,22.841,0,0,1-5.094.2368,7.29091,7.29091,0,0,1,2.8807-.4304A19.11234,19.11234,0,0,0,442.93459,242.5865Z" transform="translate(-399.99279 -176.5104)"/><polygon class="cls-45" points="34.236 33.807 32.644 33.248 33.449 33.279 34.236 33.807"/><path class="cls-45" d="M433.57189,211.4723l-.6506-.057s2.55871,2.1262,3.0145,2.7054a23.04,23.04,0,0,1,1.4369,3.445,35.31621,35.31621,0,0,0-1.3164-3.665A12.551,12.551,0,0,0,433.57189,211.4723Z" transform="translate(-399.99279 -176.5104)"/><polygon class="cls-45" points="42.396 43.683 37.593 42.304 26.201 38.136 42.396 43.683"/><path class="cls-45" d="M443.735,230.7246l-3.44111-1.6012.716-.1942A6.4026,6.4026,0,0,1,443.735,230.7246Z" transform="translate(-399.99279 -176.5104)"/><path class="cls-45" d="M445.11489,236.5585a14.42109,14.42109,0,0,1-3.3907-.6051l2.98681.3298Z" transform="translate(-399.99279 -176.5104)"/><polygon class="cls-45" points="25.82 56.411 25.442 56.285 25.658 57.019 25.82 56.411"/><path class="cls-46" d="M444.03379,212.9542s-.116-.59-.5307-.6701a.78875.78875,0,0,0-.6502.1262Z" transform="translate(-399.99279 -176.5104)"/></g></g></g></svg>