<svg xmlns="http://www.w3.org/2000/svg" xmlns:xlink="http://www.w3.org/1999/xlink" viewBox="0 0 490.72639 161.681"><defs><style>.cls-1{fill:none;}.cls-2{isolation:isolate;}.cls-3{clip-path:url(#clip-path);}.cls-10,.cls-11,.cls-12,.cls-13,.cls-14,.cls-15,.cls-16,.cls-17,.cls-18,.cls-19,.cls-20,.cls-21,.cls-22,.cls-23,.cls-24,.cls-25,.cls-26,.cls-27,.cls-28,.cls-29,.cls-30,.cls-31,.cls-32,.cls-33,.cls-34,.cls-35,.cls-36,.cls-37,.cls-38,.cls-39,.cls-4,.cls-40,.cls-41,.cls-42,.cls-43,.cls-5,.cls-6,.cls-7,.cls-8,.cls-9{fill-rule:evenodd;}.cls-4{fill:url(#Áåçûìÿííûé_ãðàäèåíò_3);}.cls-5{fill:url(#Áåçûìÿííûé_ãðàäèåíò_134);}.cls-6{fill:url(#Áåçûìÿííûé_ãðàäèåíò_134-2);}.cls-7{fill:url(#Áåçûìÿííûé_ãðàäèåíò_134-3);}.cls-8{fill:url(#Áåçûìÿííûé_ãðàäèåíò_134-4);}.cls-9{fill:url(#Áåçûìÿííûé_ãðàäèåíò_134-5);}.cls-10{fill:url(#Áåçûìÿííûé_ãðàäèåíò_134-6);}.cls-11{fill:url(#Áåçûìÿííûé_ãðàäèåíò_134-7);}.cls-12{fill:url(#Áåçûìÿííûé_ãðàäèåíò_134-8);}.cls-13{fill:url(#Áåçûìÿííûé_ãðàäèåíò_134-9);}.cls-14{fill:url(#Áåçûìÿííûé_ãðàäèåíò_134-10);}.cls-15{fill:url(#Áåçûìÿííûé_ãðàäèåíò_134-11);}.cls-16{fill:url(#Áåçûìÿííûé_ãðàäèåíò_134-12);}.cls-17{fill:url(#Áåçûìÿííûé_ãðàäèåíò_134-13);}.cls-18{fill:url(#Áåçûìÿííûé_ãðàäèåíò_134-14);}.cls-19{fill:url(#Áåçûìÿííûé_ãðàäèåíò_134-15);}.cls-20{fill:url(#Áåçûìÿííûé_ãðàäèåíò_134-16);}.cls-21{fill:#d92242;}.cls-22{fill:#253dd1;opacity:0.5;}.cls-22,.cls-26{mix-blend-mode:multiply;}.cls-23{fill:#430f3f;}.cls-24{fill:#be9786;}.cls-24,.cls-25{mix-blend-mode:soft-light;}.cls-25{fill:#e4d4cd;}.cls-26{fill:#231e90;}.cls-27{fill:url(#Áåçûìÿííûé_ãðàäèåíò_134-17);}.cls-28{fill:url(#Áåçûìÿííûé_ãðàäèåíò_134-18);}.cls-29{fill:url(#Áåçûìÿííûé_ãðàäèåíò_134-19);}.cls-30{fill:url(#Áåçûìÿííûé_ãðàäèåíò_134-20);}.cls-31{fill:url(#Áåçûìÿííûé_ãðàäèåíò_134-21);}.cls-32{fill:url(#Áåçûìÿííûé_ãðàäèåíò_134-22);}.cls-33{fill:url(#Áåçûìÿííûé_ãðàäèåíò_134-23);}.cls-34{fill:url(#Áåçûìÿííûé_ãðàäèåíò_134-24);}.cls-35{fill:url(#Áåçûìÿííûé_ãðàäèåíò_134-25);}.cls-36{fill:url(#Áåçûìÿííûé_ãðàäèåíò_134-26);}.cls-37{fill:url(#Áåçûìÿííûé_ãðàäèåíò_134-27);}.cls-38{fill:url(#Áåçûìÿííûé_ãðàäèåíò_134-28);}.cls-39{fill:url(#Áåçûìÿííûé_ãðàäèåíò_134-29);}.cls-40{fill:url(#Áåçûìÿííûé_ãðàäèåíò_134-30);}.cls-41{fill:url(#Áåçûìÿííûé_ãðàäèåíò_134-31);}.cls-42{fill:url(#Áåçûìÿííûé_ãðàäèåíò_134-32);}.cls-43{fill:#901e1e;}</style><clipPath id="clip-path" transform="translate(-10.7519 -14.1035)"><rect class="cls-1" width="600" height="270" transform="translate(600 270) rotate(180)"/></clipPath><linearGradient id="Áåçûìÿííûé_ãðàäèåíò_3" x1="336.76108" y1="-15.56199" x2="336.76108" y2="-21.63113" gradientTransform="matrix(-0.6169, 0.7871, 0.7871, 0.6169, 405.9308, -248.3881)" gradientUnits="userSpaceOnUse"><stop offset="0" stop-color="#3b1b36"/><stop offset="1" stop-color="#311134"/></linearGradient><linearGradient id="Áåçûìÿííûé_ãðàäèåíò_134" x1="337.74121" y1="107.022" x2="337.74121" y2="100.6667" gradientTransform="matrix(-1, 0, 0, 1, 589.2481, -14.1035)" gradientUnits="userSpaceOnUse"><stop offset="0" stop-color="#7a2228"/><stop offset="1" stop-color="#1f0328"/></linearGradient><linearGradient id="Áåçûìÿííûé_ãðàäèåíò_134-2" x1="210.399" y1="49.45105" x2="215.775" y2="49.45105" xlink:href="#Áåçûìÿííûé_ãðàäèåíò_134"/><linearGradient id="Áåçûìÿííûé_ãðàäèåíò_134-3" x1="217.91061" y1="44.50785" x2="223.32531" y2="44.50785" xlink:href="#Áåçûìÿííûé_ãðàäèåíò_134"/><linearGradient id="Áåçûìÿííûé_ãðàäèåíò_134-4" x1="110.8423" y1="10.17887" x2="114.22594" y2="10.17887" gradientTransform="matrix(-0.9328, 0.3605, 0.3605, 0.9328, 504.5945, -42.9774)" xlink:href="#Áåçûìÿííûé_ãðàäèåíò_134"/><linearGradient id="Áåçûìÿííûé_ãðàäèåíò_134-5" x1="101.95139" y1="14.63576" x2="108.01888" y2="14.63576" gradientTransform="matrix(-0.9328, 0.3605, 0.3605, 0.9328, 504.5945, -42.9774)" xlink:href="#Áåçûìÿííûé_ãðàäèåíò_134"/><linearGradient id="Áåçûìÿííûé_ãðàäèåíò_134-6" x1="174.82351" y1="44.01295" x2="178.70531" y2="44.01295" xlink:href="#Áåçûìÿííûé_ãðàäèåíò_134"/><linearGradient id="Áåçûìÿííûé_ãðàäèåíò_134-7" x1="228.35041" y1="163.26215" x2="240.80621" y2="163.26215" xlink:href="#Áåçûìÿííûé_ãðàäèåíò_134"/><linearGradient id="Áåçûìÿííûé_ãðàäèåíò_134-8" x1="234.67061" y1="170.00525" x2="238.13031" y2="170.00525" xlink:href="#Áåçûìÿííûé_ãðàäèåíò_134"/><linearGradient id="Áåçûìÿííûé_ãðàäèåíò_134-9" x1="453.5366" y1="45.39995" x2="456.4807" y2="45.39995" xlink:href="#Áåçûìÿííûé_ãðàäèåíò_134"/><linearGradient id="Áåçûìÿííûé_ãðàäèåíò_134-10" x1="363.56861" y1="24.23675" x2="367.27721" y2="24.23675" xlink:href="#Áåçûìÿííûé_ãðàäèåíò_134"/><linearGradient id="Áåçûìÿííûé_ãðàäèåíò_134-11" x1="365.23941" y1="15.10055" x2="367.78051" y2="15.10055" xlink:href="#Áåçûìÿííûé_ãðàäèåíò_134"/><linearGradient id="Áåçûìÿííûé_ãðàäèåíò_134-12" x1="356.81171" y1="29.3063" x2="362.50551" y2="29.3063" xlink:href="#Áåçûìÿííûé_ãðàäèåíò_134"/><linearGradient id="Áåçûìÿííûé_ãðàäèåíò_134-13" x1="352.92481" y1="33.41995" x2="355.55711" y2="33.41995" xlink:href="#Áåçûìÿííûé_ãðàäèåíò_134"/><linearGradient id="Áåçûìÿííûé_ãðàäèåíò_134-14" x1="519.50246" y1="43.58674" x2="524.65068" y2="43.58674" gradientTransform="matrix(-0.483, -0.8756, -0.8756, 0.483, 555.7738, 531.114)" xlink:href="#Áåçûìÿííûé_ãðàäèåíò_134"/><linearGradient id="Áåçûìÿííûé_ãðàäèåíò_134-15" x1="353.83591" y1="18.9441" x2="360.164" y2="18.9441" xlink:href="#Áåçûìÿííûé_ãðàäèåíò_134"/><linearGradient id="Áåçûìÿííûé_ãðàäèåíò_134-16" x1="261.84716" y1="-22.33681" x2="276.78078" y2="-22.33681" gradientTransform="matrix(-0.9328, 0.3605, 0.3605, 0.9328, 504.5945, -42.9774)" xlink:href="#Áåçûìÿííûé_ãðàäèåíò_134"/><linearGradient id="Áåçûìÿííûé_ãðàäèåíò_134-17" x1="374.46847" y1="-61.40978" x2="378.13632" y2="-61.40978" gradientTransform="matrix(-0.9328, 0.3605, 0.3605, 0.9328, 504.5945, -42.9774)" xlink:href="#Áåçûìÿííûé_ãðàäèåíò_134"/><linearGradient id="Áåçûìÿííûé_ãðàäèåíò_134-18" x1="364.91512" y1="-56.54091" x2="371.42871" y2="-56.54091" gradientTransform="matrix(-0.9328, 0.3605, 0.3605, 0.9328, 504.5945, -42.9774)" xlink:href="#Áåçûìÿííûé_ãðàäèåíò_134"/><linearGradient id="Áåçûìÿííûé_ãðàäèåíò_134-19" x1="432.2551" y1="-264.35544" x2="443.79591" y2="-264.35544" gradientTransform="matrix(-0.8423, -0.539, -0.539, 0.8423, 339.8959, 507.7228)" xlink:href="#Áåçûìÿííûé_ãðàäèåíò_134"/><linearGradient id="Áåçûìÿííûé_ãðàäèåíò_134-20" x1="519.8374" y1="96.81155" x2="526.1492" y2="96.81155" xlink:href="#Áåçûìÿííûé_ãðàäèåíò_134"/><linearGradient id="Áåçûìÿííûé_ãðàäèåíò_134-21" x1="528.6565" y1="90.7136" x2="535.0139" y2="90.7136" xlink:href="#Áåçûìÿííûé_ãðàäèåíò_134"/><linearGradient id="Áåçûìÿííûé_ãðàäèåíò_134-22" x1="461.2815" y1="73.91935" x2="464.7818" y2="73.91935" xlink:href="#Áåçûìÿííûé_ãðàäèåíò_134"/><linearGradient id="Áåçûìÿííûé_ãðàäèåíò_134-23" x1="466.1723" y1="70.5377" x2="469.6978" y2="70.5377" xlink:href="#Áåçûìÿííûé_ãðàäèåíò_134"/><linearGradient id="Áåçûìÿííûé_ãðàäèåíò_134-24" x1="118.91061" y1="173.75765" x2="122.37031" y2="173.75765" xlink:href="#Áåçûìÿííûé_ãðàäèåíò_134"/><linearGradient id="Áåçûìÿííûé_ãðàäèåíò_134-25" x1="45.46536" y1="320.33856" x2="57.92149" y2="320.33856" gradientTransform="matrix(-0.7618, -0.6478, -0.6478, 0.7618, 730.9421, -61.7791)" xlink:href="#Áåçûìÿííûé_ãðàäèåíò_134"/><linearGradient id="Áåçûìÿííûé_ãðàäèåíò_134-26" x1="563.7556" y1="76.45405" x2="567.7299" y2="76.45405" xlink:href="#Áåçûìÿííûé_ãðàäèåíò_134"/><linearGradient id="Áåçûìÿííûé_ãðàäèåíò_134-27" x1="469.19488" y1="559.04653" x2="483.50402" y2="559.04653" gradientTransform="matrix(-0.7618, -0.6478, -0.6478, 0.7618, 730.9421, -61.7791)" xlink:href="#Áåçûìÿííûé_ãðàäèåíò_134"/><linearGradient id="Áåçûìÿííûé_ãðàäèåíò_134-28" x1="258.51931" y1="83.97005" x2="264.09221" y2="83.97005" xlink:href="#Áåçûìÿííûé_ãðàäèåíò_134"/><linearGradient id="Áåçûìÿííûé_ãðàäèåíò_134-29" x1="301.388" y1="63.6417" x2="305.20641" y2="63.6417" xlink:href="#Áåçûìÿííûé_ãðàäèåíò_134"/><linearGradient id="Áåçûìÿííûé_ãðàäèåíò_134-30" x1="248.366" y1="91.58805" x2="256.92191" y2="91.58805" xlink:href="#Áåçûìÿííûé_ãðàäèåíò_134"/><linearGradient id="Áåçûìÿííûé_ãðàäèåíò_134-31" x1="242.52521" y1="97.7695" x2="246.48061" y2="97.7695" xlink:href="#Áåçûìÿííûé_ãðàäèåíò_134"/><linearGradient id="Áåçûìÿííûé_ãðàäèåíò_134-32" x1="243.89431" y1="76.017" x2="253.40331" y2="76.017" xlink:href="#Áåçûìÿííûé_ãðàäèåíò_134"/></defs><title>pedras</title><g class="cls-2"><g id="Ñëîé_1" data-name="Ñëîé 1"><g class="cls-3"><polygon class="cls-4" points="183.134 2.658 185.524 5.022 185.581 5.388 185.188 8.028 184.39 8.09 181.719 5.451 181.56 2.818 183.134 2.658"/><polygon class="cls-5" points="253.415 91.848 254.32 87.809 253.828 86.976 251.246 86.563 248.693 91.22 250.646 92.918 253.415 91.848"/><polygon class="cls-6" points="375.31 38.694 373.473 32.991 374.506 32.001 378.656 33.298 378.849 36.488 375.31 38.694"/><polygon class="cls-7" points="371.337 31.52 370.11 30.306 366.33 28.807 365.923 30.628 368.284 32.001 371.337 31.52"/><polygon class="cls-8" points="404.858 6.445 403.233 4.897 401.452 4.985 401.682 7.613 404.382 9.477 404.858 6.445"/><polygon class="cls-9" points="407.918 6.53 408.114 5.308 410.801 4.748 414.862 7.665 415.543 11.823 411.754 12.344 410.248 10.563 407.918 6.53"/><polygon class="cls-10" points="414.425 30.128 412.464 27.817 410.794 28.146 410.543 30.901 413.905 32.001 414.425 30.128"/><polygon class="cls-11" points="357.174 154.421 348.442 149.775 348.442 147.772 349.265 143.896 360.898 146.171 360.623 153.668 357.174 154.421"/><polygon class="cls-12" points="354.577 155.558 352.983 153.875 351.118 154.353 351.447 157.442 354.346 157.929 354.577 155.558"/><polygon class="cls-13" points="135.211 31.999 135.711 30.623 134.868 29.896 132.767 30.909 133.385 32.696 135.211 31.999"/><polygon class="cls-14" points="225.679 10.023 224.725 8.26 222.503 8.036 221.971 10.023 223.825 12.23 225.679 10.023"/><polygon class="cls-15" points="223.773 1.994 224.009 0.961 222.137 0 221.468 0.982 221.614 1.673 223.773 1.994"/><polygon class="cls-16" points="226.743 14.785 228.775 13.713 232.436 14.86 231.848 16.69 228.034 16.692 226.743 14.785"/><polygon class="cls-17" points="236.323 19.749 235.83 19.012 233.691 18.604 233.871 19.652 235.422 20.029 236.323 19.749"/><polygon class="cls-18" points="265.654 97.861 268.695 96.184 268.3 94.492 262.883 93.51 262.664 95.71 265.654 97.861"/><polygon class="cls-19" points="229.084 3.023 233.946 2.751 235.412 4.238 233.748 6.93 230.118 6.643 229.084 3.023"/><polygon class="cls-20" points="250.727 37.966 251.546 28.654 246.795 25.654 237.299 33.219 243.566 41.008 250.727 37.966"/><polygon class="cls-21" points="250.727 37.966 241.529 33.307 237.299 33.219 243.566 41.008 250.727 37.966"/><polygon class="cls-22" points="246.795 25.654 247.083 27.388 241.529 33.307 237.299 33.219 246.795 25.654"/><polygon class="cls-23" points="244.338 34.73 242.359 32.414 240.314 33.281 244.338 34.73"/><polygon class="cls-21" points="133.385 32.696 135.211 31.999 133.576 31.2 132.767 30.909 133.385 32.696"/><polygon class="cls-24" points="134.868 29.896 135.098 30.173 133.793 31.306 132.767 30.909 134.868 29.896"/><polygon class="cls-23" points="134.331 31.569 134.129 31.015 133.264 31.101 134.331 31.569"/><polygon class="cls-24" points="183.134 2.658 182.753 4.981 181.719 5.451 181.56 2.818 183.134 2.658"/><polygon class="cls-24" points="268.695 96.184 263.714 95.812 262.883 93.51 268.3 94.492 268.695 96.184"/><polygon class="cls-24" points="253.828 86.976 253.039 90.497 251.507 91.22 248.693 91.22 251.246 86.563 253.828 86.976"/><polygon class="cls-22" points="224.725 8.26 224.725 9.477 223.603 10.314 221.971 10.023 222.503 8.036 224.725 8.26"/><polygon class="cls-22" points="222.137 0 223.146 0.831 223.146 1.445 221.614 1.673 221.468 0.982 222.137 0"/><polygon class="cls-21" points="233.946 2.751 233.327 6.218 230.118 6.643 229.084 3.023 233.946 2.751"/><polygon class="cls-21" points="228.775 13.713 230.475 14.906 230.197 15.794 228.034 16.692 226.743 14.785 228.775 13.713"/><polygon class="cls-21" points="235.83 19.012 235.83 19.443 235.478 19.673 233.871 19.652 233.691 18.604 235.83 19.012"/><polygon class="cls-25" points="370.11 30.306 368.392 31.653 365.923 30.628 366.33 28.807 370.11 30.306"/><polygon class="cls-25" points="374.506 32.001 377.648 35.007 376.962 36.747 375.31 38.694 373.473 32.991 374.506 32.001"/><polygon class="cls-22" points="401.452 4.985 403.031 6.043 403.906 7.093 404.382 9.477 401.682 7.613 401.452 4.985"/><polygon class="cls-22" points="408.114 5.308 411.405 6.03 414.3 8.528 413.625 10.697 411.754 12.344 410.248 10.563 407.918 6.53 408.114 5.308"/><polygon class="cls-24" points="349.265 143.896 353.768 145.663 356.099 152.579 348.442 149.775 348.442 147.772 349.265 143.896"/><polygon class="cls-24" points="352.983 153.875 352.775 156.319 351.447 157.442 351.118 154.353 352.983 153.875"/><polygon class="cls-25" points="412.464 27.817 412.464 30.128 410.543 30.901 410.794 28.146 412.464 27.817"/><polygon class="cls-21" points="263.714 95.812 265.654 97.861 262.664 95.71 262.883 93.51 263.714 95.812"/><polygon class="cls-26" points="251.507 91.22 253.415 91.848 250.646 92.918 248.693 91.22 251.507 91.22"/><polygon class="cls-21" points="185.188 8.028 184.127 5.854 182.753 4.981 181.719 5.451 184.39 8.09 185.188 8.028"/><polygon class="cls-21" points="223.146 1.445 223.773 1.994 221.614 1.673 223.146 1.445"/><polygon class="cls-21" points="223.603 10.314 223.825 12.23 221.971 10.023 223.603 10.314"/><polygon class="cls-21" points="230.197 15.794 231.848 16.69 228.034 16.692 230.197 15.794"/><polygon class="cls-21" points="233.327 6.218 233.748 6.93 230.118 6.643 233.327 6.218"/><polygon class="cls-21" points="235.478 19.673 235.422 20.029 233.871 19.652 235.478 19.673"/><polygon class="cls-21" points="403.906 7.093 404.858 6.445 404.382 9.477 403.906 7.093"/><polygon class="cls-21" points="414.3 8.528 414.862 7.665 415.543 11.823 411.754 12.344 413.625 10.697 414.3 8.528"/><polygon class="cls-27" points="133.125 34.664 131.374 32.913 129.455 33.013 129.703 35.986 132.612 38.096 133.125 34.664"/><polygon class="cls-28" points="136.421 34.761 136.632 33.377 139.526 32.744 143.901 36.045 144.634 40.751 140.553 41.341 138.931 39.326 136.421 34.761"/><polygon class="cls-24" points="129.455 33.013 131.156 34.21 132.099 35.398 132.612 38.096 129.703 35.986 129.455 33.013"/><polygon class="cls-24" points="136.632 33.377 140.176 34.194 143.296 37.022 142.569 39.477 140.553 41.341 138.931 39.326 136.421 34.761 136.632 33.377"/><polygon class="cls-21" points="132.099 35.398 133.125 34.664 132.612 38.096 132.099 35.398"/><polygon class="cls-21" points="143.296 37.022 143.901 36.045 144.634 40.751 140.553 41.341 142.569 39.477 143.296 37.022"/><polygon class="cls-29" points="112.076 40.378 114.274 39.23 118.212 42.701 118.078 52.41 112.123 58.389 107.004 53.176 108.184 48.746 112.076 40.378"/><polygon class="cls-24" points="114.274 39.23 116.82 45.15 116.048 52.57 111.779 54.103 107.004 53.176 108.184 48.746 112.076 40.378 114.274 39.23"/><polygon class="cls-21" points="116.048 52.57 118.078 52.41 112.123 58.389 107.004 53.176 111.779 54.103 116.048 52.57"/><polygon class="cls-21" points="376.962 36.747 378.849 36.488 375.31 38.694 376.962 36.747"/><polygon class="cls-21" points="368.392 31.653 368.284 32.001 365.923 30.628 368.392 31.653"/><polygon class="cls-30" points="65.256 86.836 63.099 79.801 64.311 78.58 69.184 80.18 69.411 84.115 65.256 86.836"/><polygon class="cls-31" points="60.592 77.986 59.15 76.488 54.713 74.64 54.234 76.885 57.006 78.58 60.592 77.986"/><polygon class="cls-24" points="59.15 76.488 57.133 78.15 54.234 76.885 54.713 74.64 59.15 76.488"/><polygon class="cls-24" points="64.311 78.58 68.001 82.288 67.196 84.434 65.256 86.836 63.099 79.801 64.311 78.58"/><polygon class="cls-21" points="57.133 78.15 57.006 78.58 54.234 76.885 57.133 78.15"/><polygon class="cls-32" points="125.663 62.105 124.466 58.204 125.139 57.527 127.841 58.414 127.967 60.596 125.663 62.105"/><polygon class="cls-33" points="123.076 57.197 122.276 56.367 119.816 55.342 119.55 56.587 121.088 57.527 123.076 57.197"/><polygon class="cls-24" points="122.276 56.367 121.158 57.288 119.55 56.587 119.816 55.342 122.276 56.367"/><polygon class="cls-24" points="125.139 57.527 127.184 59.583 126.738 60.773 125.663 62.105 124.466 58.204 125.139 57.527"/><polygon class="cls-21" points="121.158 57.288 121.088 57.527 119.55 56.587 121.158 57.288"/><polygon class="cls-21" points="412.464 30.128 413.905 32.001 410.543 30.901 412.464 30.128"/><polygon class="cls-21" points="352.775 156.319 354.346 157.929 351.447 157.442 352.775 156.319"/><polygon class="cls-34" points="470.337 159.311 468.743 157.627 466.878 158.105 467.207 161.194 470.106 161.681 470.337 159.311"/><polygon class="cls-24" points="468.743 157.627 468.535 160.071 467.207 161.194 466.878 158.105 468.743 157.627"/><polygon class="cls-21" points="468.535 160.071 470.106 161.681 467.207 161.194 468.535 160.071"/><polygon class="cls-21" points="356.099 152.579 360.623 153.668 357.174 154.421 348.442 149.775 356.099 152.579"/><polygon class="cls-35" points="482.546 154.399 478.903 145.203 480.201 143.677 483.339 141.258 490.726 150.527 485.66 156.06 482.546 154.399"/><polygon class="cls-24" points="483.339 141.258 485.624 145.521 482.92 152.299 478.903 145.203 480.201 143.677 483.339 141.258"/><polygon class="cls-21" points="482.92 152.299 485.66 156.06 482.546 154.399 478.903 145.203 482.92 152.299"/><polygon class="cls-36" points="25.492 61.956 23.661 60.022 21.518 60.571 21.897 64.12 25.227 64.679 25.492 61.956"/><polygon class="cls-24" points="23.661 60.022 23.422 62.83 21.897 64.12 21.518 60.571 23.661 60.022"/><polygon class="cls-21" points="23.422 62.83 25.227 64.679 21.897 64.12 23.422 62.83"/><polygon class="cls-37" points="4.184 61.992 0 51.428 1.49 49.675 5.095 46.896 13.582 57.544 7.762 63.9 4.184 61.992"/><polygon class="cls-24" points="5.095 46.896 7.721 51.794 4.614 59.58 0 51.428 1.49 49.675 5.095 46.896"/><polygon class="cls-21" points="4.614 59.58 7.762 63.9 4.184 61.992 0 51.428 4.614 59.58"/><polygon class="cls-21" points="224.725 9.477 225.679 10.023 224.725 8.26 224.725 9.477"/><polygon class="cls-21" points="223.146 0.831 224.009 0.961 223.773 1.994 223.146 1.445 223.146 0.831"/><polygon class="cls-38" points="330.729 69.701 329.295 67.051 325.955 66.715 325.156 69.701 327.942 73.018 330.729 69.701"/><polygon class="cls-39" points="287.506 51.036 287.86 49.483 285.047 48.04 284.042 49.515 284.261 50.553 287.506 51.036"/><polygon class="cls-40" points="332.326 76.857 335.381 75.246 340.882 76.969 339.998 79.72 334.267 79.723 332.326 76.857"/><polygon class="cls-41" points="346.723 84.316 345.982 83.208 342.767 82.595 343.037 84.17 345.369 84.737 346.723 84.316"/><polygon class="cls-42" points="335.845 59.181 343.151 58.774 345.354 61.008 342.853 65.053 337.398 64.622 335.845 59.181"/><polygon class="cls-22" points="329.295 67.051 329.295 68.88 327.609 70.138 325.156 69.701 325.955 66.715 329.295 67.051"/><polygon class="cls-22" points="285.047 48.04 286.564 49.289 286.564 50.211 284.261 50.553 284.042 49.515 285.047 48.04"/><polygon class="cls-21" points="343.151 58.774 342.221 63.984 337.398 64.622 335.845 59.181 343.151 58.774"/><polygon class="cls-21" points="335.381 75.246 337.934 77.039 337.517 78.373 334.267 79.723 332.326 76.857 335.381 75.246"/><polygon class="cls-21" points="345.982 83.208 345.982 83.856 345.452 84.202 343.037 84.17 342.767 82.595 345.982 83.208"/><polygon class="cls-21" points="286.564 50.211 287.506 51.036 284.261 50.553 286.564 50.211"/><polygon class="cls-21" points="327.609 70.138 327.942 73.018 325.156 69.701 327.609 70.138"/><polygon class="cls-21" points="337.517 78.373 339.998 79.72 334.267 79.723 337.517 78.373"/><polygon class="cls-21" points="342.221 63.984 342.853 65.053 337.398 64.622 342.221 63.984"/><polygon class="cls-21" points="345.452 84.202 345.369 84.737 343.037 84.17 345.452 84.202"/><polygon class="cls-21" points="329.295 68.88 330.729 69.701 329.295 67.051 329.295 68.88"/><polygon class="cls-21" points="286.564 49.289 287.86 49.483 287.506 51.036 286.564 50.211 286.564 49.289"/><polygon class="cls-26" points="268.695 96.184 263.714 95.812 265.654 97.861 268.695 96.184"/><polygon class="cls-21" points="111.779 54.103 112.123 58.389 107.004 53.176 111.779 54.103"/><polygon class="cls-43" points="69.411 84.115 67.196 84.434 65.256 86.836 69.411 84.115"/></g></g></g></svg>