<svg id="visual" viewBox="0 0 900 600" width="900" height="600" xmlns="http://www.w3.org/2000/svg" xmlns:xlink="http://www.w3.org/1999/xlink" version="1.1"><path d="M0 562L21.5 557.5C43 553 86 544 128.8 541.7C171.7 539.3 214.3 543.7 257.2 548C300 552.3 343 556.7 385.8 556.3C428.7 556 471.3 551 514.2 544.7C557 538.3 600 530.7 642.8 527.5C685.7 524.3 728.3 525.7 771.2 529.2C814 532.7 857 538.3 878.5 541.2L900 544L900 601L878.5 601C857 601 814 601 771.2 601C728.3 601 685.7 601 642.8 601C600 601 557 601 514.2 601C471.3 601 428.7 601 385.8 601C343 601 300 601 257.2 601C214.3 601 171.7 601 128.8 601C86 601 43 601 21.5 601L0 601Z" fill="#7d7d7d"></path><path d="M0 565L21.5 563.3C43 561.7 86 558.3 128.8 556.3C171.7 554.3 214.3 553.7 257.2 556C300 558.3 343 563.7 385.8 567.2C428.7 570.7 471.3 572.3 514.2 570.8C557 569.3 600 564.7 642.8 559.5C685.7 554.3 728.3 548.7 771.2 546.5C814 544.3 857 545.7 878.5 546.3L900 547L900 601L878.5 601C857 601 814 601 771.2 601C728.3 601 685.7 601 642.8 601C600 601 557 601 514.2 601C471.3 601 428.7 601 385.8 601C343 601 300 601 257.2 601C214.3 601 171.7 601 128.8 601C86 601 43 601 21.5 601L0 601Z" fill="#ffffff"></path></svg>