<svg id="visual" viewBox="0 0 900 600" width="900" height="600" xmlns="http://www.w3.org/2000/svg" xmlns:xlink="http://www.w3.org/1999/xlink" version="1.1"><path d="M0 555L21.5 560.2C43 565.3 86 575.7 128.8 576.3C171.7 577 214.3 568 257.2 562C300 556 343 553 385.8 552.5C428.7 552 471.3 554 514.2 559.8C557 565.7 600 575.3 642.8 574.8C685.7 574.3 728.3 563.7 771.2 562.8C814 562 857 571 878.5 575.5L900 580L900 601L878.5 601C857 601 814 601 771.2 601C728.3 601 685.7 601 642.8 601C600 601 557 601 514.2 601C471.3 601 428.7 601 385.8 601C343 601 300 601 257.2 601C214.3 601 171.7 601 128.8 601C86 601 43 601 21.5 601L0 601Z" fill="#7d7d7d"></path><path d="M0 569L21.5 568.3C43 567.7 86 566.3 128.8 568.7C171.7 571 214.3 577 257.2 578C300 579 343 575 385.8 574.2C428.7 573.3 471.3 575.7 514.2 579.3C557 583 600 588 642.8 588.7C685.7 589.3 728.3 585.7 771.2 581.3C814 577 857 572 878.5 569.5L900 567L900 601L878.5 601C857 601 814 601 771.2 601C728.3 601 685.7 601 642.8 601C600 601 557 601 514.2 601C471.3 601 428.7 601 385.8 601C343 601 300 601 257.2 601C214.3 601 171.7 601 128.8 601C86 601 43 601 21.5 601L0 601Z" fill="#000000"></path></svg>