<svg id="visual" viewBox="0 0 900 600" width="900" height="600" xmlns="http://www.w3.org/2000/svg" xmlns:xlink="http://www.w3.org/1999/xlink" version="1.1"><path d="M0 492L21.5 494.7C43 497.3 86 502.7 128.8 504.3C171.7 506 214.3 504 257.2 498.8C300 493.7 343 485.3 385.8 478.7C428.7 472 471.3 467 514.2 472.8C557 478.7 600 495.3 642.8 503.5C685.7 511.7 728.3 511.3 771.2 507.3C814 503.3 857 495.7 878.5 491.8L900 488L900 601L878.5 601C857 601 814 601 771.2 601C728.3 601 685.7 601 642.8 601C600 601 557 601 514.2 601C471.3 601 428.7 601 385.8 601C343 601 300 601 257.2 601C214.3 601 171.7 601 128.8 601C86 601 43 601 21.5 601L0 601Z" fill="#ffffff"></path><path d="M0 496L21.5 496.7C43 497.3 86 498.7 128.8 504.5C171.7 510.3 214.3 520.7 257.2 528.3C300 536 343 541 385.8 542.5C428.7 544 471.3 542 514.2 540C557 538 600 536 642.8 532.3C685.7 528.7 728.3 523.3 771.2 517.3C814 511.3 857 504.7 878.5 501.3L900 498L900 601L878.5 601C857 601 814 601 771.2 601C728.3 601 685.7 601 642.8 601C600 601 557 601 514.2 601C471.3 601 428.7 601 385.8 601C343 601 300 601 257.2 601C214.3 601 171.7 601 128.8 601C86 601 43 601 21.5 601L0 601Z" fill="#7d7d7d"></path><path d="M0 533L21.5 539C43 545 86 557 128.8 561.3C171.7 565.7 214.3 562.3 257.2 557C300 551.7 343 544.3 385.8 541.2C428.7 538 471.3 539 514.2 542.2C557 545.3 600 550.7 642.8 551.7C685.7 552.7 728.3 549.3 771.2 551.8C814 554.3 857 562.7 878.5 566.8L900 571L900 601L878.5 601C857 601 814 601 771.2 601C728.3 601 685.7 601 642.8 601C600 601 557 601 514.2 601C471.3 601 428.7 601 385.8 601C343 601 300 601 257.2 601C214.3 601 171.7 601 128.8 601C86 601 43 601 21.5 601L0 601Z" fill="#111111"></path></svg>