<svg id="visual" viewBox="0 0 900 600" width="900" height="600" xmlns="http://www.w3.org/2000/svg" xmlns:xlink="http://www.w3.org/1999/xlink" version="1.1"><path d="M0 568L21.5 570.8C43 573.7 86 579.3 128.8 579C171.7 578.7 214.3 572.3 257.2 567.8C300 563.3 343 560.7 385.8 562.2C428.7 563.7 471.3 569.3 514.2 573.5C557 577.7 600 580.3 642.8 577.3C685.7 574.3 728.3 565.7 771.2 566C814 566.3 857 575.7 878.5 580.3L900 585L900 601L878.5 601C857 601 814 601 771.2 601C728.3 601 685.7 601 642.8 601C600 601 557 601 514.2 601C471.3 601 428.7 601 385.8 601C343 601 300 601 257.2 601C214.3 601 171.7 601 128.8 601C86 601 43 601 21.5 601L0 601Z" fill="#7d7d7d"></path><path d="M0 569L21.5 572.2C43 575.3 86 581.7 128.8 584C171.7 586.3 214.3 584.7 257.2 583.5C300 582.3 343 581.7 385.8 582.8C428.7 584 471.3 587 514.2 586.3C557 585.7 600 581.3 642.8 578.5C685.7 575.7 728.3 574.3 771.2 576.7C814 579 857 585 878.5 588L900 591L900 601L878.5 601C857 601 814 601 771.2 601C728.3 601 685.7 601 642.8 601C600 601 557 601 514.2 601C471.3 601 428.7 601 385.8 601C343 601 300 601 257.2 601C214.3 601 171.7 601 128.8 601C86 601 43 601 21.5 601L0 601Z" fill="#ffffff"></path></svg>